<svg xmlns="http://www.w3.org/2000/svg" xmlns:xlink="http://www.w3.org/1999/xlink" viewBox="0 0 105.46 24.52"><defs><style>.cls-1{fill:url(#linear-gradient);}.cls-2{fill:url(#linear-gradient-2);}.cls-3{fill:url(#linear-gradient-3);}.cls-4{fill:url(#linear-gradient-4);}.cls-5{fill:url(#linear-gradient-5);}.cls-6{fill:url(#linear-gradient-6);}.cls-7{fill:url(#linear-gradient-7);}</style><linearGradient id="linear-gradient" x1="10.43" y1="0.17" x2="10.43" y2="21.23" gradientUnits="userSpaceOnUse"><stop offset="0" stop-color="#2d58fe"/><stop offset="1" stop-color="#039be5"/></linearGradient><linearGradient id="linear-gradient-2" x1="29.42" y1="0.17" x2="29.42" y2="21.23" xlink:href="#linear-gradient"/><linearGradient id="linear-gradient-3" x1="46.23" y1="0.17" x2="46.23" y2="21.23" xlink:href="#linear-gradient"/><linearGradient id="linear-gradient-4" x1="65.42" y1="0.17" x2="65.42" y2="21.23" xlink:href="#linear-gradient"/><linearGradient id="linear-gradient-5" x1="78.83" y1="0.17" x2="78.83" y2="21.23" xlink:href="#linear-gradient"/><linearGradient id="linear-gradient-6" x1="92.36" y1="0.17" x2="92.36" y2="21.23" xlink:href="#linear-gradient"/><linearGradient id="linear-gradient-7" x1="103.94" y1="0.17" x2="103.94" y2="21.23" xlink:href="#linear-gradient"/></defs><g id="Layer_2" data-name="Layer 2"><g id="Layer_1-2" data-name="Layer 1"><g id="Skykit_Logo_Color"><path class="cls-1" d="M0,24.52V18.86H10.3A1.67,1.67,0,0,0,12.19,17a1.66,1.66,0,0,0-1.89-1.88H8.42Q.88,15.09.87,7.54T8.42,0H20.86V5.66H8.42A1.67,1.67,0,0,0,6.53,7.54,1.67,1.67,0,0,0,8.42,9.43H10.3q7.54,0,7.54,7.54T10.3,24.52Z"/><path class="cls-2" d="M25.93,10,31.58,0h7L31.2,12.26l7.36,12.26h-7l-5.65-10v10H20.27V0h5.66Z"/><path class="cls-3" d="M48,16.76v7.76H42.34V16.76l-4.74-11L40.93,0l4.18,9.43h0L49.21,0h5.65Z"/><path class="cls-4" d="M61.92,10,67.58,0h7L67.21,12.26l7.35,12.26h-7l-5.66-10v10H56.27V0h5.65Z"/><path class="cls-5" d="M81.65,0V24.52H76V0Z"/><path class="cls-6" d="M100.85,0V5.66H95.19V24.52H89.53V5.66H83.88V0Z"/><path class="cls-7" d="M102.41,1.66a1.53,1.53,0,1,1,1.53,1.52A1.52,1.52,0,0,1,102.41,1.66Zm.19,0a1.34,1.34,0,0,0,2.67,0,1.34,1.34,0,0,0-2.67,0Zm1.31.19h-.34v.68h-.21V.79h.71a.5.5,0,0,1,.53.53.51.51,0,0,1-.44.52l.46.69h-.26ZM103.57,1v.66h.5a.3.3,0,0,0,.32-.32.31.31,0,0,0-.32-.34Z"/></g></g></g></svg>