<svg xmlns="http://www.w3.org/2000/svg" viewBox="0 0 525.24 118.56"><defs><style>.cls-1{fill:#373737;}</style></defs><g id="Layer_2" data-name="Layer 2"><g id="Layer_1-2" data-name="Layer 1"><path class="cls-1" d="M524.61,24.89a4.67,4.67,0,0,0-1.74-1.76,5.55,5.55,0,0,0-5.21,0,4.72,4.72,0,0,0-1.75,1.77,5.43,5.43,0,0,0,0,5,4.67,4.67,0,0,0,1.75,1.78,5.09,5.09,0,0,0,2.6.65,5.16,5.16,0,0,0,2.61-.65,4.72,4.72,0,0,0,1.74-1.78,5.38,5.38,0,0,0,0-5.05Zm-.9,4.56a3.68,3.68,0,0,1-1.38,1.44,4.22,4.22,0,0,1-4.13,0,3.7,3.7,0,0,1-1.39-1.44,4.43,4.43,0,0,1,0-4.05A3.7,3.7,0,0,1,518.2,24a4.22,4.22,0,0,1,4.13,0,3.68,3.68,0,0,1,1.38,1.44,4.43,4.43,0,0,1,0,4.05Z"/><path class="cls-1" d="M521.89,27.74a1.54,1.54,0,0,0,.57-1.26,1.63,1.63,0,0,0-.26-.92,1.66,1.66,0,0,0-.71-.59,2.55,2.55,0,0,0-1.07-.21h-2.21v5.39h1V28.2h1l1.3,1.95h1.1l-1.42-2A1.89,1.89,0,0,0,521.89,27.74Zm-2.71-2.24h1.23a1.19,1.19,0,0,1,.8.24,1,1,0,0,1,.27.74.92.92,0,0,1-.27.73,1.19,1.19,0,0,1-.8.24h-1.23Z"/><path class="cls-1" d="M95.82,26.5,88,24a11.06,11.06,0,0,0-8.64,1.3l-4.14,2.91a11.79,11.79,0,0,0,3.11-5.5,23.8,23.8,0,0,0,.59-3.23A18.22,18.22,0,0,0,78.45,13a17,17,0,0,0-.67-2.13,15.48,15.48,0,0,0-1.64-3.25c-.1-.16-.22-.3-.33-.45s-.15-.2-.21-.3a8,8,0,0,0-1.14-1.44,7.45,7.45,0,0,0-.58-.53,8.66,8.66,0,0,0-1.46-1c-.57-.31-1.61-.83-1.87-.64s-.06.86,0,1.1A22.58,22.58,0,0,1,71,8a14.55,14.55,0,0,1-.08,1.88c-.1.47-.05.85-.13,1.08a10,10,0,0,1-.66,2.51,15.87,15.87,0,0,1-.72,1.67,11.52,11.52,0,0,1-5.23,5.21,9.28,9.28,0,0,0-1.69.9,8.59,8.59,0,0,0-5.69-1.77L38.58,21.42a8.57,8.57,0,0,0-5.2,2.92,9.49,9.49,0,0,0-1.85-.53,11.51,11.51,0,0,1-6.19-4c-.39-.49-.74-1-1.06-1.48A10.63,10.63,0,0,1,23.12,16c-.13-.21-.16-.59-.35-1a15.32,15.32,0,0,1-.47-1.83A21.55,21.55,0,0,1,22,9.47c0-.24,0-.94-.25-1.07s-1.2.6-1.7,1a9.62,9.62,0,0,0-1.22,1.27c-.17.21-.32.43-.46.64A8.4,8.4,0,0,0,17.51,13c0,.11-.1.22-.14.33s-.17.33-.24.51a16.58,16.58,0,0,0-.93,3.52A20.35,20.35,0,0,0,16,19.56a18.21,18.21,0,0,0,.94,6.4,22.86,22.86,0,0,0,1.25,3,11.67,11.67,0,0,0,4.19,4.73l-4.66-2A11.1,11.1,0,0,0,9,32.26L1.82,36.38c-2.33,1.34-2.44,3.7-.23,5.23L6.9,45.32A12.39,12.39,0,0,0,15.65,47l4.74-1.14c2.61-.63,5-1.81,5.4-2.62s.1,0-.58,1.89-.15,5.28,1.16,7.62l5.68,10.09A19.28,19.28,0,0,1,34.12,72l-.25,3.65a9.36,9.36,0,0,0,3.73,7.58l5.8,3.87a15.74,15.74,0,0,0,8.91,2.2l5.1-.53a15.77,15.77,0,0,0,8.27-4l4.86-5a9.36,9.36,0,0,0,2.08-8.2l-1-3.52a19.25,19.25,0,0,1,.12-9.36l3.45-11c.81-2.57.6-6-.44-7.7s-1.48-2.44-1-1.72,3.14,1.36,5.83,1.43l4.87.13A12.37,12.37,0,0,0,92.7,36.3l4.43-4.73C99,29.61,98.37,27.33,95.82,26.5Z"/><path class="cls-1" d="M377.21,56.82l-7.78-1.5c-4.78-.85-6.57-2.63-6.57-5.35,0-3.09,3.19-5.72,8.44-5.72a18.5,18.5,0,0,1,11.54,4,2.46,2.46,0,0,0,3.37-.1l2.25-2.53c.85-1,.94-2.16-.09-3-3.28-2.91-8.91-5.63-16.69-5.63-10.41,0-18,5.63-18,13.51,0,6.84,4.59,11,12.09,12.47l7.5,1.4c5.35,1,8.07,2.63,8.07,6.1,0,3.09-3.1,6.19-9.19,6.19a18.33,18.33,0,0,1-12.66-5.16c-1-.75-2-1.41-3.38-.28l-2.43,2.06c-1.41,1.13-1.5,2.82.84,4.78a26.77,26.77,0,0,0,17.25,5.72c12,0,18.85-6.84,18.85-14.06C390.62,62.16,385.74,58.6,377.21,56.82Z"/><path class="cls-1" d="M268.52,37.52a23.09,23.09,0,1,0,23.09,23.09A23.12,23.12,0,0,0,268.52,37.52Zm0,37.51a14.42,14.42,0,1,1,14.42-14.42A14.44,14.44,0,0,1,268.52,75Z"/><path class="cls-1" d="M214.87,37.52A23.09,23.09,0,1,0,238,60.61,23.12,23.12,0,0,0,214.87,37.52Zm0,37.51a14.42,14.42,0,1,1,14.42-14.42A14.43,14.43,0,0,1,214.87,75Z"/><path class="cls-1" d="M420.1,37.52a23.09,23.09,0,1,0,23.1,23.09A23.12,23.12,0,0,0,420.1,37.52Zm0,37.51a14.42,14.42,0,1,1,14.42-14.42A14.44,14.44,0,0,1,420.1,75Z"/><path class="cls-1" d="M484.06,13.75l5.85-3a1.06,1.06,0,0,0,.43-1.49,18.82,18.82,0,0,0-35,9.47h0v19h-5.79a1.68,1.68,0,0,0-1.68,1.68v5.3a1.69,1.69,0,0,0,1.68,1.69h5.79v35a1.91,1.91,0,0,0,1.91,1.91h4.86A1.91,1.91,0,0,0,464,81.45v-35h8.94a1.69,1.69,0,0,0,1.69-1.69v-5.3a1.68,1.68,0,0,0-1.69-1.68H464V19.09A10.32,10.32,0,0,1,473.37,8.7a10.12,10.12,0,0,1,9.32,4.68A1,1,0,0,0,484.06,13.75Z"/><path class="cls-1" d="M512.3,74c-.74-1-1.78-1.13-3.09-.28a9.76,9.76,0,0,1-4.88,1.4c-3.09,0-6.18-2.06-6.18-6.94V46.5h13.59a1.65,1.65,0,0,0,1.69-1.78V39.41a1.65,1.65,0,0,0-1.69-1.78H498.15V24.94a1.65,1.65,0,0,0-1.69-1.78h-5.53a1.55,1.55,0,0,0-1.79,1.78V37.63h-6.56A1.69,1.69,0,0,0,481,39.41v5.31a1.69,1.69,0,0,0,1.59,1.78h6.56V70c0,9.47,6.85,13.4,13.69,13.4,4.69,0,8.44-1.21,11.16-3.65a1.81,1.81,0,0,0,.28-2.63Z"/><path class="cls-1" d="M324.8,94.14a51.87,51.87,0,0,0-6,2.43c-4.5,2-9.59,4.32-12.4,2.51a3.81,3.81,0,0,1-1.83-3,5.53,5.53,0,0,1,1.79-4.45,42.92,42.92,0,0,1,13-7.85l0-.11c.44,0,.89,0,1.33,0a23.07,23.07,0,0,0,17.46-38.18,16.17,16.17,0,0,0,11.5-15.45A1.59,1.59,0,0,0,348,28.48h-5.5a1.59,1.59,0,0,0-1.59,1.59,7.45,7.45,0,0,1-7.45,7.45H322v0c-.45,0-.9,0-1.36,0A23.08,23.08,0,0,0,307.84,79.8a46.9,46.9,0,0,0-7.39,5.46,14.21,14.21,0,0,0-4.53,11.58,12.55,12.55,0,0,0,5.79,9.54c6.77,4.35,14.78.74,20.64-1.9a48,48,0,0,1,5-2c3.38-1,9.61-2.23,13.34,1.29a8.14,8.14,0,0,1,2.08,9.4,1.57,1.57,0,0,0,.52,2l4.59,3.18a1.58,1.58,0,0,0,2.28-.55,16.82,16.82,0,0,0-3.51-20.31C341.49,92.58,333.74,91.42,324.8,94.14ZM306.25,60.61A14.42,14.42,0,1,1,320.66,75,14.44,14.44,0,0,1,306.25,60.61Z"/><path class="cls-1" d="M167.24,37.88c-6.66,0-12.66,2.63-16.41,9-2.54-5.35-7.79-9-15-9-6.65,0-12.19,3.29-14.72,7.69V40.79a1.68,1.68,0,0,0-1.68-1.69h-5.63a1.65,1.65,0,0,0-1.69,1.78V81.67a1.58,1.58,0,0,0,1.69,1.69h5.63a1.59,1.59,0,0,0,1.68-1.59v-23c0-7.22,4.32-12.66,12.1-12.66,7.59,0,11.25,5.44,11.25,12.66v23a1.68,1.68,0,0,0,1.78,1.59h5.54a1.59,1.59,0,0,0,1.68-1.59v-23c0-7.22,4.41-12.66,12-12.66,7.78,0,11.34,5.44,11.34,12.66v23a1.58,1.58,0,0,0,1.78,1.59H184a1.58,1.58,0,0,0,1.78-1.59V56.82C185.8,46.51,179.61,37.88,167.24,37.88Z"/></g></g></svg>