<?xml version="1.0" encoding="utf-8"?>
<!-- Generator: Adobe Illustrator 26.2.1, SVG Export Plug-In . SVG Version: 6.00 Build 0)  -->
<svg version="1.1" id="Layer_1" xmlns="http://www.w3.org/2000/svg" xmlns:xlink="http://www.w3.org/1999/xlink" x="0px" y="0px"
	 viewBox="0 0 864 199.9" style="enable-background:new 0 0 864 199.9;" xml:space="preserve">
<style type="text/css">
	.st0{fill:none;}
	.st1{clip-path:url(#SVGID_00000097471878491217419050000004289688799466829467_);}
	.st2{fill:#061431;}
</style>
<rect x="371.6" y="326" class="st0" width="132" height="22"/>
<g>
	<g>
		<defs>
			<rect id="SVGID_1_" x="1.9" y="25.6" width="860.3" height="143.7"/>
		</defs>
		<clipPath id="SVGID_00000127021170460986897480000008758883170609643673_">
			<use xlink:href="#SVGID_1_"  style="overflow:visible;"/>
		</clipPath>
		<g style="clip-path:url(#SVGID_00000127021170460986897480000008758883170609643673_);">
			<path class="st2" d="M317,70.1l-11.1,11.1L295,70.1h-39.6l-13.2,13.6V70.1h-20.8v99.2h22V99.9l11.7-11.7h25.4l6.1,6v75.1h22V96
				l7.9-7.8h29.2l6.1,6v75.1h22V87.8l-17.6-17.7C356.2,70.1,317,70.1,317,70.1z M97,70.1H67.9l-44,42.5v-87h-22v143.7h22v-33.7
				l17.4-15.4l34.8,49.1h27.1L57,106.1L97,70.1L97,70.1z M124.4,70.1l-17.6,17.7v63.9l17.6,17.7h60.2l17.6-17.7V87.8l-17.6-17.7
				H124.4L124.4,70.1z M180,145.3l-5.9,6h-39.2l-5.8-6V94.2l5.9-6h39.2l5.9,6L180,145.3L180,145.3L180,145.3z M704.4,70.1
				l-17.6,17.7v63.9l17.6,17.7h60.2l17.6-17.7V87.8l-17.6-17.7C764.6,70.1,704.4,70.1,704.4,70.1z M760,145.3l-5.9,6h-39.2l-5.9-6
				V94.2l5.9-6h39.2l5.9,6V145.3z M836.8,70.1l-14.7,14.8V70.1h-20.8v99.2h22v-67.1l11.7-11.5h27.1V70.1
				C862.2,70.1,836.8,70.1,836.8,70.1z M409.1,70.1l-17.6,17.7v63.9l17.6,17.7h130.1l17.6-17.7V87.8l-17.6-17.7L409.1,70.1
				L409.1,70.1z M534.6,145.3l-5.9,6H419.6l-5.9-6V94.2l5.9-6h109.1l5.9,6V145.3z M645.4,82.4l-12.2-12.3h-41.9l-17.6,17.7v63.9
				l17.6,17.7h41.9l12.2-12.1v12.1h22V25.6h-22C645.4,25.6,645.4,82.4,645.4,82.4z M645.4,139.7l-11.7,11.5h-31.9l-6.1-6V94.2l6.1-6
				h31.9l11.7,11.7C645.4,99.9,645.4,139.7,645.4,139.7z"/>
		</g>
	</g>
</g>
</svg>
