<?xml version="1.0" encoding="utf-8"?>
<svg viewBox="100 5 56.674 55.461" xmlns="http://www.w3.org/2000/svg">
  <defs>
    <style>.cls-1{fill:#b92790;}</style>
  </defs>
  <g id="Layer_2" data-name="Layer 2" transform="matrix(1, 0, 0, 1, -15.365853, 0.199557)">
    <g id="Layer_1-2" data-name="Layer 1">
      <path class="cls-1" d="M158.16,17.85l-4.49,4.57a14.68,14.68,0,0,1,6.24,12.42c0,8.7-6.32,15-15,15h0c-8.71,0-15-6.32-15-15s6.31-15,15-15c.49,0,1,0,1.44.08l-4.84,4.93,1.9,1.87,9.85-10L143.38,7l-1.87,1.9,4.9,4.82c-.5,0-1-.06-1.51-.06-12.32,0-21.56,9-21.56,21.22s9.24,21.22,21.56,21.22,21.55-9,21.55-21.22A20.73,20.73,0,0,0,158.16,17.85Z"/>
    </g>
  </g>
</svg>