<svg xmlns="http://www.w3.org/2000/svg" viewBox="0 0 258.07 56.06">
    <defs>
        <style>.cls-1{fill:#b92790;}</style>
    </defs>
    <title>Asset 1</title>
    <g id="Layer_2" data-name="Layer 2">
        <g id="Layer_1-2" data-name="Layer 1">
            <polygon class="cls-1" points="76.29 15.59 76.29 14.51 45.95 14.51 45.95 20.43 66.12 20.43 44.54 54.22 44.54 55.17 76.42 55.17 76.42 49.18 54.85 49.18 76.29 15.59"/>
            <path class="cls-1" d="M99.39,49.86c-8.27,0-14.59-6.53-14.59-15s6.24-15,14.59-15a14.39,14.39,0,0,1,13.42,8.4h6.34c-2.46-8.81-10.07-14.59-19.76-14.59-12,0-21.12,9.1-21.12,21.22s9.1,21.22,21.12,21.22c9.61,0,17.36-5.84,19.84-14.81h-6.47A14.26,14.26,0,0,1,99.39,49.86Z"/>
            <path class="cls-1" d="M206.27,19.65a20.87,20.87,0,0,0-15-6c-12.23,0-21,9-21,21.22s8.74,21.22,21,21.22a20.76,20.76,0,0,0,15.62-6.67l.87,5.78h4.95V0h-6.4ZM191.71,49.86c-8.61,0-14.92-6.39-14.92-15s6.31-15,14.92-15a14.62,14.62,0,0,1,15,15A14.65,14.65,0,0,1,191.71,49.86Z"/>
            <path class="cls-1" d="M258.07,35c0-11.87-8.15-21.38-20.49-21.38-11.79,0-20.73,9.11-20.73,21.21s8.94,21.23,20.73,21.23c8.82,0,16-4.9,19.41-13.29h-6.75a14,14,0,0,1-12.66,7c-7.7,0-13.3-4.94-14.3-12.47h34.65C258,36.55,258.07,35.77,258.07,35Zm-34.65-3.6a13.84,13.84,0,0,1,14.16-11.72h0A13.79,13.79,0,0,1,251.66,31.4Z"/>
            <path class="cls-1" d="M21.55,13.62c-.51,0-1,0-1.51.06l4.9-4.82L23.07,7,13.2,16.67l9.85,10L25,24.82l-4.84-4.93c.47,0,.95-.08,1.44-.08,8.71,0,15,6.33,15,15s-6.31,15-15,15h0c-8.69,0-15-6.32-15-15a14.68,14.68,0,0,1,6.24-12.42L8.29,17.85A20.73,20.73,0,0,0,0,34.84C0,47,9.24,56.06,21.55,56.06s21.56-9,21.56-21.22S33.87,13.62,21.55,13.62Z"/>
            <path class="cls-1" d="M158.16,17.85l-4.49,4.57a14.68,14.68,0,0,1,6.24,12.42c0,8.7-6.32,15-15,15h0c-8.71,0-15-6.32-15-15s6.31-15,15-15c.49,0,1,0,1.44.08l-4.84,4.93,1.9,1.87,9.85-10L143.38,7l-1.87,1.9,4.9,4.82c-.5,0-1-.06-1.51-.06-12.32,0-21.56,9-21.56,21.22s9.24,21.22,21.56,21.22,21.55-9,21.55-21.22A20.73,20.73,0,0,0,158.16,17.85Z"/>
        </g>
    </g>
</svg>