<?xml version="1.0" encoding="UTF-8"?><svg id="a" xmlns="http://www.w3.org/2000/svg" xmlns:xlink="http://www.w3.org/1999/xlink" viewBox="0 0 418.91 195.63"><defs><style>.c{fill:url(#b);}.d{fill:#fff;}.e{fill:#0e2d4b;}</style><linearGradient id="b" x1="234.32" y1="163.65" x2="158.3" y2="31.98" gradientUnits="userSpaceOnUse"><stop offset="0" stop-color="#00a6b4"/><stop offset=".13" stop-color="#00a6ae"/><stop offset=".6" stop-color="#00a6a0"/><stop offset="1" stop-color="#00a69b"/></linearGradient></defs><g><path class="e" d="M49.42,68.08c-10.22,0-17.23,3.9-21.43,11.91-1.9,3.61-2.9,7.85-2.9,12.26v31.94c0,1.86,1.51,3.38,3.38,3.38s3.38-1.51,3.38-3.38v-31.94c0-3.32,.73-6.47,2.12-9.12,3.01-5.74,7.78-8.3,15.45-8.3,1.86,0,3.38-1.51,3.38-3.38s-1.51-3.38-3.38-3.38Z"/><path class="e" d="M393.55,70.13c-.35-.83-1.01-1.47-1.84-1.81-.83-.34-1.75-.33-2.58,.02-.83,.35-1.47,1.01-1.81,1.84l-20.3,50.26c-.06,.15-.18,.36-.53,.36-.27,0-.43-.11-.53-.36l-20.3-50.26c-.34-.84-.98-1.49-1.81-1.84-.83-.35-1.75-.36-2.58-.02-.84,.34-1.49,.98-1.84,1.81-.35,.83-.36,1.75-.02,2.58l20.3,50.26c1.12,2.78,3.79,4.58,6.79,4.58s5.66-1.8,6.79-4.58l20.3-50.26c.34-.84,.33-1.75-.02-2.58Z"/><path class="e" d="M332.66,103.95c-1.74-.66-3.69,.23-4.35,1.97-3.35,8.91-12,14.89-21.52,14.89-7.68,0-14.78-3.79-19.07-10.17l44.33-21.12c.8-.38,1.43-1.08,1.73-1.92,.3-.85,.25-1.77-.14-2.58-4.91-10.29-15.45-16.94-26.85-16.94-16.4,0-29.74,13.34-29.74,29.74,0,4.4,.94,8.64,2.79,12.58,.03,.07,.06,.14,.09,.21,.04,.07,.07,.15,.1,.2,4.96,10.18,15.46,16.75,26.75,16.75,12.32,0,23.5-7.74,27.84-19.26,.66-1.74-.23-3.69-1.97-4.35Zm-25.87-29.12c7.56,0,14.83,3.88,19.08,10.16l-41.06,19.56c-.67-2.18-1.01-4.44-1.01-6.73,0-12.68,10.31-22.99,22.99-22.99Z"/><path class="e" d="M84.84,68.08c-16.4,0-29.74,13.34-29.74,29.74s13.34,29.74,29.74,29.74c8.99,0,17.31-3.96,22.99-10.89v7.52c0,1.86,1.51,3.38,3.38,3.38s3.38-1.51,3.38-3.38v-26.37c0-16.4-13.34-29.74-29.74-29.74Zm0,52.73c-12.68,0-22.99-10.31-22.99-22.99s10.31-22.99,22.99-22.99,22.99,10.31,22.99,22.99-10.31,22.99-22.99,22.99Z"/></g><path class="c" d="M269.87,133.66V61.97c0-5.03-2.65-9.7-6.97-12.28L203.65,14.28c-4.52-2.7-10.16-2.7-14.67,0l-59.26,35.41c-4.32,2.58-6.97,7.24-6.97,12.28v71.69c0,5.03,2.65,9.7,6.97,12.28l59.26,35.41c4.52,2.7,10.16,2.7,14.67,0l59.26-35.41c4.32-2.58,6.97-7.24,6.97-12.28Z"/><path class="d" d="M206.36,82.39c-.18-.11-.38-.22-.59-.31-.22-.1-.46-.15-.64-.2-.22-.04-.44-.06-.66-.06s-.45,.02-.67,.07c-.17,.04-.4,.1-.64,.2-.19,.08-.39,.19-.59,.31-.18,.12-.35,.27-.51,.43-.64,.64-1,1.52-1,2.42,0,.19,.02,.39,.07,.67,.06,.25,.12,.45,.19,.63,.09,.21,.2,.41,.31,.6,.12,.18,.27,.36,.43,.51,.17,.17,.34,.31,.51,.42,.2,.13,.39,.24,.6,.33,.21,.08,.43,.15,.64,.2,.52,.09,.81,.09,1.34,0,.2-.05,.42-.11,.63-.2,.21-.09,.41-.2,.59-.32,.18-.11,.35-.25,.52-.42,.17-.17,.31-.34,.42-.51,.12-.18,.23-.38,.33-.6,.08-.22,.15-.43,.19-.63,.04-.22,.06-.44,.06-.66,0-.9-.36-1.79-.99-2.42-.16-.16-.33-.3-.52-.43Z"/><path class="d" d="M205.65,115.18c5.41,6.95,13.55,10.93,22.33,10.93,15.6,0,28.29-12.69,28.29-28.29V59.23c0-1.81-1.47-3.29-3.29-3.29s-3.29,1.47-3.29,3.29v20.49l-.22-.26c-5.4-6.31-13.23-9.93-21.49-9.93-5.9,0-11.55,1.8-16.35,5.2-.72,.51-1.19,1.26-1.34,2.13s.05,1.74,.56,2.45c.51,.72,1.27,1.19,2.13,1.34,.86,.15,1.73-.05,2.45-.56,3.68-2.61,8.02-3.99,12.55-3.99,11.97,0,21.71,9.74,21.71,21.71s-9.74,21.71-21.71,21.71c-6.74,0-12.98-3.05-17.13-8.37l-23.91-30.75c-5.4-6.91-13.53-10.87-22.29-10.87-15.6,0-28.29,12.69-28.29,28.29v38.59c0,1.81,1.47,3.29,3.29,3.29s3.29-1.47,3.29-3.29v-20.49l.22,.26c5.4,6.31,13.23,9.93,21.49,9.93,6.12,0,11.96-2.15,16.88-6.21l.25-.21-.83,5.27c-.14,.87,.07,1.74,.59,2.44s1.28,1.17,2.15,1.31c.17,.03,.35,.04,.52,.04,1.63,0,2.99-1.17,3.24-2.78l2.41-15.28c.16-1.01-.15-2.01-.85-2.76-.69-.73-1.7-1.12-2.7-1.02l-14.88,1.38c-1.8,.17-3.14,1.77-2.97,3.58,.17,1.79,1.77,3.12,3.58,2.97l5.97-.56-.3,.26c-3.84,3.32-8.23,5-13.06,5-11.97,0-21.71-9.74-21.71-21.71s9.74-21.71,21.71-21.71c6.73,0,12.97,3.04,17.12,8.35l23.88,30.72Z"/></svg>