<?xml version="1.0" encoding="UTF-8"?><svg id="a" xmlns="http://www.w3.org/2000/svg" viewBox="0 0 418.91 195.63"><defs><style>.b{fill:#00a69b;}.c{fill:#fff;}.d{fill:#0e2d4b;}</style></defs><rect class="d" x="-4.68" y="-2.18" width="428.26" height="200"/><g><path class="b" d="M49.42,68.2c-10.17,0-17.14,3.87-21.32,11.84-1.89,3.59-2.88,7.81-2.88,12.2v31.94c0,1.79,1.46,3.25,3.25,3.25s3.25-1.46,3.25-3.25v-31.94c0-3.34,.74-6.51,2.14-9.18,3.04-5.78,7.84-8.36,15.57-8.36,1.79,0,3.25-1.46,3.25-3.25s-1.46-3.25-3.25-3.25Z"/><path class="b" d="M393.44,70.18c-.34-.8-.97-1.42-1.77-1.74-.81-.33-1.69-.32-2.49,.02-.8,.34-1.42,.97-1.74,1.78l-20.3,50.26c-.12,.29-.33,.43-.65,.43s-.53-.14-.64-.43l-20.3-50.26c-.33-.81-.94-1.44-1.74-1.77s-1.68-.35-2.49-.02c-.8,.33-1.44,.94-1.77,1.74-.34,.8-.35,1.68-.02,2.49l20.3,50.26c1.1,2.73,3.72,4.5,6.67,4.5s5.57-1.77,6.67-4.5l20.3-50.26c.33-.81,.32-1.69-.02-2.49Z"/><path class="b" d="M332.61,104.06c-1.68-.63-3.56,.22-4.19,1.9-3.37,8.96-12.07,14.97-21.64,14.97-7.77,0-14.95-3.86-19.26-10.34l44.46-21.18c.77-.37,1.38-1.04,1.67-1.85,.29-.82,.24-1.7-.13-2.49-4.89-10.25-15.39-16.87-26.74-16.87-16.33,0-29.62,13.29-29.62,29.62,0,4.38,.94,8.61,2.79,12.53,.03,.07,.06,.14,.09,.21,.03,.07,.07,.14,.1,.19,4.94,10.13,15.4,16.68,26.64,16.68,12.26,0,23.41-7.71,27.72-19.18,.63-1.68-.22-3.55-1.9-4.19Zm-25.83-29.36c7.65,0,15,3.95,19.26,10.34l-41.32,19.69c-.7-2.23-1.05-4.55-1.05-6.91,0-12.75,10.37-23.12,23.12-23.12Z"/><path class="b" d="M84.84,68.2c-16.33,0-29.62,13.29-29.62,29.62s13.29,29.62,29.62,29.62c9.07,0,17.45-4.04,23.12-11.12v7.87c0,1.79,1.46,3.25,3.25,3.25s3.25-1.46,3.25-3.25v-26.37c0-16.33-13.29-29.62-29.62-29.62Zm0,52.73c-12.75,0-23.12-10.37-23.12-23.12s10.37-23.12,23.12-23.12,23.12,10.37,23.12,23.12-10.37,23.12-23.12,23.12Z"/></g><path class="c" d="M269.87,133.66V61.97c0-5.03-2.65-9.7-6.97-12.28L203.65,14.28c-4.52-2.7-10.16-2.7-14.67,0l-59.26,35.41c-4.32,2.58-6.97,7.24-6.97,12.28v71.69c0,5.03,2.65,9.7,6.97,12.28l59.26,35.41c4.52,2.7,10.16,2.7,14.67,0l59.26-35.41c4.32-2.58,6.97-7.24,6.97-12.28Z"/><g><path class="d" d="M201.09,86.63c.09,.22,.21,.44,.34,.64,.14,.2,.29,.38,.46,.55,.18,.18,.37,.33,.55,.45,.21,.14,.42,.26,.65,.35,.23,.09,.45,.16,.68,.21,.28,.05,.5,.07,.71,.07s.44-.02,.73-.07c.22-.05,.44-.12,.67-.21,.23-.1,.45-.21,.63-.34,.19-.12,.38-.27,.56-.45,.18-.18,.33-.37,.45-.55,.13-.19,.24-.4,.35-.65,.09-.23,.16-.46,.21-.68,.04-.24,.06-.48,.06-.71,0-.97-.39-1.92-1.07-2.59-.17-.17-.36-.32-.56-.46-.19-.12-.41-.24-.63-.33-.19-.08-.4-.15-.68-.21-.47-.09-.97-.09-1.44,0-.27,.06-.48,.13-.69,.21-.2,.09-.41,.2-.63,.33-.2,.14-.38,.29-.55,.46-.68,.68-1.08,1.63-1.08,2.59,0,.2,.02,.42,.07,.72,.06,.28,.13,.49,.21,.68Z"/><path class="d" d="M252.98,55.69c-1.95,0-3.54,1.59-3.54,3.54v19.82c-5.44-6.21-13.24-9.76-21.46-9.76-5.95,0-11.66,1.81-16.5,5.25-.77,.55-1.28,1.36-1.44,2.29-.16,.93,.06,1.87,.6,2.64,.55,.77,1.36,1.28,2.29,1.44,.93,.16,1.87-.05,2.64-.6,3.64-2.58,7.93-3.94,12.4-3.94,11.84,0,21.46,9.63,21.46,21.46s-9.63,21.46-21.46,21.46c-6.66,0-12.83-3.02-16.94-8.29l-23.89-30.73c-5.45-6.98-13.65-10.98-22.5-10.98-15.73,0-28.54,12.8-28.54,28.54v38.59c0,1.95,1.59,3.54,3.54,3.54s3.54-1.59,3.54-3.54v-19.82c5.44,6.21,13.24,9.76,21.46,9.76,6.08,0,11.87-2.09,16.79-6.06l-.73,4.62c-.15,.93,.08,1.87,.63,2.63,.56,.76,1.38,1.26,2.31,1.41,.18,.03,.37,.04,.56,.04,1.75,0,3.22-1.26,3.49-2.99l2.41-15.28c.17-1.08-.16-2.17-.91-2.97-.74-.79-1.83-1.2-2.91-1.1l-14.88,1.38c-.94,.09-1.79,.54-2.39,1.26-.6,.73-.89,1.64-.8,2.58,.17,1.83,1.73,3.21,3.54,3.21,.1,0,.21,0,.31-.01l5.19-.48c-3.72,3.11-7.96,4.68-12.6,4.68-11.84,0-21.46-9.63-21.46-21.46s9.63-21.46,21.46-21.46c6.65,0,12.82,3.01,16.92,8.26l23.89,30.73c5.45,7,13.66,11.01,22.52,11.01,15.73,0,28.54-12.8,28.54-28.54V59.23c0-1.95-1.59-3.54-3.54-3.54Z"/></g></svg>