<svg id="Layer_1" data-name="Layer 1" xmlns="http://www.w3.org/2000/svg" viewBox="0 0 2434.99 726.87"><defs><style>.cls-1{fill:#0e0d10;}.cls-2,.cls-3{fill:#fff;stroke:#fff;stroke-miterlimit:10;}.cls-2{stroke-width:3px;}</style></defs><rect class="cls-1" width="2434.99" height="726.87"/><path class="cls-2" d="M10.14,550.33Q0,550.33,0,539.8V297.14q.39-59.68,41.74-101,41-41.34,100.26-41.35h23.8q10.53,0,10.53,10.92,0,11.72-10.53,11.71H142q-49.93,0-84.65,34.33-34.72,34.72-35.5,85.43V539.8q0,10.53-10.54,10.53Z"/><path class="cls-2" d="M600,550.33q-10.15,0-10.14-10.53v-96q-18.74,33.93-45.26,56.95-55.39,49.56-130.69,49.55-81.92,0-139.66-58.13-58.14-57.74-58.12-139.66t58.12-139.66Q332,154.76,413.91,154.75t139.66,58.13q58.14,57.74,58.13,139.66V539.8q0,10.53-10.53,10.53ZM289.85,228.48Q238,280,238,352.54T289.85,476.6q51.51,51.5,124.06,51.49T538,476.6q51.88-51.5,51.89-124.06T538,228.48q-51.5-51.09-124.06-51.1T289.85,228.48Z"/><path class="cls-2" d="M1694.72,492.2q-58.14-57.74-58.13-139.66t58.13-139.66q57.73-58.12,139.66-58.13,57.73,0,106.5,31.6a193.45,193.45,0,0,1,72.95,83.88,10.49,10.49,0,0,1,.79,7.8q-1.57,4.68-5.08,6.24-53.83,23.79-152.14,68.27-99.87,45.25-151.37,68.27-5.46,2.34-14,6.63c-6,2.61-10.8,4.68-14.43,6.25a113.1,113.1,0,0,0,18.33,28.47q53.05,67.11,138.49,67.1,55.78,0,101.43-32.77a173,173,0,0,0,64.37-85q2.34-7.41,10.92-7.41a9.09,9.09,0,0,1,8.2,4.29,10.26,10.26,0,0,1,1.56,10.14q-20.68,58.9-72.17,95.58-51.51,36.27-114.31,36.28Q1752.47,550.33,1694.72,492.2Zm15.6-262.55q-51.88,51.5-51.88,124.06a204.35,204.35,0,0,0,1.56,25.36,151.76,151.76,0,0,0,9,34.72q53.05-24.19,160.34-72.56,105.72-47.6,160.34-72.17a197.67,197.67,0,0,0-21.07-28.48q-53.05-62.42-134.2-62.42Q1761.82,178.16,1710.32,229.65Z"/><path class="cls-2" d="M2213.18,527.31,2060.26,169.58c-1.56-3.64-1.31-6.89.78-9.76a10,10,0,0,1,9-5.07c5.2,0,8.71,2.09,10.53,6.24l137.71,321.07q3.12,7.41,8.2,19.5a117.42,117.42,0,0,0,5.85,14.05q5.46,11.32,14.82,11.7,8.58.39,14.83-11.7,2.34-4.68,6.24-14.83l8.19-19.11,136.93-320.29q3.12-6.63,9.76-6.63a11.6,11.6,0,0,1,10.14,5.07,9.44,9.44,0,0,1,.78,9.76L2281.06,526.92q-9.36,23.42-33.94,23.41T2213.18,527.31Z"/><path class="cls-3" d="M749.05,633.21a2.66,2.66,0,0,1,2,.81,2.76,2.76,0,0,1,.77,2v.09A2.61,2.61,0,0,1,751,638a2.66,2.66,0,0,1-2,.81h-2.56a11,11,0,0,0-8.11,3.36A11.27,11.27,0,0,0,735,650.3v26.46a2.75,2.75,0,0,1-2.73,2.73h-.14a2.77,2.77,0,0,1-2.73-2.73V650.3a17,17,0,0,1,5-12.11,16.45,16.45,0,0,1,12.1-5Z"/><path class="cls-3" d="M796.23,640A22.32,22.32,0,0,1,803,656.35v20.41a2.77,2.77,0,0,1-2.74,2.73h-.13a2.77,2.77,0,0,1-2.74-2.73v-5.07q-8.79,7.8-17.53,7.8A23.14,23.14,0,1,1,796.23,640Zm-28.79,4a17.55,17.55,0,1,0,24.8,0,16.73,16.73,0,0,0-12.38-5.15A16.94,16.94,0,0,0,767.44,644Z"/><path class="cls-3" d="M814.7,697.92a2.75,2.75,0,0,1-2.73-2.73V656.26a23.15,23.15,0,1,1,23.14,23.23q-8.79,0-17.54-7.8v23.5a2.64,2.64,0,0,1-.8,1.93,2.68,2.68,0,0,1-1.93.8Zm32.79-29.28a17.48,17.48,0,1,0-12.38,5.16A16.9,16.9,0,0,0,847.49,668.64Z"/><path class="cls-3" d="M908.07,614.82a2.71,2.71,0,0,1,1.93.77,2.66,2.66,0,0,1,.81,2v38.93a23.15,23.15,0,1,1-23.14-23.28q8.75,0,17.53,7.8V617.56a2.66,2.66,0,0,1,.81-2,2.71,2.71,0,0,1,1.93-.77Zm-32.82,29.24a17.56,17.56,0,0,0,12.42,30,16.7,16.7,0,0,0,12.38-5.16,17.5,17.5,0,0,0,0-24.8,16.73,16.73,0,0,0-12.38-5.15A16.93,16.93,0,0,0,875.25,644.06Z"/><path class="cls-3" d="M962.61,646.75a2.67,2.67,0,0,1,.09,2.11,2.77,2.77,0,0,1-1.44,1.53l-16.5,7.44q-12.71,5.74-18,8.12Q933,674,941.57,674a17.5,17.5,0,0,0,16.55-11.79,2.62,2.62,0,0,1,2.69-1.89,2.69,2.69,0,0,1,2.29,1.17,2.59,2.59,0,0,1,.31,2.51,22.46,22.46,0,0,1-8.29,11.12,22.82,22.82,0,0,1-13.55,4.35,23.14,23.14,0,1,1,0-46.28,23.12,23.12,0,0,1,21,13.54Zm-21-7.84A17.52,17.52,0,0,0,924,656.49a34.52,34.52,0,0,0,.45,4.35l31.61-14.31Q949.74,638.91,941.57,638.91Z"/><path class="cls-3" d="M990,672.27c.44,0,.92-.61,1.43-1.84l.23-.54,15-35a2.53,2.53,0,0,1,2.51-1.7h.09a2.71,2.71,0,0,1,2.51,3.81l-16.68,39a5.49,5.49,0,0,1-10.23,0l-16.68-39a2.61,2.61,0,0,1,.23-2.6,2.57,2.57,0,0,1,2.28-1.21h.09a2.54,2.54,0,0,1,2.51,1.7l15,35,.22.54C989.08,671.66,989.56,672.27,990,672.27Z"/><path class="cls-3" d="M1020.5,677.29a3,3,0,0,1,.85-2.14,2.76,2.76,0,0,1,2.09-.9,3.06,3.06,0,0,1,3,3,2.77,2.77,0,0,1-.89,2.08,3,3,0,0,1-2.14.86,2.84,2.84,0,0,1-2.09-.86A2.81,2.81,0,0,1,1020.5,677.29Z"/><path class="cls-3" d="M1043.11,622a3.51,3.51,0,0,1-2.56-1,3.47,3.47,0,0,1-1-2.56,3.4,3.4,0,0,1,1-2.51,3.47,3.47,0,0,1,2.56-1,3.59,3.59,0,0,1,3.58,3.54,3.58,3.58,0,0,1-3.58,3.59Zm0,11.21a2.63,2.63,0,0,1,1.93.81,2.67,2.67,0,0,1,.81,2v40.77a2.77,2.77,0,0,1-2.74,2.73h-.09a2.69,2.69,0,0,1-2-.81,2.61,2.61,0,0,1-.81-1.92V636a2.77,2.77,0,0,1,2.78-2.78Z"/><path class="cls-3" d="M1078.36,633.21A23.11,23.11,0,1,1,1062,640,22.3,22.3,0,0,1,1078.36,633.21Zm0,5.7a17.56,17.56,0,0,0,0,35.11,16.66,16.66,0,0,0,12.37-5.16,17.48,17.48,0,0,0,0-24.8A16.69,16.69,0,0,0,1078.36,638.91Z"/><path class="cls-2" d="M1194.9,308.93l3.93-3.92a10.6,10.6,0,1,0-15-15l-3.93,3.92a10.6,10.6,0,0,0,15,15Z"/><path class="cls-2" d="M1230.69,273.14l26.45-26.45a10.6,10.6,0,0,0-15-15l-26.45,26.45a10.6,10.6,0,0,0,15,15Z"/><path class="cls-2" d="M1592,46.66a56.61,56.61,0,0,0-.35-8.45c-1-6.57-4.67-9.54-11-9.24-6.12.28-9.35,3.72-9.68,10.45-.11,2.26,0,4.52,0,6.78q0,103.43,0,206.84c0,2.87-.21,5.73-.32,8.59-33.5-55.79-80.16-91.13-144.36-102.14-65.31-11.2-111.56,6.46-153,41.85l0,0c-.1.1-.22.16-.32.26l-.82.83a10.29,10.29,0,0,0,13.56,15.42h0c-.56.5-1,.9,0,0,51.15-42.8,104.9-51.73,167.87-30,104.56,36,149.23,161.44,92.92,257.51A175.48,175.48,0,0,1,1357.1,528c-32.6-7.24-60.34-23.47-83.67-47.18q-130.22-132.3-260.28-264.75c-37-37.6-82.06-57.67-134.65-58.86-53.89-1.22-100.92,17.25-139.61,55-40.94,39.92-60.3,89.11-60.26,146.17q.11,152.16,0,304.33c0,2-.07,4,.09,5.93.55,6.58,4,9.87,10.28,9.85s9.7-3.39,10.13-10c.16-2.53.05-5.08.05-7.62V448.47l1.46-.34c1.09,1.47,2.25,2.87,3.24,4.4,4.29,6.63,8.07,13.66,12.87,19.9,47,61.09,109,87.88,185.53,78.22,42.49-5.37,78.85-24.79,109.22-55.08,19.4-19.36,38.63-38.89,58-58.31,2.1-2.12,4.38-4.07,7.85-7.27-.45,3.27-.55,4.64-.84,6q-7.47,35.21-15,70.39c-1.47,6.9-3,13.78-4.36,20.71-1.41,7.48.28,11.19,5.25,12.28,5.39,1.18,8.51-1.63,10.44-9.37.13-.54.31-1.08.43-1.63q13.47-62.93,26.91-125.84c2.24-10.5-1.82-14.63-12.12-12.28q-63.52,14.5-127,29.11c-7.85,1.8-11,5.05-9.92,10.07,1,4.45,5.6,7.58,13.7,5.56,29.56-7.36,59.33-13.86,89-20.64,2.9-.67,5.86-1.08,9.37-1.71-.74,1.47-1,2.37-1.51,2.92-24.55,24.59-47.92,50.55-74,73.4-47,41.16-102.05,53.22-162.11,36.1-94.81-27-148.39-128.77-117.94-223.9,40.53-126.62,194.85-164.08,288-73.29,6.06,5.92,11.81,12.15,17.75,18.2q57.89,59,115.81,117.93c43.79,44.51,87.39,89.21,131.54,133.36,33.22,33.23,73.69,52,120.6,55.14,50.82,3.38,96.89-10.75,136.56-42.82,50.57-40.88,73.91-95.21,74.15-159.51C1592.42,249,1592.08,147.82,1592,46.66Z"/></svg>