<svg xmlns="http://www.w3.org/2000/svg" viewBox="0 0 1049.55 198.05"><g id="Layer_2" data-name="Layer 2"><g id="Layer_1-2" data-name="Layer 1"><path d="M85.76,0,0,49.51v99l85.76,49.51,85.76-49.51v-99Zm54.72,95.72a16.64,16.64,0,0,1-16.64-16.65,16.4,16.4,0,0,1,.24-2.73L86.47,54.72,56.52,72.3l93.67,54.08L85.31,161.69,23.94,125.42V105.81l61.59,36.07,30.15-17.13L24.1,72.19,86.16,36.36,133.9,63.79a16.64,16.64,0,1,1,6.58,31.93Z"/><path d="M199.87,144.48,216.16,125c11.28,9.31,23.1,15.22,37.42,15.22,11.28,0,18.08-4.48,18.08-11.82V128c0-7-4.3-10.56-25.24-15.93-25.25-6.45-41.54-13.43-41.54-38.31v-.36c0-22.74,18.26-37.78,43.87-37.78,18.26,0,33.83,5.73,46.54,15.94L281,72.34C269.87,64.64,259,60,248.39,60s-16.12,4.84-16.12,10.92v.36c0,8.24,5.38,10.92,27,16.47,25.42,6.63,39.74,15.76,39.74,37.6v.35c0,24.89-19,38.85-46,38.85A79.74,79.74,0,0,1,199.87,144.48Z"/><path d="M308.72,128.91V66.79h27.22v53.52c0,12.89,6.08,19.52,16.47,19.52s17-6.63,17-19.52V66.79h27.22v96H369.41v-13.6c-6.26,8.05-14.32,15.39-28.1,15.39C320.72,164.53,308.72,150.93,308.72,128.91Z"/><path d="M410.23,66.79h27.22V80.57C444.07,71.62,453.2,65,467.34,65,489.72,65,511,82.54,511,114.58v.36c0,32.05-20.95,49.59-43.69,49.59-14.5,0-23.45-6.62-29.89-14.32v41.18H410.23Zm73.58,48.15v-.36c0-15.93-10.74-26.49-23.45-26.49s-23.27,10.56-23.27,26.49v.36c0,15.94,10.56,26.5,23.27,26.5S483.81,131.06,483.81,114.94Z"/><path d="M515.68,115.3v-.36C515.68,87.55,535.2,65,563.13,65c32,0,46.72,24.89,46.72,52.1,0,2.15-.18,4.65-.36,7.16H542.72c2.68,12.36,11.27,18.8,23.45,18.8,9.13,0,15.75-2.86,23.27-9.85L605,147c-8.95,11.1-21.84,17.9-39.21,17.9C537,164.89,515.68,144.66,515.68,115.3Zm67.68-8.06c-1.62-12.17-8.78-20.4-20.23-20.4-11.28,0-18.62,8-20.77,20.4Z"/><path d="M619.34,66.79h27.22V86.12c5.54-13.25,14.5-21.84,30.61-21.13V93.46h-1.43c-18.09,0-29.18,10.92-29.18,33.84v35.44H619.34Z"/><path d="M686.3,66.79h27.57L729.27,125l18.08-58.54H770.8l18.26,58.72,15.76-58.36h27L802,163.46H777.43L759,104.56l-18.8,58.9H715.84Z"/><rect x="838.84" y="66.79" width="27.21" height="95.96"/><path d="M873.39,150,885,132.13c10.38,7.52,21.3,11.46,30.25,11.46,7.88,0,11.46-2.87,11.46-7.16v-.36c0-5.91-9.31-7.88-19.87-11.1-13.43-3.94-28.65-10.21-28.65-28.83v-.35c0-19.52,15.76-30.44,35.09-30.44a66.45,66.45,0,0,1,35.81,11.1l-10.39,18.8c-9.48-5.55-19-9-26-9-6.63,0-10,2.86-10,6.62v.36c0,5.37,9.13,7.88,19.51,11.46,13.43,4.47,29,10.92,29,28.46v.36c0,21.31-15.94,31-36.7,31A67.19,67.19,0,0,1,873.39,150Z"/><path d="M955.39,115.3v-.36c0-27.39,19.51-49.95,47.44-49.95,32.05,0,46.72,24.89,46.72,52.1,0,2.15-.17,4.65-.35,7.16H982.42c2.69,12.36,11.28,18.8,23.45,18.8,9.13,0,15.76-2.86,23.28-9.85L1044.72,147c-9,11.1-21.84,17.9-39.21,17.9C976.69,164.89,955.39,144.66,955.39,115.3Zm67.67-8.06c-1.61-12.17-8.77-20.4-20.23-20.4-11.28,0-18.62,8-20.77,20.4Z"/><circle cx="852.44" cy="45.66" r="13.61"/></g></g></svg>