<svg id="Layer_1" data-name="Layer 1" xmlns="http://www.w3.org/2000/svg" viewBox="0 0 850.76 244.95"><defs><style>.cls-1{fill:#2e3a45;stroke:#2e3a45;stroke-miterlimit:10;stroke-width:1.5px;}.cls-2{fill:#7b42bc;fill-rule:evenodd;}</style></defs><path class="cls-1" d="M369.09,224.72c-.55,0-.82-.29-.82-.86V204.07a11.3,11.3,0,0,1,3.4-8.24,11.09,11.09,0,0,1,8.18-3.38h1.94c.58,0,.86.3.86.9s-.28,1-.86,1h-1.94a9.41,9.41,0,0,0-6.9,2.8,9.68,9.68,0,0,0-2.9,7v19.79a.76.76,0,0,1-.86.86Z"/><path class="cls-1" d="M417.21,224.72c-.55,0-.82-.29-.82-.86V216a16.8,16.8,0,0,1-3.7,4.64,16.08,16.08,0,1,1,5.48-12.09v15.27a.76.76,0,0,1-.86.86Zm-25.3-26.25A14.36,14.36,0,1,0,402,194.3,13.74,13.74,0,0,0,391.91,198.47Z"/><path class="cls-1" d="M510.16,220a16.14,16.14,0,0,1,11.39-27.53,15.68,15.68,0,0,1,8.69,2.58,15.85,15.85,0,0,1,6,6.84.91.91,0,0,1,.06.64.8.8,0,0,1-.41.51q-4.4,1.93-12.41,5.57l-12.35,5.57c-.3.12-.68.3-1.15.54l-1.18.51a9.5,9.5,0,0,0,1.5,2.32,14.3,14.3,0,0,0,19.57,2.8,14.11,14.11,0,0,0,5.25-6.94.84.84,0,0,1,.89-.6.73.73,0,0,1,.67.35.83.83,0,0,1,.13.83,16.12,16.12,0,0,1-15.21,10.75A15.44,15.44,0,0,1,510.16,220Zm1.27-21.42a13.76,13.76,0,0,0-4.24,10.12,17.7,17.7,0,0,0,.13,2.07,12.41,12.41,0,0,0,.73,2.83l13.08-5.91,13.08-5.89a15.3,15.3,0,0,0-1.72-2.33,14.3,14.3,0,0,0-21.06-.89Z"/><path class="cls-1" d="M552.45,222.84,540,193.66a.76.76,0,0,1,.07-.79.8.8,0,0,1,.73-.42.85.85,0,0,1,.86.51l11.23,26.19.67,1.59a8.43,8.43,0,0,0,.48,1.15,1.4,1.4,0,0,0,1.21,1c.46,0,.87-.29,1.21-1,.12-.25.29-.66.51-1.21.31-.74.54-1.26.67-1.56L568.77,193a.84.84,0,0,1,.8-.54.94.94,0,0,1,.83.42.75.75,0,0,1,.06.79L558,222.81a3,3,0,0,1-5.54,0Z"/><path class="cls-1" d="M467.85,204.92l.31-.32a.85.85,0,0,0,0-1.21.86.86,0,0,0-1.21,0l-.31.32a.85.85,0,0,0,0,1.21A.86.86,0,0,0,467.85,204.92Z"/><path class="cls-1" d="M470.74,202l2.13-2.14a.86.86,0,0,0-1.21-1.21l-2.13,2.14a.85.85,0,0,0,0,1.21A.86.86,0,0,0,470.74,202Z"/><path class="cls-1" d="M499.89,183.75a3.87,3.87,0,0,0,0-.68.76.76,0,0,0-.88-.74q-.75,0-.78.84c0,.18,0,.36,0,.55q0,8.34,0,16.69c0,.23,0,.46,0,.69a16.32,16.32,0,0,0-11.65-8.24,13.93,13.93,0,0,0-12.34,3.37h0l0,0-.06.06a.83.83,0,0,0,1.09,1.25h0c4.13-3.45,8.47-4.17,13.55-2.42a14.35,14.35,0,0,1,7.5,20.78,14.15,14.15,0,0,1-15.29,6.66,13.41,13.41,0,0,1-6.76-3.8l-21-21.37a15.28,15.28,0,0,0-10.86-4.75,15.1,15.1,0,0,0-11.27,4.44,15.83,15.83,0,0,0-4.86,11.79v24.56a3.85,3.85,0,0,0,0,.48.75.75,0,0,0,.83.79.74.74,0,0,0,.81-.8c0-.21,0-.41,0-.62V216.18l.12,0c.08.12.18.23.26.35.34.54.65,1.1,1,1.61a15.37,15.37,0,0,0,15,6.31,14.89,14.89,0,0,0,8.81-4.45c1.57-1.56,3.12-3.13,4.68-4.7.17-.17.35-.33.63-.59,0,.27,0,.38-.07.49q-.6,2.84-1.21,5.67c-.11.56-.24,1.12-.35,1.68s0,.9.43,1,.68-.13.84-.76l0-.13q1.1-5.09,2.17-10.15c.18-.85-.14-1.18-1-1L449,213.82c-.64.15-.89.41-.8.82s.45.61,1.1.44c2.39-.59,4.79-1.11,7.19-1.66l.75-.14a1.72,1.72,0,0,1-.12.24c-2,2-3.87,4.08-6,5.92a13.33,13.33,0,0,1-13.08,2.91,14.23,14.23,0,0,1-9.52-18.06,14,14,0,0,1,23.24-5.92c.49.48,1,1,1.43,1.47l9.34,9.52c3.54,3.59,7.06,7.19,10.62,10.76a14.83,14.83,0,0,0,9.73,4.45,15.39,15.39,0,0,0,11-3.46,15.83,15.83,0,0,0,6-12.87C499.92,200.08,499.9,191.92,499.89,183.75Z"/><path class="cls-1" d="M312.19,205.28a16.45,16.45,0,0,0-12.62-12.62,17.85,17.85,0,0,0-3.22-.29,17.32,17.32,0,0,0-3.09.28c-.38.07-.73.21-1.09.3a14.35,14.35,0,0,0-1.76.53c-.41.16-.8.39-1.2.59a13.57,13.57,0,0,0-1.45.79,12.16,12.16,0,0,0-1.08.81c-.33.25-.68.46-1,.74-.15.13-.27.3-.42.43s-.22.17-.32.27-.29.37-.45.54a14.09,14.09,0,0,0-1.2,1.44,12.66,12.66,0,0,0-.82,1.24c-.16.25-.34.46-.49.73V176.93c0-.57-.27-.86-.82-.86h-.1a.76.76,0,0,0-.86.86v46.85a.76.76,0,0,0,.86.86h.1c.55,0,.82-.29.82-.86V216c.15.26.33.48.49.73a14,14,0,0,0,.82,1.24,15.13,15.13,0,0,0,1.2,1.43c.16.18.28.37.45.55s.22.16.32.26.27.31.42.44c.31.28.66.49,1,.74s.7.56,1.08.81a15.61,15.61,0,0,0,1.45.79c.4.2.79.42,1.2.59a14.32,14.32,0,0,0,1.76.52c.36.1.71.23,1.09.3a16.44,16.44,0,0,0,3.09.29,17,17,0,0,0,3.22-.3,16.41,16.41,0,0,0,12.62-12.62,18,18,0,0,0,0-6.44Zm-5.72,13.34a14.22,14.22,0,1,1,4.23-10.12A13.85,13.85,0,0,1,306.47,218.62Z"/><path class="cls-1" d="M348.49,192.81a.93.93,0,0,0-.82-.42.84.84,0,0,0-.8.54L335.7,219.06l-.67,1.56a13,13,0,0,1-.51,1.21h0l-7.87,18.43a.78.78,0,0,0,.49,1.14l0,0a.75.75,0,0,0,1.1-.46l8.93-20.92,11.32-26.45A.75.75,0,0,0,348.49,192.81Z"/><path class="cls-1" d="M330.46,221.34a1,1,0,0,0,.83-.41.77.77,0,0,0,.06-.8l-2.11-4.92h0a10,10,0,0,1-.48-1.15l-.66-1.59-8.39-19.56a.85.85,0,0,0-.86-.51.8.8,0,0,0-.73.42.75.75,0,0,0-.07.79l1.78,4.16h0a13,13,0,0,1,.51,1.21l.67,1.56,8.66,20.26A.85.85,0,0,0,330.46,221.34Z"/><path d="M314.19,48.56H292.51V35.62h58.05V48.56H328.88v64.69H314.19Z"/><path d="M365.89,102.76a59.27,59.27,0,0,0,17.36-2.69l2.22,10.73a60.87,60.87,0,0,1-20.87,3.61c-17.83,0-24-8.27-24-21.91v-15c0-12,5.37-22.14,23.55-22.14s22.26,10.6,22.26,22.84V90.28H354.81V93.2C354.81,100.07,357.26,102.76,365.89,102.76Zm-11.08-23.9h18.07v-2.8c0-5.36-1.63-9.09-8.62-9.09s-9.45,3.73-9.45,9.09Z"/><path d="M424.4,68.37a110.92,110.92,0,0,0-15,8.28v36.6H395.14V56.48h12l.93,6.3c3.15-2.1,9.91-6.06,14.92-7.46Z"/><path d="M459.13,68.37a110.92,110.92,0,0,0-15,8.28v36.6H429.87V56.48h12l.93,6.3c3.15-2.1,9.91-6.06,14.92-7.46Z"/><path d="M506.68,113.25H495l-1-3.85a31,31,0,0,1-16.9,5c-10.38,0-14.81-7.11-14.81-16.9,0-11.54,5-16,16.55-16h13.64V75.6c0-6.3-1.75-8.51-10.84-8.51a79.21,79.21,0,0,0-15.73,1.75L464.14,58a74.13,74.13,0,0,1,19.46-2.68c17.84,0,23.08,6.29,23.08,20.51ZM492.46,91.8H482c-4.66,0-5.94,1.28-5.94,5.59,0,4,1.28,5.72,5.71,5.72a22.32,22.32,0,0,0,10.72-2.92Z"/><path d="M550.39,43.54a41.94,41.94,0,0,0-8.16-.93c-5.59,0-6.41,2.45-6.41,6.76v7.11h14.45l-.81,11.31H535.82v45.46H521.6V67.79h-9.09V56.48h9.09V48.56c0-11.78,5.48-17.6,18.07-17.6a45,45,0,0,1,12.24,1.63Z"/><path d="M578.13,114.41c-19.47,0-24.71-10.72-24.71-22.38V77.7c0-11.66,5.24-22.38,24.71-22.38S602.84,66,602.84,77.7V92C602.84,103.69,597.59,114.41,578.13,114.41Zm0-47c-7.58,0-10.49,3.38-10.49,9.79V92.5c0,6.41,2.91,9.79,10.49,9.79s10.49-3.38,10.49-9.79V77.23C588.62,70.82,585.7,67.44,578.13,67.44Z"/><path d="M639.43,68.37a111.41,111.41,0,0,0-15,8.28v36.6H610.18V56.48h12l.94,6.3c3.14-2.1,9.9-6.06,14.92-7.46Z"/><path d="M678.48,113.25V73.62c0-3-1.28-4.55-4.55-4.55-3.49,0-9.67,2.1-14.8,4.78v39.4H644.91V56.48h10.84l1.4,4.78c7.11-3.5,16.08-5.94,22.73-5.94,5.48,0,8.86,2.21,10.72,6.06,6.88-3.5,16-6.06,22.85-6.06,9.44,0,12.82,6.64,12.82,16.78v41.15H712.05V73.62c0-3-1.28-4.55-4.55-4.55-3.49,0-10.37,2.22-14.8,4.78v39.4Z"/><polygon class="cls-2" points="165.33 21.76 202.14 43.01 202.14 85.52 165.33 64.26 165.33 21.76"/><polygon class="cls-2" points="206.17 43.01 206.17 85.52 242.98 64.27 242.98 21.76 206.17 43.01"/><polygon class="cls-2" points="124.49 -1.96 124.49 40.54 161.3 61.79 161.3 19.29 124.49 -1.96"/><polygon class="cls-2" points="165.33 111.42 202.14 132.68 202.14 90.46 202.14 90.17 165.33 68.92 165.33 111.42"/></svg>