<?xml version="1.0" encoding="UTF-8"?><svg id="Layer_1" xmlns="http://www.w3.org/2000/svg" viewBox="0 0 850.76 244.95"><defs><style>.cls-1{fill:#fca326;}.cls-2{fill:#fc6d26;}.cls-3{fill:#e24329;}.cls-4{fill:#171321;}.cls-5{fill:#2e3a45;stroke:#2e3a45;stroke-miterlimit:10;stroke-width:1.5px;}</style></defs><g><g><path class="cls-5" d="M369.1,224.72c-.55,0-.83-.29-.83-.86v-19.79c.02-3.24,1.16-5.99,3.41-8.24,2.23-2.25,4.95-3.37,8.18-3.37h1.94c.57,0,.86,.3,.86,.89,0,.64-.29,.95-.86,.95h-1.94c-2.72,0-5.02,.93-6.9,2.8-1.89,1.89-2.86,4.21-2.9,6.97v19.79c0,.57-.29,.86-.86,.86h-.1Z"/><path class="cls-5" d="M417.22,224.72c-.55,0-.83-.29-.83-.86v-7.83c-1.02,1.85-2.25,3.39-3.69,4.64-3.01,2.7-6.57,4.04-10.66,4.04-4.46,0-8.25-1.58-11.39-4.74-3.16-3.14-4.74-6.94-4.74-11.4s1.58-8.25,4.74-11.39c3.14-3.16,6.94-4.74,11.39-4.74s8.25,1.58,11.39,4.74c3.16,3.14,4.74,6.94,4.74,11.39v15.28c0,.57-.29,.86-.86,.86h-.1Zm-25.3-26.25c-2.82,2.8-4.23,6.17-4.23,10.12s1.41,7.32,4.23,10.12c2.8,2.8,6.17,4.2,10.12,4.2s7.32-1.4,10.12-4.2c2.82-2.8,4.23-6.17,4.23-10.12s-1.41-7.32-4.23-10.12c-2.8-2.78-6.17-4.17-10.12-4.17s-7.32,1.39-10.12,4.17Z"/><path class="cls-5" d="M510.16,219.98c-3.16-3.14-4.74-6.94-4.74-11.4s1.58-8.25,4.74-11.39c3.14-3.16,6.94-4.74,11.39-4.74,3.14,0,6.04,.86,8.69,2.58,2.65,1.7,4.64,3.98,5.95,6.84,.11,.23,.13,.45,.06,.64-.08,.25-.22,.42-.41,.51-2.93,1.3-7.06,3.15-12.41,5.57-5.43,2.46-9.55,4.32-12.35,5.57-.3,.13-.68,.31-1.15,.54-.49,.21-.88,.38-1.18,.51,.38,.85,.88,1.62,1.5,2.32,2.89,3.65,6.65,5.47,11.3,5.47,3.03,0,5.79-.89,8.27-2.67,2.48-1.76,4.23-4.07,5.25-6.94,.13-.4,.42-.6,.89-.6,.3,0,.52,.12,.67,.35,.19,.25,.23,.53,.13,.83-1.12,3.2-3.09,5.8-5.89,7.79-2.8,1.97-5.91,2.96-9.32,2.96-4.46,0-8.25-1.58-11.39-4.74Zm1.27-21.42c-2.82,2.8-4.23,6.17-4.23,10.12,0,.7,.04,1.39,.13,2.07,.13,.96,.37,1.9,.73,2.83,2.89-1.31,7.25-3.29,13.08-5.92,5.75-2.59,10.11-4.55,13.08-5.89-.55-.89-1.12-1.66-1.72-2.32-2.88-3.39-6.53-5.09-10.95-5.09-3.95,0-7.32,1.4-10.12,4.2Z"/><path class="cls-5" d="M552.45,222.84l-12.47-29.18c-.13-.3-.11-.56,.06-.8,.17-.27,.42-.41,.73-.41,.42,0,.71,.17,.86,.51l11.23,26.19c.17,.4,.39,.93,.67,1.59,.21,.57,.37,.96,.48,1.15,.3,.61,.7,.93,1.21,.95,.47,.02,.87-.3,1.21-.95,.13-.26,.3-.66,.51-1.21,.32-.74,.54-1.26,.67-1.56l11.17-26.13c.17-.36,.43-.54,.8-.54s.64,.14,.83,.41c.17,.26,.19,.52,.06,.8l-12.47,29.15c-.51,1.27-1.43,1.91-2.77,1.91s-2.26-.63-2.77-1.88Z"/></g><g><path class="cls-5" d="M467.85,204.92l.32-.32c.33-.33,.33-.88,0-1.21s-.88-.33-1.21,0l-.32,.32c-.33,.33-.33,.88,0,1.21,.33,.33,.88,.33,1.21,0Z"/><path class="cls-5" d="M470.74,202.03l2.13-2.13c.33-.33,.33-.88,0-1.21-.33-.33-.88-.33-1.21,0l-2.13,2.13c-.33,.33-.33,.88,0,1.21,.33,.33,.88,.33,1.21,0Z"/><path class="cls-5" d="M499.89,183.75c0-.23,0-.46-.03-.68-.08-.53-.38-.77-.88-.75-.49,.02-.75,.3-.78,.84,0,.18,0,.36,0,.55,0,5.56,0,11.13,0,16.69,0,.23-.02,.46-.03,.69-2.7-4.5-6.47-7.35-11.65-8.24-5.27-.9-9,.52-12.34,3.38,0,0,0,0,0,0,0,0-.02,.01-.03,.02l-.07,.07c-.32,.32-.32,.85,0,1.18,.3,.3,.77,.32,1.09,.07,0,0,0,0,0,0-.05,.04-.08,.07,0,0,4.13-3.45,8.46-4.17,13.55-2.42,8.44,2.91,12.04,13.03,7.5,20.78-3.11,5.3-9.28,8-15.29,6.67-2.63-.58-4.87-1.89-6.75-3.81-7-7.12-14-14.24-21-21.36-2.98-3.03-6.62-4.65-10.86-4.75-4.35-.1-8.14,1.39-11.26,4.44-3.3,3.22-4.87,7.19-4.86,11.79,0,8.19,0,16.37,0,24.56,0,.16,0,.32,0,.48,.04,.53,.33,.8,.83,.79,.5,0,.78-.27,.82-.8,.01-.2,0-.41,0-.62,0-5.47,0-10.94,0-16.42v-.72s.08-.02,.12-.03c.09,.12,.18,.23,.26,.35,.35,.54,.65,1.1,1.04,1.61,3.79,4.93,8.8,7.09,14.97,6.31,3.43-.43,6.36-2,8.81-4.44,1.57-1.56,3.12-3.14,4.68-4.71,.17-.17,.35-.33,.63-.59-.04,.26-.04,.37-.07,.48-.4,1.89-.81,3.79-1.21,5.68-.12,.56-.25,1.11-.35,1.67-.11,.6,.02,.9,.42,.99,.43,.1,.69-.13,.84-.76,.01-.04,.03-.09,.04-.13,.72-3.38,1.45-6.77,2.17-10.15,.18-.85-.15-1.18-.98-.99-3.42,.78-6.83,1.56-10.25,2.35-.63,.15-.89,.41-.8,.81,.08,.36,.45,.61,1.11,.45,2.39-.59,4.79-1.12,7.18-1.67,.23-.05,.47-.09,.76-.14-.06,.12-.08,.19-.12,.24-1.98,1.98-3.87,4.08-5.97,5.92-3.79,3.32-8.23,4.29-13.08,2.91-7.65-2.18-11.97-10.39-9.52-18.07,3.27-10.22,15.72-13.24,23.24-5.91,.49,.48,.95,.98,1.43,1.47,3.11,3.17,6.23,6.35,9.34,9.52,3.53,3.59,7.05,7.2,10.61,10.76,2.68,2.68,5.95,4.2,9.73,4.45,4.1,.27,7.82-.87,11.02-3.46,4.08-3.3,5.96-7.68,5.98-12.87,.03-8.16,0-16.32,0-24.49Z"/></g><path class="cls-5" d="M312.19,205.28c-.59-3.09-2.07-5.82-4.45-8.17-2.35-2.37-5.08-3.85-8.17-4.45-1.03-.2-2.1-.3-3.22-.3s-2.09,.1-3.08,.28c-.38,.07-.73,.2-1.1,.3-.59,.16-1.19,.3-1.76,.53-.41,.16-.8,.39-1.19,.59-.49,.25-.99,.49-1.46,.79-.37,.24-.72,.53-1.08,.81-.33,.25-.68,.46-.99,.74-.15,.13-.27,.3-.42,.44-.1,.1-.22,.16-.32,.27-.17,.17-.29,.37-.45,.54-.42,.45-.83,.92-1.2,1.44-.3,.4-.57,.82-.82,1.24-.15,.25-.34,.47-.48,.73v-24.12c0-.57-.28-.86-.83-.86h-.1c-.57,0-.86,.29-.86,.86v46.84c0,.57,.29,.86,.86,.86h.1c.55,0,.83-.29,.83-.86v-7.83c.15,.27,.33,.48,.48,.73,.25,.42,.52,.84,.82,1.24,.38,.51,.78,.98,1.2,1.44,.16,.18,.28,.37,.45,.54,.1,.1,.22,.17,.32,.27,.15,.14,.27,.3,.42,.43,.32,.28,.66,.49,.99,.74,.36,.28,.71,.57,1.08,.81,.47,.3,.96,.54,1.46,.79,.4,.2,.78,.42,1.19,.59,.57,.22,1.17,.37,1.76,.53,.37,.1,.72,.23,1.1,.3,.99,.18,2.02,.28,3.08,.28s2.19-.1,3.22-.3c3.09-.59,5.82-2.07,8.17-4.45,2.37-2.35,3.85-5.08,4.45-8.17,.2-1.03,.3-2.1,.3-3.22s-.1-2.19-.3-3.22Zm-5.72,13.34c-2.8,2.78-6.17,4.17-10.12,4.17s-7.32-1.39-10.12-4.17c-2.82-2.8-4.23-6.17-4.23-10.12s1.41-7.32,4.23-10.12c2.8-2.78,6.17-4.17,10.12-4.17s7.32,1.39,10.12,4.17c2.82,2.8,4.23,6.17,4.23,10.12s-1.41,7.32-4.23,10.12Z"/><g><path class="cls-5" d="M348.5,192.81c-.19-.28-.47-.41-.83-.41s-.63,.18-.8,.54l-11.17,26.13c-.13,.3-.35,.82-.67,1.56-.21,.55-.38,.95-.51,1.21h.01s-7.87,18.44-7.87,18.44c-.23,.53-.06,.91,.48,1.14l.06,.02c.51,.22,.87,.06,1.1-.46l8.93-20.91,11.32-26.45c.13-.28,.11-.54-.06-.8Z"/><path class="cls-5" d="M330.46,221.34c.36,0,.64-.14,.83-.41,.17-.25,.19-.52,.06-.8l-2.11-4.92h.02c-.11-.2-.27-.58-.48-1.16-.28-.66-.5-1.19-.67-1.59l-8.39-19.56c-.15-.34-.43-.51-.86-.51-.32,0-.56,.14-.73,.41-.17,.23-.19,.5-.06,.8l1.77,4.15h-.02c.13,.27,.3,.67,.51,1.22,.32,.74,.54,1.26,.67,1.56l8.66,20.26c.17,.36,.43,.54,.8,.54Z"/></g></g><g id="LOGO"><path class="cls-4" d="M376.23,51.52h16.76c-2.8-17.82-18.23-30.24-38.31-30.24-23.76,0-41.59,17.47-41.59,46.73s17.03,46.56,42.08,46.56c22.48,0,38.58-14.46,38.58-37.87v-10.91h-36.85v12.86h20.93c-.26,12.95-8.91,21.15-22.57,21.15-15.2,0-25.62-11.39-25.62-31.97s10.6-31.79,25.27-31.79c10.95,0,18.44,5.85,21.33,15.48Z"/><path class="cls-4" d="M404.83,113.33h16.05V45.25h-16.05V113.33Zm8.1-78.89c5.1,0,9.27-3.91,9.27-8.69s-4.17-8.74-9.27-8.74-9.31,3.9-9.31,8.74,4.14,8.69,9.28,8.69h.03Z"/><path class="cls-4" d="M468.94,45.25h-13.44V28.9h-16.05v16.35h-9.66v12.41h9.66v37.87c-.09,12.81,9.23,19.13,21.28,18.76,3.21-.06,6.4-.6,9.45-1.6l-2.71-12.55c-1.53,.4-3.11,.61-4.7,.63-4.04,0-7.28-1.42-7.28-7.9V57.63h13.44v-12.38Z"/><path class="cls-4" d="M481.37,113.33h56.44v-13.79h-39.99V22.51h-16.45V113.33Z"/><path class="cls-4" d="M568.56,114.7c10.69,0,17.07-5.01,19.99-10.73h.53v9.35h15.45v-45.58c0-18-14.67-23.41-27.67-23.41-14.32,0-25.32,6.38-28.86,18.8l14.99,2.13c1.59-4.66,6.12-8.65,13.98-8.65,7.45,0,11.53,3.81,11.53,10.51v.26c0,4.61-4.83,4.83-16.85,6.12-13.21,1.42-25.85,5.36-25.85,20.71-.04,13.39,9.75,20.49,22.75,20.49Zm5.28-11.77c-6.7,0-11.49-3.06-11.49-8.96s5.36-8.74,12.51-9.76c4.22-.57,12.64-1.64,14.72-3.32v8.02c.04,7.56-6.08,13.99-15.74,13.99v.02Z"/><path class="cls-4" d="M616.35,113.33h15.79v-10.73h.93c2.53,4.97,7.81,11.93,19.52,11.93,16.05,0,28.07-12.73,28.07-35.16s-12.37-35.03-28.11-35.03c-12.02,0-17.03,7.23-19.47,12.15h-.68V22.51h-16.04V113.33Zm15.74-34.05c0-13.25,5.67-21.78,16.01-21.78s16.19,9.09,16.19,21.78-5.59,22.08-16.19,22.08-16.01-8.87-16.01-22.08h0Z"/><path class="cls-3" d="M282.83,53.62l-.15-.41-15.6-40.7c-.32-.8-.88-1.48-1.6-1.94-1.92-1.23-4.47-.67-5.69,1.25-.22,.34-.39,.71-.5,1.11l-10.53,32.24h-42.65l-10.53-32.24c-.62-2.19-2.91-3.47-5.1-2.84-.39,.11-.75,.27-1.09,.49-.73,.46-1.29,1.14-1.6,1.94l-15.59,40.7-.16,.4c-4.61,12.05-.69,25.71,9.61,33.48l.06,.04,.13,.1,23.73,17.79,11.77,8.9,7.15,5.41c1.72,1.3,4.1,1.3,5.83,0l7.15-5.41,11.77-8.9,23.9-17.89,.07-.05c10.3-7.77,14.23-21.42,9.62-33.47Z"/><path class="cls-2" d="M282.83,53.62l-.15-.41c-7.6,1.56-14.76,4.78-20.97,9.43l-34.26,25.9,21.81,16.48,23.9-17.89,.07-.05c10.3-7.77,14.21-21.42,9.6-33.47Z"/><path class="cls-1" d="M205.56,105.03l11.77,8.9,7.15,5.41c1.72,1.3,4.1,1.3,5.83,0l7.15-5.41,11.77-8.9-21.81-16.48-21.87,16.48Z"/><path class="cls-2" d="M193.15,62.64c-6.21-4.65-13.37-7.87-20.97-9.43l-.16,.4c-4.61,12.05-.69,25.71,9.61,33.48l.06,.04,.13,.1,23.73,17.79,21.83-16.48-34.23-25.9Z"/></g></svg>