<svg id="Layer_1" data-name="Layer 1" xmlns="http://www.w3.org/2000/svg" viewBox="0 0 850.76 244.95"><defs><style>.cls-1,.cls-2,.cls-3,.cls-6{fill:#fff;}.cls-1,.cls-5,.cls-6{stroke:#fff;stroke-miterlimit:10;}.cls-1{stroke-width:1.5px;}.cls-2,.cls-4{fill-rule:evenodd;}.cls-4{fill:#82b6a1;}.cls-5{fill:none;stroke-width:2px;}.cls-6{stroke-width:0.25px;}</style></defs><rect width="850.76" height="244.95"/><path class="cls-1" d="M369.09,224.72c-.55,0-.82-.29-.82-.86V204.07a11.3,11.3,0,0,1,3.4-8.24,11.09,11.09,0,0,1,8.18-3.38h1.94c.58,0,.86.3.86.9s-.28,1-.86,1h-1.94a9.41,9.41,0,0,0-6.9,2.8,9.68,9.68,0,0,0-2.9,7v19.79a.76.76,0,0,1-.86.86Z"/><path class="cls-1" d="M417.21,224.72c-.55,0-.82-.29-.82-.86V216a16.8,16.8,0,0,1-3.7,4.64,16.08,16.08,0,1,1,5.48-12.09v15.27a.76.76,0,0,1-.86.86Zm-25.3-26.25A14.36,14.36,0,1,0,402,194.3,13.74,13.74,0,0,0,391.91,198.47Z"/><path class="cls-1" d="M510.16,220a16.14,16.14,0,0,1,11.39-27.53,15.68,15.68,0,0,1,8.69,2.58,15.85,15.85,0,0,1,6,6.84.91.91,0,0,1,.06.64.8.8,0,0,1-.41.51q-4.4,1.93-12.41,5.57l-12.35,5.57c-.3.12-.68.3-1.15.54l-1.18.51a9.5,9.5,0,0,0,1.5,2.32,14.3,14.3,0,0,0,19.57,2.8,14.11,14.11,0,0,0,5.25-6.94.84.84,0,0,1,.89-.6.73.73,0,0,1,.67.35.83.83,0,0,1,.13.83,16.12,16.12,0,0,1-15.21,10.75A15.44,15.44,0,0,1,510.16,220Zm1.27-21.42a13.76,13.76,0,0,0-4.24,10.12,17.7,17.7,0,0,0,.13,2.07,12.41,12.41,0,0,0,.73,2.83l13.08-5.91,13.08-5.89a15.3,15.3,0,0,0-1.72-2.33,14.3,14.3,0,0,0-21.06-.89Z"/><path class="cls-1" d="M552.45,222.84,540,193.66a.76.76,0,0,1,.07-.79.8.8,0,0,1,.73-.42.85.85,0,0,1,.86.51l11.23,26.19.67,1.59a8.43,8.43,0,0,0,.48,1.15,1.4,1.4,0,0,0,1.21,1c.46,0,.87-.29,1.21-1,.12-.25.29-.66.51-1.21.31-.74.54-1.26.67-1.56L568.77,193a.84.84,0,0,1,.8-.54.94.94,0,0,1,.83.42.75.75,0,0,1,.06.79L558,222.81a3,3,0,0,1-5.54,0Z"/><path class="cls-1" d="M467.85,204.92l.31-.32a.85.85,0,0,0,0-1.21.86.86,0,0,0-1.21,0l-.31.32a.85.85,0,0,0,0,1.21A.86.86,0,0,0,467.85,204.92Z"/><path class="cls-1" d="M470.74,202l2.13-2.14a.86.86,0,0,0-1.21-1.21l-2.13,2.14a.85.85,0,0,0,0,1.21A.86.86,0,0,0,470.74,202Z"/><path class="cls-1" d="M499.89,183.75a3.87,3.87,0,0,0,0-.68.76.76,0,0,0-.88-.74q-.75,0-.78.84c0,.18,0,.36,0,.55q0,8.34,0,16.69c0,.23,0,.46,0,.69a16.32,16.32,0,0,0-11.65-8.24,13.93,13.93,0,0,0-12.34,3.37h0l0,0-.06.06a.83.83,0,0,0,1.09,1.25h0c4.13-3.45,8.47-4.17,13.55-2.42a14.35,14.35,0,0,1,7.5,20.78,14.15,14.15,0,0,1-15.29,6.66,13.41,13.41,0,0,1-6.76-3.8l-21-21.37a15.28,15.28,0,0,0-10.86-4.75,15.1,15.1,0,0,0-11.27,4.44,15.83,15.83,0,0,0-4.86,11.79v24.56a3.85,3.85,0,0,0,0,.48.75.75,0,0,0,.83.79.74.74,0,0,0,.81-.8c0-.21,0-.41,0-.62V216.18l.12,0c.08.12.18.23.26.35.34.54.65,1.1,1,1.61a15.37,15.37,0,0,0,15,6.31,14.89,14.89,0,0,0,8.81-4.45c1.57-1.56,3.12-3.13,4.68-4.7.17-.17.35-.33.63-.59,0,.27,0,.38-.07.49q-.6,2.84-1.21,5.67c-.11.56-.24,1.12-.35,1.68s0,.9.43,1,.68-.13.84-.76l0-.13q1.1-5.09,2.17-10.15c.18-.85-.14-1.18-1-1L449,213.82c-.64.15-.89.41-.8.82s.45.61,1.1.44c2.39-.59,4.79-1.11,7.19-1.66l.75-.14a1.72,1.72,0,0,1-.12.24c-2,2-3.87,4.08-6,5.92a13.33,13.33,0,0,1-13.08,2.91,14.23,14.23,0,0,1-9.52-18.06,14,14,0,0,1,23.24-5.92c.49.48,1,1,1.43,1.47l9.34,9.52c3.54,3.59,7.06,7.19,10.62,10.76a14.83,14.83,0,0,0,9.73,4.45,15.39,15.39,0,0,0,11-3.46,15.83,15.83,0,0,0,6-12.87C499.92,200.08,499.9,191.92,499.89,183.75Z"/><path class="cls-1" d="M312.19,205.28a16.45,16.45,0,0,0-12.62-12.62,17.85,17.85,0,0,0-3.22-.29,17.32,17.32,0,0,0-3.09.28c-.38.07-.73.21-1.09.3a14.35,14.35,0,0,0-1.76.53c-.41.16-.8.39-1.2.59a13.57,13.57,0,0,0-1.45.79,12.16,12.16,0,0,0-1.08.81c-.33.25-.68.46-1,.74-.15.13-.27.3-.42.43s-.22.17-.32.27-.29.37-.45.54a14.09,14.09,0,0,0-1.2,1.44,12.66,12.66,0,0,0-.82,1.24c-.16.25-.34.46-.49.73V176.93c0-.57-.27-.86-.82-.86h-.1a.76.76,0,0,0-.86.86v46.85a.76.76,0,0,0,.86.86h.1c.55,0,.82-.29.82-.86V216c.15.26.33.48.49.73a14,14,0,0,0,.82,1.24,15.13,15.13,0,0,0,1.2,1.43c.16.18.28.37.45.55s.22.16.32.26.27.31.42.44c.31.28.66.49,1,.74s.7.56,1.08.81a15.61,15.61,0,0,0,1.45.79c.4.2.79.42,1.2.59a14.32,14.32,0,0,0,1.76.52c.36.1.71.23,1.09.3a16.44,16.44,0,0,0,3.09.29,17,17,0,0,0,3.22-.3,16.41,16.41,0,0,0,12.62-12.62,18,18,0,0,0,0-6.44Zm-5.72,13.34a14.22,14.22,0,1,1,4.23-10.12A13.85,13.85,0,0,1,306.47,218.62Z"/><path class="cls-1" d="M348.49,192.81a.93.93,0,0,0-.82-.42.84.84,0,0,0-.8.54L335.7,219.06l-.67,1.56a13,13,0,0,1-.51,1.21h0l-7.87,18.43a.78.78,0,0,0,.49,1.14l0,0a.75.75,0,0,0,1.1-.46l8.93-20.92,11.32-26.45A.75.75,0,0,0,348.49,192.81Z"/><path class="cls-1" d="M330.46,221.34a1,1,0,0,0,.83-.41.77.77,0,0,0,.06-.8l-2.11-4.92h0a10,10,0,0,1-.48-1.15l-.66-1.59-8.39-19.56a.85.85,0,0,0-.86-.51.8.8,0,0,0-.73.42.75.75,0,0,0-.07.79l1.78,4.16h0a13,13,0,0,1,.51,1.21l.67,1.56,8.66,20.26A.85.85,0,0,0,330.46,221.34Z"/><path class="cls-2" d="M205.26,40.31a36.42,36.42,0,0,0-23.38,8.4V41.17H160.54v83.09h22.19V71.15c3.07-4.28,10.75-10.28,20.14-10.28a22.69,22.69,0,0,1,8.91,1.33V40.88a37.91,37.91,0,0,0-6.52-.57"/><path class="cls-2" d="M11.81,98.9c5.63,5.14,14.34,8.23,22.7,8.23,6,0,10.58-2.92,10.58-7,0-12.5-40.1-8-40.1-34.78C5,49.39,20.35,39.45,36.73,39.45c10.76,0,22.53,4.12,28,8.4L54.31,64C50,60.87,44.41,58.3,38.44,58.3c-6.15,0-11.27,2.4-11.27,6.68,0,10.8,40.11,6.51,40.11,35.29,0,15.94-15.53,25.7-32.94,25.7A57.16,57.16,0,0,1,1.06,114.84Z"/><path class="cls-2" d="M151.07,81.94c0-23.13-16.21-42.49-39.08-42.49-24.58,0-40.28,20.22-40.28,43.35,0,26,18.6,43.17,43.35,43.17,12.8,0,25.94-5.31,34-14.9L136.4,98.39C132.47,102.67,125,108,115.57,108c-11.78,0-21.16-8-22.36-19.7h57.35A36.76,36.76,0,0,0,151.07,81.94ZM94.24,72c1-7.54,8.53-14.57,17.75-14.57A16.53,16.53,0,0,1,128.37,72Z"/><polygon class="cls-2" points="264.66 91.88 287.36 41.17 310.4 41.17 272.34 124.26 256.98 124.26 218.91 41.17 241.96 41.17 264.66 91.88"/><path class="cls-2" d="M329,2.15a14.22,14.22,0,1,1-14.5,14.22A14.23,14.23,0,0,1,329,2.15"/><rect class="cls-3" x="317.94" y="41.17" width="22.19" height="83.09"/><path class="cls-2" d="M431.87,107.3c-9.73,13-22,18.67-37.55,18.67-25.6,0-44.38-19.18-44.38-43.17,0-24.16,19.29-43.35,44.55-43.35a44.12,44.12,0,0,1,34.82,16.62L413.61,70c-4.44-5.83-11.1-9.94-19.12-9.94-12.8,0-22.36,10.11-22.36,22.79,0,13,9.39,22.61,22.87,22.61,9.05,0,16.22-5.48,19.8-11Z"/><path class="cls-2" d="M512.46,111.07c-8,9.59-21.17,14.9-34,14.9-24.75,0-43.35-17.13-43.35-43.17,0-23.13,15.7-43.35,40.28-43.35,22.87,0,39.08,19.36,39.08,42.49a35.8,35.8,0,0,1-.51,6.34H456.64C457.84,99.93,467.23,108,479,108c9.39,0,16.9-5.31,20.83-9.59ZM491.8,72a16.53,16.53,0,0,0-16.38-14.57c-9.22,0-16.73,7-17.75,14.57Z"/><path class="cls-2" d="M523.33,124.26V41.17h21.33v6.68A36.44,36.44,0,0,1,568,39.45a37.24,37.24,0,0,1,28.68,13.37c5.46,6.51,8.53,14.9,8.53,29.12v42.32H583.06v-44c0-8.22-1.88-12.51-4.95-15.59-2.9-2.91-7.34-4.63-12.46-4.63-9.38,0-17.06,6-20.14,10.28v54Z"/><path class="cls-4" d="M662.38,39.46a48.6,48.6,0,0,0-33.46,83.9,9.6,9.6,0,0,0,12.47.66,34.65,34.65,0,0,1,41.42,0,9.64,9.64,0,0,0,12.55-.73,48.6,48.6,0,0,0-33-83.83m-.28,72.84c-14.36,0-24.19-10.81-24.19-24.19s9.83-24.37,24.19-24.37,24.19,11,24.19,24.37-9.82,24.19-24.19,24.19"/><polygon class="cls-2" points="754.39 124.26 737.87 124.26 704.91 41.17 727.07 41.17 745.13 88.65 762.85 41.17 781.37 41.17 798.92 88.65 817.15 41.17 839.3 41.17 806.35 124.26 789.82 124.26 772.11 76.95 754.39 124.26"/><line class="cls-5" x1="830.91" y1="114.84" x2="838.86" y2="114.84"/><line class="cls-5" x1="834.81" y1="124.55" x2="834.81" y2="114.98"/><polygon class="cls-6" points="840.23 114.03 840.23 124.46 842.12 124.46 842.12 118.64 844.65 122.71 845.44 122.71 845.44 120.21 841.9 114.03 840.23 114.03"/><polygon class="cls-6" points="850.69 114.03 850.69 124.46 848.8 124.46 848.8 118.64 846.27 122.71 845.48 122.71 845.48 120.21 849.01 114.03 850.69 114.03"/></svg>