<svg id="Layer_1" data-name="Layer 1" xmlns="http://www.w3.org/2000/svg" xmlns:xlink="http://www.w3.org/1999/xlink" viewBox="0 0 2434.99 726.87"><defs><style>.cls-1{fill:#2b3a46;stroke:#231f20;stroke-miterlimit:10;}.cls-2{font-size:345.67px;fill:#0056a9;font-family:PassagewayLight, Passageway;}.cls-3{fill:#ffb300;}.cls-4,.cls-5{fill-rule:evenodd;}.cls-4{fill:url(#linear-gradient);}.cls-5{fill:#fff;}.cls-6{fill:#225fbc;}</style><linearGradient id="linear-gradient" x1="695.49" y1="580.32" x2="695.49" y2="188.34" gradientUnits="userSpaceOnUse"><stop offset="0" stop-color="#225fbc"/><stop offset="1" stop-color="#1fb2f0"/></linearGradient></defs><path class="cls-1" d="M1149.27,677.48c-.67,0-1-.35-1-1v-24a13.74,13.74,0,0,1,4.13-10,13.39,13.39,0,0,1,9.91-4.09h2.35c.7,0,1,.36,1,1.08s-.34,1.16-1,1.16h-2.35a11.47,11.47,0,0,0-8.37,3.39,11.75,11.75,0,0,0-3.51,8.45v24a.92.92,0,0,1-1,1Z"/><path class="cls-1" d="M1207.6,677.48a.91.91,0,0,1-1-1V667a20.15,20.15,0,0,1-4.47,5.63,19.49,19.49,0,1,1,6.63-14.66v18.52a.92.92,0,0,1-1,1Zm-30.67-31.82a17.42,17.42,0,1,0,12.27-5A16.66,16.66,0,0,0,1176.93,645.66Z"/><path class="cls-1" d="M1320.25,671.74a19.51,19.51,0,0,1,24.34-30.24,19,19,0,0,1,7.21,8.29,1,1,0,0,1,.08.77.93.93,0,0,1-.5.61q-5.33,2.37-15,6.75-9.88,4.49-15,6.76c-.36.15-.82.37-1.39.65l-1.43.62a11.34,11.34,0,0,0,1.82,2.82,17.33,17.33,0,0,0,23.72,3.39,17.17,17.17,0,0,0,6.37-8.41,1,1,0,0,1,1.07-.73.92.92,0,0,1,.82.42,1,1,0,0,1,.15,1,19.55,19.55,0,0,1-18.44,13A18.76,18.76,0,0,1,1320.25,671.74Zm1.55-26a16.61,16.61,0,0,0-5.14,12.26,20.75,20.75,0,0,0,.16,2.51,14.57,14.57,0,0,0,.89,3.43q5.24-2.38,15.85-7.17l15.85-7.14a19.83,19.83,0,0,0-2.08-2.82,17.32,17.32,0,0,0-25.53-1.07Z"/><path class="cls-1" d="M1371.52,675.21l-15.12-35.38a.91.91,0,0,1,.07-1,1,1,0,0,1,.89-.5,1,1,0,0,1,1,.62L1372,670.73c.2.49.47,1.14.81,1.93a10.78,10.78,0,0,0,.58,1.39,1.73,1.73,0,0,0,1.46,1.16c.57,0,1.06-.36,1.47-1.16.15-.31.36-.8.62-1.47.38-.89.65-1.53.81-1.89L1391.3,639a1,1,0,0,1,1-.65,1.14,1.14,0,0,1,1,.5.93.93,0,0,1,.08,1l-15.12,35.34a3.6,3.6,0,0,1-6.71,0Z"/><path class="cls-1" d="M1269,653.48l.38-.39a1,1,0,0,0-1.46-1.47l-.39.39a1,1,0,0,0,1.47,1.47Z"/><path class="cls-1" d="M1272.47,650l2.59-2.58a1,1,0,0,0-1.47-1.47l-2.59,2.59a1,1,0,0,0,1.47,1.46Z"/><path class="cls-1" d="M1307.81,627.82a5.62,5.62,0,0,0,0-.82.94.94,0,0,0-1.08-.91c-.59,0-.91.37-.94,1,0,.22,0,.44,0,.66q0,10.11,0,20.23c0,.28,0,.56,0,.84-3.27-5.46-7.84-8.91-14.12-10a16.9,16.9,0,0,0-15,4.09h0l0,0-.08.08a1,1,0,0,0,1.33,1.51h0c5-4.18,10.26-5.06,16.42-2.93a17.37,17.37,0,0,1,9.09,25.18,17.17,17.17,0,0,1-18.54,8.08,16.35,16.35,0,0,1-8.18-4.61l-25.46-25.9a18.95,18.95,0,0,0-26.82-.38,19.17,19.17,0,0,0-5.89,14.3v29.76a5.56,5.56,0,0,0,0,.58,1,1,0,0,0,2,0c0-.25,0-.5,0-.74V667.12l.14,0c.11.14.22.28.32.43.42.65.79,1.34,1.26,2,4.6,6,10.66,8.59,18.14,7.65a18.14,18.14,0,0,0,10.68-5.39c1.9-1.89,3.78-3.8,5.67-5.7.21-.21.43-.4.77-.71,0,.31,0,.45-.08.58l-1.47,6.88c-.14.68-.29,1.35-.42,2s0,1.09.51,1.2.83-.16,1-.92a.75.75,0,0,0,0-.16l2.64-12.3c.22-1-.18-1.43-1.19-1.2l-12.42,2.84c-.77.18-1.08.5-1,1s.54.74,1.34.54c2.89-.72,5.8-1.35,8.7-2l.92-.17c-.07.15-.09.24-.15.29-2.4,2.41-4.68,4.94-7.23,7.18a16.16,16.16,0,0,1-15.86,3.53,17.25,17.25,0,0,1-11.53-21.9,17,17,0,0,1,28.16-7.17c.59.58,1.16,1.19,1.74,1.78q5.65,5.77,11.32,11.54c4.29,4.35,8.55,8.72,12.87,13a17.9,17.9,0,0,0,11.79,5.39,18.69,18.69,0,0,0,13.36-4.18,19.21,19.21,0,0,0,7.25-15.6C1307.85,647.61,1307.82,637.72,1307.81,627.82Z"/><path class="cls-1" d="M1080.29,653.92A19.88,19.88,0,0,0,1065,638.63a21,21,0,0,0-7.64,0c-.46.08-.89.25-1.33.36a18.73,18.73,0,0,0-2.13.64c-.5.2-1,.47-1.45.72a17.84,17.84,0,0,0-1.77,1c-.45.29-.87.64-1.3,1s-.82.56-1.21.9c-.18.16-.32.37-.5.53s-.26.2-.38.32-.36.45-.55.66a18.92,18.92,0,0,0-1.46,1.74c-.36.49-.69,1-1,1.5-.18.31-.4.57-.58.89V619.56c0-.7-.33-1-1-1h-.12a.92.92,0,0,0-1,1v56.78a.92.92,0,0,0,1,1h.12c.67,0,1-.35,1-1v-9.49c.18.32.4.58.58.88.31.51.64,1,1,1.51a18.92,18.92,0,0,0,1.46,1.74c.19.21.34.44.55.65s.26.21.38.32.32.37.5.53c.39.34.81.59,1.21.9s.85.69,1.3,1a17.84,17.84,0,0,0,1.77,1c.48.24,1,.52,1.45.71a16.89,16.89,0,0,0,2.13.64c.44.12.87.28,1.33.37a21,21,0,0,0,7.64,0,19.92,19.92,0,0,0,15.29-15.3,21.3,21.3,0,0,0,0-7.8Zm-6.93,16.17a17.23,17.23,0,1,1,5.13-12.27A16.76,16.76,0,0,1,1073.36,670.09Z"/><path class="cls-1" d="M1124.3,638.8a1.12,1.12,0,0,0-1-.5,1,1,0,0,0-1,.65l-13.54,31.67q-.24.54-.81,1.89c-.26.67-.47,1.16-.62,1.47h0l-9.54,22.34a.94.94,0,0,0,.59,1.38l.07,0a.9.9,0,0,0,1.33-.57l10.82-25.35,13.72-32.06A.9.9,0,0,0,1124.3,638.8Z"/><path class="cls-1" d="M1102.44,673.39a1.16,1.16,0,0,0,1-.5.94.94,0,0,0,.07-1l-2.55-6h0a12.5,12.5,0,0,1-.58-1.39c-.33-.8-.6-1.44-.81-1.93l-10.17-23.71a1,1,0,0,0-1-.61,1,1,0,0,0-.89.5.91.91,0,0,0-.07,1l2.15,5h0c.16.31.36.8.62,1.47.39.9.65,1.53.81,1.89l10.5,24.56A1,1,0,0,0,1102.44,673.39Z"/><text class="cls-2" transform="translate(1020.58 510.5)">Max<tspan class="cls-3" x="679.24" y="0">DB</tspan></text><polyline class="cls-4" points="299.28 579.77 699.74 579.77 1091.7 187.78 299.28 187.78 299.28 579.77"/><path class="cls-5" d="M769.54,261.47l-78,0V446.89L623.4,261.45H555.84L497.65,416.52c-6.16-39.08-46.62-52.61-78.45-62.74-21.05-6.73-43.29-16.67-43.09-27.64.14-9,12-17.36,35.29-16.1,15.69.85,29.55,2.09,57.05,15.39l27.16-47.2c-25.17-12.8-59.9-20.86-88.36-20.91h-.19c-33.19,0-60.87,10.78-78,28.49a65.92,65.92,0,0,0-18.67,45.49c-.43,23.95,8.35,40.91,26.81,54.48,15.54,11.39,35.46,18.81,53,24.27,21.65,6.69,39.33,12.51,39.11,24.95a18,18,0,0,1-5.1,12.16c-5.41,5.58-13.69,7.68-25.14,7.9-22.12.45-38.5-3-64.59-18.43l-24.1,47.84A180.14,180.14,0,0,0,398.67,508l4.06,0c27.38-.48,49.46-8.32,67.14-22.52,1-.78,1.91-1.63,2.84-2.45l-7.8,20.91h70.83l11.9-36.17A135.35,135.35,0,0,0,630,468l11.45,35.83H756.94V429h25.19c60.92,0,97-31,97-83C879.12,288,844.09,261.47,769.54,261.47ZM589.28,420.19a70.73,70.73,0,0,1-25-4.42l24.74-78h.5L613.75,416A72,72,0,0,1,589.28,420.19Zm184.85-44.84H756.94V312.48h17.19c22.92,0,41.16,7.61,41.16,31.08,0,24.19-18.24,31.79-41.16,31.79"/><path class="cls-6" d="M795.58,554.35c0-12,9.08-21.15,20.71-21.15,11.46,0,20.56,9.11,20.56,21.15,0,12.24-9.1,21.24-20.56,21.24C804.66,575.59,795.58,566.59,795.58,554.35Zm20.71,25.48a25.42,25.42,0,1,0,0-50.84c-14,0-25.82,10.76-25.82,25.36S802.29,579.83,816.29,579.83Zm-5.4-23.48H816L823.72,569h5l-8.37-12.9c4.3-.5,7.61-2.81,7.61-8.06,0-5.77-3.42-8.33-10.33-8.33H806.46V569h4.43Zm0-3.78v-9.05H817c3,0,6.31.65,6.31,4.29,0,4.53-3.34,4.76-7.06,4.76Z"/></svg>