<?xml version="1.0" encoding="UTF-8"?><svg xmlns="http://www.w3.org/2000/svg" viewBox="0 0 120 60"><defs><style>.e{fill:#fff;}.f{fill:#86b717;}.g{fill:#b3b3b3;}</style></defs><g id="a"/><g id="b"><g id="c"/><g id="d"/><g><g><g><g><path class="g" d="M89.98,45.36l.03,.09-.65,.3-.03-.13c-.04-.15-.11-.26-.25-.35h0c-.14-.09-.29-.14-.45-.14h0c-.12,0-.23,.02-.31,.07h0c-.08,.04-.15,.11-.21,.21h0c-.04,.09-.06,.17-.06,.26h0c0,.21,.09,.35,.29,.46h0l1.06,.39h0c.21,.12,.37,.28,.48,.48h0c.11,.2,.17,.41,.17,.64h0c0,.19-.04,.38-.12,.55h0c-.08,.18-.2,.34-.36,.48h0c-.28,.19-.59,.29-.94,.29h0c-.31,0-.59-.08-.86-.24h0c-.14-.1-.25-.22-.33-.36h0c-.07-.13-.14-.3-.2-.49h0l-.02-.09,.69-.35v.17c0,.21,.07,.37,.22,.51h0c.15,.14,.32,.2,.52,.21h0c.08,0,.15-.01,.23-.04h0c.07-.02,.15-.06,.22-.12h0c.07-.05,.12-.12,.17-.22h0c.04-.09,.07-.19,.07-.29h0c0-.16-.04-.27-.09-.32h0c-.08-.08-.14-.14-.17-.16h0s-.13-.07-.26-.13h0l-.72-.25c-.23-.11-.41-.25-.55-.44h0c-.14-.19-.22-.41-.22-.65h0c0-.07,.02-.17,.04-.32h0c.03-.17,.13-.34,.29-.52h0c.16-.18,.34-.29,.55-.33h0c.18-.04,.35-.06,.49-.06h0c.06,0,.11,0,.15,0h0s.13,.02,.27,.05h0c.16,.03,.33,.12,.49,.27h0c.17,.15,.3,.33,.36,.55h0"/><path class="g" d="M91.36,48.91v-4.34h2.46v.66h-1.74v1.01h1.74v.64h-1.75v1.37h1.75v.66h-2.46Z"/><path class="g" d="M98.82,49h-.15l-2.86-3.14v3.05h-.68v-4.44h.27l2.83,3.14v-3.04h.69v4.43h-.11Z"/><path class="g" d="M101.44,48.91v-3.69h-1.19v-.65h3.1v.65h-1.19v3.69h-.73Z"/><path class="g" d="M107.61,48.73l.14,.17h-.95l-1.39-1.89h0v1.89h-.73v-4.34l1.63,.02c.32,0,.6,.13,.8,.37h0c.2,.24,.31,.53,.31,.84h0c0,.17-.03,.33-.09,.47h0c-.06,.15-.16,.29-.3,.41h0c-.15,.12-.31,.21-.49,.26h-.35l1.41,1.79m-2.2-2.35h.81c.15,0,.25-.05,.33-.15h0c.08-.11,.12-.23,.12-.39h0c0-.13-.03-.25-.09-.36h0c-.06-.1-.13-.17-.24-.22h0s-.09-.03-.14-.04h0s-.09-.02-.12-.02h-.68v1.17h0Z"/><path class="g" d="M109.79,48.91v-1.93l-1.48-2.41h.87l1,1.73,.95-1.72h.82l-1.44,2.41v1.93h-.72Z"/></g><g><path class="g" d="M88.7,50.4l-.24,.11c-.02-.09-.08-.17-.16-.22-.08-.06-.18-.09-.28-.09-.07,0-.14,.01-.19,.04-.06,.03-.1,.08-.14,.14-.02,.05-.04,.11-.04,.16,0,.13,.06,.24,.19,.3l.57,.21c.1,.06,.18,.14,.24,.24,.06,.1,.08,.2,.08,.32,0,.1-.02,.19-.06,.28-.04,.09-.1,.17-.18,.23-.14,.1-.3,.15-.47,.15-.16,0-.3-.04-.43-.12-.07-.05-.12-.11-.16-.18-.04-.07-.07-.15-.1-.25l.24-.12c0,.13,.05,.23,.13,.32,.09,.08,.2,.13,.32,.13,.05,0,.1,0,.14-.02,.05-.01,.09-.04,.14-.07,.05-.03,.08-.08,.11-.14,.03-.06,.04-.12,.04-.18,0-.1-.02-.17-.06-.21-.04-.05-.08-.08-.1-.09-.02-.02-.08-.04-.15-.07l-.38-.14c-.11-.05-.21-.13-.28-.22-.07-.09-.1-.2-.1-.32,0-.03,0-.08,.02-.16,.02-.08,.06-.16,.14-.25,.08-.09,.17-.14,.26-.16,.09-.02,.18-.03,.25-.03,.03,0,.06,0,.07,0,.02,0,.06,.01,.14,.03,.07,.02,.16,.06,.24,.13,.09,.07,.14,.16,.18,.27Z"/><path class="g" d="M92.76,51.1c0,.33-.12,.61-.35,.84-.23,.23-.51,.35-.84,.35s-.62-.11-.86-.34c-.24-.22-.36-.5-.36-.82s.12-.61,.35-.84c.23-.23,.51-.35,.84-.35s.62,.11,.86,.34c.24,.22,.36,.5,.36,.82Zm-.28,0c0-.25-.09-.47-.28-.65-.18-.18-.41-.26-.66-.26s-.47,.09-.65,.28c-.18,.18-.26,.41-.26,.66s.09,.47,.27,.64c.18,.18,.4,.26,.66,.26s.47-.09,.65-.28c.18-.18,.26-.4,.26-.66Z"/><path class="g" d="M95.58,51.14h-.93v1.09h-.26v-2.22h1.19v.23h-.93v.67h.93v.23Z"/><path class="g" d="M98.76,50.24h-.64v1.99h-.28v-1.99h-.64v-.23h1.55v.23Z"/><path class="g" d="M103.12,50.01l-.81,2.29h-.08l-.56-1.75-.55,1.76h-.08l-.85-2.29h.3l.58,1.77,.57-1.8h.07l.57,1.8,.56-1.77h.29Z"/><path class="g" d="M106.15,52.23h-.31l-.28-.69h-.89l-.28,.69h-.29l.98-2.28h.07l1.01,2.28Zm-.68-.89l-.37-.96-.36,.96h.73Z"/><path class="g" d="M109.22,52.23h-.36l-.83-1.13v1.14h-.28v-2.22h.82c.16,0,.29,.07,.39,.19,.1,.12,.15,.26,.15,.42,0,.08-.01,.16-.04,.23-.03,.07-.08,.14-.14,.2-.07,.06-.15,.1-.24,.13h-.29l.83,1.05Zm-.61-1.95s-.05-.02-.08-.03c-.03,0-.06-.01-.08-.01h-.42v.74h.5c.1,0,.17-.03,.22-.1,.05-.07,.08-.15,.08-.24,0-.08-.02-.15-.05-.22-.04-.07-.09-.11-.16-.14Z"/><path class="g" d="M111.94,52.23h-1.21v-2.22h1.21v.24h-.94v.66h.94v.23h-.94v.85h.94v.24Z"/></g></g><path class="g" d="M81.48,43.56c-1.13,.7-1.54,1.43-1.53,1.99,0,.2,.05,.4,.15,.59,.29,.56,.67,1.06,1,1.56,.32,.49,.62,.99,.63,1.58,0,.21-.04,.44-.14,.65-.27,.62-.82,.92-1.28,1.07-.27,.08-.51,.12-.71,.14l-.34-.76h0c.1,0,.46-.01,.81-.12,.36-.11,.67-.31,.81-.64,.05-.12,.07-.23,.07-.35,0-.3-.18-.69-.5-1.15-.31-.46-.72-.99-1.05-1.63-.15-.29-.23-.61-.23-.94,0-.83,.49-1.64,1.46-2.35-.55-.19-1.15-.29-1.76-.29-3.03,0-5.48,2.46-5.48,5.48s2.45,5.48,5.48,5.48,5.48-2.46,5.48-5.48c0-2.09-1.16-3.9-2.88-4.83Zm.26,2.63c-.39,.09-.77-.15-.86-.54-.09-.39,.15-.77,.54-.86,.39-.09,.77,.15,.86,.54,.09,.39-.15,.77-.54,.86Z"/></g><rect class="f" x="8" y="35.61" width="103.94" height="2.2"/><g><path class="f" d="M106.2,36.08c.26-.74,.35-1.62,.41-2.25h0c.11-1.21,.14-3.42-.75-5.48-.04-.11-.09-.22-.14-.35-.33-.8-.81-1.85-1.4-2.84-.29-.5-.62-.97-.94-1.41-.17-.21-.34-.41-.49-.6-.17-.18-.33-.35-.48-.51-.16-.14-.31-.27-.44-.39-.13-.12-.26-.2-.36-.28-.21-.14-.33-.23-.33-.23,0,0,.12,.07,.34,.2,.11,.07,.25,.13,.39,.25,.14,.11,.31,.23,.48,.36,.16,.14,.34,.3,.53,.48,.17,.18,.36,.37,.55,.57,.36,.42,.73,.88,1.07,1.36,.68,.96,1.26,1.99,1.66,2.78,.08,.16,.15,.31,.22,.45,.04-.1,.08-.22,.1-.34,.07-.26,.15-.58,.2-.93,.05-.35,.08-.73,.08-1.14-.02-.81-.14-1.72-.48-2.6-.15-.45-.37-.88-.61-1.3-.24-.43-.55-.83-.86-1.21-.34-.38-.7-.73-1.09-1.06-.41-.31-.82-.59-1.27-.82-.46-.22-.89-.42-1.36-.54-.47-.12-.91-.22-1.34-.25-.45-.02-.85-.01-1.21,.03-.36,.03-.7,.15-.96,.23-.26,.07-.48,.18-.61,.24-.14,.06-.22,.11-.22,.11,0,0,.03,.08,.07,.24,.05,.14,.11,.38,.2,.61,.08,.23,.18,.51,.29,.83,.1,.31,.22,.63,.35,.95,.12,.32,.25,.67,.4,.99,.14,.32,.29,.67,.47,.97,.35,.64,.77,1.25,1.26,1.82,.24,.3,.52,.55,.8,.83,.28,.27,.59,.51,.9,.74,.32,.23,.64,.45,.98,.65,.34,.2,.67,.38,1.01,.54,.34,.16,.67,.3,.98,.42,.21,.09,.42,.15,.61,.22,1,2.15,.89,4.58,.78,5.66-.02,.18-.05,.37-.08,.57h0c-.07,.48-.16,.99-.32,1.47"/><path class="f" d="M107.06,29.65c.25-.29,.6-.67,.99-1,.19-.17,.4-.32,.59-.46,.1-.06,.2-.13,.29-.18,.1-.05,.19-.1,.27-.15,.09-.04,.17-.07,.24-.1,.07-.03,.14-.05,.19-.06,.11-.03,.17-.05,.17-.05l-.16,.06c-.05,.02-.12,.04-.18,.08-.07,.04-.14,.08-.23,.12-.08,.05-.17,.11-.26,.16-.09,.07-.18,.13-.27,.2-.18,.15-.37,.32-.54,.5-.35,.36-.67,.75-.89,1.06-.03,.05-.07,.09-.1,.13,0,0,.3,.05,.56,.05,.14,0,.3-.04,.46-.08,.16-.03,.32-.08,.48-.12,.16-.05,.32-.11,.48-.17,.16-.07,.31-.14,.46-.22,.15-.09,.29-.17,.42-.27,.27-.19,.51-.4,.72-.64,.11-.11,.21-.24,.3-.36,.1-.12,.19-.25,.27-.38,.09-.12,.17-.24,.24-.36,.08-.12,.15-.23,.21-.32,.06-.09,.11-.18,.15-.24,.04-.06,.06-.09,.06-.09,0,0-.03-.03-.08-.07-.05-.04-.13-.11-.23-.16-.1-.06-.24-.15-.38-.19-.15-.05-.32-.1-.51-.14-.19-.03-.38-.04-.59-.03-.21,0-.42,.04-.63,.09-.21,.05-.42,.13-.62,.22-.2,.1-.39,.21-.57,.33-.17,.13-.35,.27-.49,.42-.15,.15-.28,.32-.4,.49-.23,.34-.38,.71-.47,1.05-.04,.17-.07,.34-.09,.49-.02,.15-.02,.3-.01,.41,0,.06,0,.11,0,.16,.04-.05,.09-.11,.14-.17Z"/></g><g><path class="e" d="M17.73,6.13v10.3h-1.99v-4.4h-4.67v4.4h-2V6.13h2v4.16h4.67V6.13h1.99Z"/><path class="e" d="M18.84,16.43l4.06-10.3h1.62l4.05,10.3h-2.12l-.94-2.57h-3.61l-.94,2.57h-2.12Zm4.87-8.14l-1.48,4.16h2.92l-1.44-4.16Z"/><path class="e" d="M29.67,16.43V6.13h4.56c.47,0,.91,.1,1.31,.3,.4,.2,.75,.46,1.04,.78,.29,.32,.52,.69,.68,1.1,.16,.41,.25,.82,.25,1.24,0,.67-.17,1.27-.5,1.82s-.79,.94-1.36,1.18l2.42,3.87h-2.26l-2.16-3.45h-1.97v3.45h-2Zm2-5.21h2.51c.18,0,.36-.04,.52-.13,.16-.09,.3-.21,.41-.36,.12-.15,.21-.33,.28-.53,.07-.2,.1-.42,.1-.65s-.04-.46-.12-.67c-.08-.2-.18-.38-.31-.53-.13-.15-.28-.27-.45-.35-.17-.08-.34-.12-.52-.12h-2.42v3.34Z"/><path class="e" d="M39.45,16.43V6.13h3.74c.84,0,1.58,.14,2.21,.41,.63,.27,1.16,.64,1.59,1.1,.43,.46,.74,1.01,.96,1.63s.32,1.29,.32,1.99c0,.78-.12,1.49-.36,2.13-.24,.63-.58,1.18-1.02,1.62-.44,.45-.98,.8-1.6,1.04-.62,.25-1.32,.37-2.1,.37h-3.74Zm6.8-5.16c0-.49-.07-.95-.2-1.36-.14-.42-.33-.77-.59-1.07-.26-.3-.58-.53-.96-.7-.38-.16-.81-.25-1.3-.25h-1.74v6.79h1.74c.49,0,.93-.09,1.31-.26,.38-.17,.7-.41,.96-.72,.26-.3,.45-.66,.59-1.08,.14-.42,.2-.87,.2-1.35Z"/><path class="e" d="M53.04,6.16h1.84l1.16,3.41,1.16-3.41h1.86l-1.76,4.69,1.31,3.29,2.92-8.01h2.18l-4.19,10.3h-1.68l-1.78-4.32-1.78,4.32h-1.68l-4.18-10.3h2.16l2.93,8.01,1.28-3.29-1.73-4.69Z"/><path class="e" d="M62.91,16.43l4.06-10.3h1.62l4.05,10.3h-2.12l-.94-2.57h-3.61l-.94,2.57h-2.12Zm4.87-8.14l-1.48,4.16h2.92l-1.44-4.16Z"/><path class="e" d="M73.74,16.43V6.13h4.56c.47,0,.91,.1,1.31,.3,.4,.2,.75,.46,1.04,.78,.29,.32,.52,.69,.68,1.1,.16,.41,.25,.82,.25,1.24,0,.67-.17,1.27-.5,1.82s-.79,.94-1.36,1.18l2.42,3.87h-2.26l-2.16-3.45h-1.97v3.45h-2Zm2-5.21h2.51c.18,0,.36-.04,.52-.13,.16-.09,.3-.21,.41-.36,.12-.15,.21-.33,.28-.53,.07-.2,.1-.42,.1-.65s-.04-.46-.12-.67c-.08-.2-.18-.38-.31-.53-.13-.15-.28-.27-.45-.35-.17-.08-.34-.12-.52-.12h-2.42v3.34Z"/><path class="e" d="M90.67,14.68v1.76h-7.15V6.13h7.02v1.76h-5.02v2.48h4.34v1.62h-4.34v2.68h5.15Z"/><path class="e" d="M15.35,22.57c-.29-.33-.68-.59-1.17-.8-.49-.2-1.04-.3-1.65-.3-.92,0-1.59,.17-2,.52-.42,.34-.62,.81-.62,1.4,0,.31,.06,.56,.17,.76,.11,.2,.29,.37,.52,.52,.24,.15,.54,.27,.9,.38s.79,.21,1.28,.32c.55,.12,1.04,.24,1.48,.38,.44,.14,.81,.32,1.12,.54,.31,.22,.55,.48,.71,.8,.16,.31,.25,.7,.25,1.17s-.09,.88-.28,1.23c-.18,.35-.44,.64-.77,.87-.33,.23-.72,.4-1.18,.52-.45,.11-.95,.17-1.48,.17-1.62,0-2.99-.5-4.13-1.49l.49-.83c.38,.4,.88,.73,1.52,1.01,.64,.28,1.35,.41,2.13,.41,.82,0,1.47-.15,1.93-.44,.46-.29,.7-.74,.7-1.34,0-.32-.07-.59-.2-.81-.13-.22-.33-.41-.59-.57-.26-.16-.59-.3-.98-.41-.39-.12-.84-.23-1.36-.35-.54-.13-1.02-.26-1.42-.39-.41-.14-.75-.3-1.02-.51-.28-.2-.48-.45-.62-.73-.14-.29-.21-.64-.21-1.05,0-.47,.09-.9,.27-1.27,.18-.37,.43-.68,.75-.93,.32-.25,.71-.44,1.16-.57,.45-.13,.95-.2,1.49-.2,.68,0,1.28,.1,1.82,.31,.54,.21,1.02,.5,1.46,.88l-.48,.81Z"/><path class="e" d="M25.1,30.04v.9h-6.92v-10.3h6.79v.9h-5.79v3.71h5.05v.86h-5.05v3.93h5.92Z"/><path class="e" d="M28.08,22.52v8.41h-1v-10.3h.78l6.82,8.57v-8.56h1v10.29h-.87l-6.73-8.41Z"/><path class="e" d="M45.62,21.54h-3.67v9.4h-1.02v-9.4h-3.67v-.9h8.36v.9Z"/><path class="e" d="M47.2,30.94v-10.3h4.34c.44,0,.86,.09,1.23,.28s.7,.44,.97,.74c.27,.3,.48,.65,.63,1.04,.15,.39,.22,.78,.22,1.18s-.06,.74-.17,1.08c-.11,.34-.27,.65-.47,.93-.2,.28-.44,.51-.73,.7-.28,.19-.59,.32-.94,.38l2.54,3.97h-1.15l-2.44-3.8h-3.05v3.8h-1Zm1-4.7h3.38c.3,0,.57-.07,.82-.2,.25-.13,.46-.31,.63-.53s.31-.47,.41-.75c.1-.28,.15-.58,.15-.88s-.06-.61-.17-.89-.26-.53-.45-.75c-.19-.21-.41-.38-.67-.51-.26-.13-.52-.19-.8-.19h-3.29v4.7Z"/><path class="e" d="M56.29,20.64l3.38,5.54,3.39-5.54h1.1l-4,6.47v3.83h-1v-3.86l-3.97-6.44h1.1Z"/></g><g><path class="f" d="M12.76,50.4c-.47,.49-1.02,.74-1.64,.74-.39,0-.76-.09-1.11-.26-.35-.17-.65-.41-.91-.7s-.46-.63-.61-1.01-.22-.78-.22-1.19,.07-.82,.22-1.19c.15-.37,.35-.7,.61-.98,.26-.28,.57-.5,.93-.67s.74-.25,1.16-.25c.56,0,1.04,.12,1.44,.36,.4,.24,.7,.57,.9,.98l-.89,.66c-.15-.31-.36-.54-.62-.7-.26-.16-.55-.24-.87-.24-.25,0-.48,.05-.69,.16-.21,.11-.38,.26-.52,.45-.14,.19-.26,.41-.34,.66-.08,.25-.12,.51-.12,.79s.04,.56,.13,.81c.09,.25,.21,.47,.36,.65s.34,.33,.55,.44c.21,.11,.44,.16,.7,.16,.57,0,1.08-.28,1.53-.84v-.43h-1.24v-.87h2.23v3.16h-.99v-.69Z"/><path class="f" d="M14.78,51.1v-6.15h2.72c.28,0,.54,.06,.78,.18,.24,.12,.45,.27,.62,.47,.17,.19,.31,.41,.41,.66,.1,.25,.15,.49,.15,.74,0,.4-.1,.76-.3,1.09s-.47,.56-.81,.71l1.45,2.31h-1.35l-1.29-2.06h-1.18v2.06h-1.2Zm1.2-3.11h1.5c.11,0,.21-.03,.31-.08,.1-.05,.18-.12,.25-.21,.07-.09,.12-.19,.16-.32,.04-.12,.06-.25,.06-.39s-.02-.28-.07-.4-.11-.23-.19-.32c-.08-.09-.17-.16-.27-.21-.1-.05-.2-.07-.31-.07h-1.45v1.99Z"/><path class="f" d="M24.89,50.05v1.05h-4.27v-6.15h4.19v1.05h-3v1.48h2.59v.97h-2.59v1.6h3.07Z"/><path class="f" d="M30.12,50.05v1.05h-4.27v-6.15h4.19v1.05h-3v1.48h2.59v.97h-2.59v1.6h3.07Z"/><path class="f" d="M32.28,47.16v3.94h-1.2v-6.15h.93l3.2,4.04v-4.03h1.2v6.14h-.97l-3.16-3.94Z"/><path class="f" d="M39.76,51.1v-6.14h1.2v6.14h-1.2Z"/><path class="f" d="M46.83,45.99h-1.96v5.1h-1.2v-5.1h-1.97v-1.05h5.12v1.05Z"/><path class="f" d="M55.29,46.58h.57l-1.93,4.51h-.49l-.96-2.3-.96,2.3h-.49l-1.93-4.51h.56l1.65,3.91,.86-2.06-.77-1.84h.5l.59,1.47,.58-1.47h.5l-.76,1.84,.86,2.06,1.64-3.91Z"/><path class="f" d="M56.63,45.64v-.87h.59v.87h-.59Zm0,5.46v-4.51h.59v4.51h-.59Z"/><path class="f" d="M60.67,50.88s-.09,.04-.15,.07-.14,.06-.23,.09c-.09,.03-.18,.05-.29,.08s-.23,.03-.35,.03c-.13,0-.25-.02-.36-.05s-.22-.09-.3-.16c-.09-.07-.16-.16-.21-.27-.05-.11-.08-.24-.08-.38v-3.23h-.62v-.47h.62v-1.52h.59v1.52h1.04v.47h-1.04v3.07c.01,.17,.07,.29,.17,.37,.1,.08,.23,.12,.37,.12,.17,0,.31-.03,.44-.08,.13-.05,.21-.09,.24-.12l.16,.48Z"/><path class="f" d="M65.15,51.1h-.59v-2.52c0-.51-.09-.9-.26-1.15-.18-.25-.43-.38-.78-.38-.17,0-.33,.03-.5,.1s-.32,.16-.46,.27c-.14,.12-.27,.25-.38,.41-.11,.16-.19,.33-.24,.51v2.76h-.59v-6.32h.59v2.83c.18-.34,.44-.61,.75-.81,.32-.2,.66-.29,1.02-.29,.26,0,.48,.05,.66,.14,.18,.1,.33,.23,.44,.4,.11,.17,.19,.38,.25,.62s.08,.5,.08,.79v2.64Z"/></g></g></g></svg>