<?xml version="1.0" encoding="UTF-8"?><svg id="storage_monitoring" xmlns="http://www.w3.org/2000/svg" viewBox="0 0 120 60"><defs><style>.cls-1{fill:#86b717;}.cls-2{fill:#004577;}</style></defs><g><path class="cls-1" d="M99.72,39.81c.2-.57,.27-1.24,.31-1.73h0c.08-.93,.11-2.63-.57-4.2-.03-.08-.07-.17-.11-.27-.25-.61-.62-1.42-1.08-2.18-.22-.38-.47-.75-.72-1.08-.13-.16-.26-.32-.38-.46-.13-.14-.26-.27-.37-.39-.13-.11-.24-.21-.34-.3-.1-.09-.2-.15-.28-.21-.16-.11-.25-.17-.25-.17,0,0,.1,.06,.26,.16,.08,.05,.19,.1,.3,.19,.11,.08,.23,.17,.37,.28,.12,.11,.26,.23,.41,.36,.13,.14,.28,.29,.42,.44,.28,.32,.56,.67,.82,1.04,.52,.74,.97,1.53,1.27,2.13,.06,.12,.12,.24,.17,.34,.03-.08,.06-.17,.08-.26,.05-.2,.12-.44,.15-.71,.04-.27,.06-.56,.06-.87-.01-.62-.11-1.32-.36-1.99-.12-.34-.28-.68-.47-1-.18-.33-.42-.63-.66-.93-.26-.29-.54-.56-.84-.81-.32-.24-.63-.46-.97-.63-.35-.17-.68-.32-1.04-.42-.36-.09-.7-.17-1.03-.19-.34-.02-.65,0-.93,.02-.27,.02-.54,.12-.74,.17-.2,.05-.36,.14-.47,.18-.11,.05-.17,.09-.17,.09,0,0,.02,.06,.06,.18,.04,.11,.09,.29,.16,.47,.06,.18,.14,.39,.22,.63,.08,.24,.17,.48,.26,.73,.1,.25,.19,.51,.31,.76,.11,.24,.22,.51,.36,.75,.26,.49,.59,.96,.97,1.39,.19,.23,.4,.42,.61,.63,.21,.2,.45,.39,.69,.57,.24,.18,.49,.35,.75,.5,.26,.15,.51,.29,.78,.41,.26,.12,.51,.23,.75,.32,.16,.07,.32,.12,.47,.17,.76,1.65,.69,3.51,.6,4.34-.02,.13-.04,.28-.06,.44h0c-.05,.36-.12,.76-.25,1.13"/><path class="cls-1" d="M100.38,34.88c.19-.22,.46-.51,.76-.77,.15-.13,.31-.25,.46-.35,.08-.05,.15-.1,.22-.14,.08-.04,.15-.08,.21-.11,.07-.03,.13-.06,.18-.08,.05-.03,.11-.04,.15-.05l.13-.04-.12,.05s-.09,.03-.14,.06c-.05,.03-.11,.06-.18,.09-.06,.04-.13,.08-.2,.13-.07,.05-.14,.1-.21,.16-.14,.12-.28,.24-.42,.38-.27,.27-.51,.58-.68,.81-.03,.04-.05,.07-.07,.1,0,0,.23,.04,.43,.04,.11,0,.23-.03,.35-.06,.12-.02,.24-.06,.37-.09,.13-.04,.25-.08,.37-.13,.12-.05,.24-.11,.35-.17,.11-.07,.22-.13,.33-.21,.21-.14,.39-.31,.55-.49,.08-.08,.16-.19,.23-.28,.07-.09,.14-.19,.21-.29,.07-.09,.13-.19,.19-.28,.06-.09,.12-.18,.16-.25,.05-.07,.09-.14,.11-.18,.03-.05,.04-.07,.04-.07,0,0-.02-.02-.06-.05-.04-.03-.1-.08-.18-.12-.08-.04-.18-.11-.29-.15-.11-.04-.24-.08-.39-.1-.14-.02-.29-.03-.46-.03-.16,0-.32,.03-.48,.07-.16,.04-.32,.1-.48,.17-.15,.07-.3,.16-.44,.26-.13,.1-.26,.21-.38,.33-.11,.12-.22,.24-.3,.37-.18,.26-.29,.54-.36,.81-.03,.13-.05,.26-.07,.38-.01,.12-.01,.23,0,.32,0,.04,0,.08,0,.12,.03-.04,.07-.08,.11-.13Z"/></g><g><path class="cls-2" d="M25.9,7.63v10.65h-2.06v-4.54h-4.83v4.54h-2.07V7.63h2.07v4.3h4.83V7.63h2.06Z"/><path class="cls-2" d="M27.04,18.28l4.2-10.65h1.68l4.18,10.65h-2.19l-.98-2.66h-3.73l-.98,2.66h-2.19Zm5.04-8.42l-1.53,4.3h3.01l-1.48-4.3Z"/><path class="cls-2" d="M38.25,18.28V7.63h4.71c.49,0,.94,.1,1.36,.31,.42,.21,.77,.48,1.07,.81,.3,.34,.54,.71,.71,1.14,.17,.42,.25,.85,.25,1.28,0,.69-.17,1.32-.52,1.88-.34,.57-.81,.97-1.4,1.22l2.5,4.01h-2.34l-2.24-3.57h-2.04v3.57h-2.07Zm2.07-5.38h2.6c.19,0,.37-.04,.53-.13,.17-.09,.31-.21,.43-.37,.12-.15,.21-.34,.28-.55,.07-.21,.11-.44,.11-.68s-.04-.48-.12-.69c-.08-.21-.19-.39-.32-.55s-.29-.28-.46-.36c-.18-.09-.35-.13-.53-.13h-2.5v3.45Z"/><path class="cls-2" d="M48.36,18.28V7.63h3.87c.87,0,1.63,.14,2.29,.42,.65,.28,1.2,.66,1.64,1.14,.44,.48,.77,1.04,.99,1.69,.22,.64,.33,1.33,.33,2.06,0,.81-.12,1.54-.37,2.2s-.6,1.21-1.06,1.68-1.01,.82-1.66,1.08c-.64,.25-1.37,.38-2.17,.38h-3.87Zm7.03-5.34c0-.51-.07-.98-.21-1.41-.14-.43-.34-.8-.61-1.11-.27-.31-.6-.55-1-.72-.39-.17-.84-.26-1.34-.26h-1.8v7.02h1.8c.51,0,.96-.09,1.36-.27,.39-.18,.72-.43,.99-.74,.27-.31,.47-.69,.61-1.12,.14-.43,.21-.89,.21-1.39Z"/><path class="cls-2" d="M62.41,7.66h1.91l1.2,3.53,1.2-3.53h1.92l-1.81,4.85,1.35,3.4,3.01-8.28h2.25l-4.33,10.65h-1.74l-1.85-4.47-1.84,4.47h-1.74l-4.32-10.65h2.23l3.03,8.28,1.32-3.4-1.79-4.85Z"/><path class="cls-2" d="M72.61,18.28l4.2-10.65h1.68l4.18,10.65h-2.19l-.98-2.66h-3.73l-.98,2.66h-2.19Zm5.04-8.42l-1.53,4.3h3.01l-1.48-4.3Z"/><path class="cls-2" d="M83.81,18.28V7.63h4.71c.49,0,.94,.1,1.36,.31,.42,.21,.77,.48,1.07,.81,.3,.34,.54,.71,.71,1.14,.17,.42,.25,.85,.25,1.28,0,.69-.17,1.32-.52,1.88-.34,.57-.81,.97-1.4,1.22l2.5,4.01h-2.34l-2.24-3.57h-2.04v3.57h-2.07Zm2.07-5.38h2.6c.19,0,.37-.04,.53-.13,.17-.09,.31-.21,.43-.37,.12-.15,.21-.34,.28-.55,.07-.21,.11-.44,.11-.68s-.04-.48-.12-.69c-.08-.21-.19-.39-.32-.55s-.29-.28-.46-.36c-.18-.09-.35-.13-.53-.13h-2.5v3.45Z"/><path class="cls-2" d="M101.32,16.46v1.82h-7.39V7.63h7.26v1.81h-5.19v2.57h4.49v1.68h-4.49v2.77h5.33Z"/><path class="cls-2" d="M37.65,24.78c-.3-.34-.7-.62-1.21-.83-.5-.21-1.07-.31-1.7-.31-.95,0-1.64,.18-2.07,.53s-.64,.84-.64,1.45c0,.32,.06,.58,.17,.79s.29,.38,.54,.53,.55,.28,.93,.39c.38,.11,.82,.22,1.33,.33,.57,.12,1.08,.25,1.53,.4,.45,.14,.83,.33,1.15,.55s.57,.5,.74,.83c.17,.32,.25,.73,.25,1.21s-.09,.91-.29,1.28c-.19,.36-.46,.66-.79,.9s-.75,.42-1.21,.53c-.47,.12-.98,.17-1.53,.17-1.67,0-3.09-.51-4.27-1.54l.51-.85c.39,.41,.92,.76,1.58,1.04,.66,.29,1.39,.43,2.21,.43s1.51-.15,1.99-.46c.48-.3,.72-.77,.72-1.39,0-.33-.07-.61-.2-.83-.13-.22-.34-.42-.61-.58-.27-.17-.61-.31-1.01-.43-.4-.12-.87-.24-1.4-.36-.56-.13-1.05-.27-1.47-.41-.42-.14-.77-.31-1.06-.53-.29-.21-.5-.46-.64-.76-.15-.29-.22-.66-.22-1.09,0-.49,.09-.93,.28-1.31s.45-.71,.78-.96c.33-.25,.73-.45,1.2-.58,.46-.13,.98-.2,1.54-.2,.7,0,1.33,.11,1.88,.32,.55,.21,1.06,.52,1.51,.91l-.49,.84Z"/><path class="cls-2" d="M47.73,32.51v.93h-7.16v-10.65h7.02v.93h-5.99v3.84h5.22v.88h-5.22v4.06h6.12Z"/><path class="cls-2" d="M50.81,24.74v8.7h-1.04v-10.65h.81l7.05,8.87v-8.85h1.04v10.63h-.9l-6.96-8.7Z"/><path class="cls-2" d="M68.94,23.72h-3.79v9.72h-1.05v-9.72h-3.79v-.93h8.64v.93Z"/><path class="cls-2" d="M70.58,33.44v-10.65h4.49c.46,0,.88,.1,1.28,.29,.39,.2,.72,.45,1,.77,.28,.31,.5,.67,.65,1.07s.23,.8,.23,1.21-.06,.76-.17,1.12c-.11,.36-.28,.68-.49,.96s-.46,.53-.75,.72c-.29,.2-.62,.33-.97,.4l2.62,4.11h-1.19l-2.52-3.93h-3.15v3.93h-1.04Zm1.04-4.86h3.5c.31,0,.59-.07,.85-.2s.47-.32,.65-.55,.32-.49,.42-.78c.1-.29,.15-.6,.15-.92s-.06-.63-.17-.92-.27-.55-.46-.77c-.2-.22-.42-.39-.69-.53-.26-.13-.54-.19-.83-.19h-3.41v4.86Z"/><path class="cls-2" d="M79.98,22.79l3.5,5.73,3.51-5.73h1.14l-4.14,6.69v3.96h-1.03v-3.99l-4.11-6.66h1.14Z"/></g><g><path class="cls-1" d="M21.25,46.38c-.05-.05-.14-.12-.28-.21-.13-.09-.3-.17-.49-.26-.19-.08-.4-.15-.62-.21-.22-.06-.45-.09-.68-.09-.41,0-.72,.08-.92,.23-.2,.15-.3,.37-.3,.64,0,.16,.04,.29,.11,.39,.08,.11,.19,.2,.33,.28s.33,.15,.55,.22c.22,.06,.47,.13,.76,.21,.38,.1,.72,.21,1.03,.32,.31,.12,.57,.26,.78,.43,.21,.17,.38,.38,.49,.62,.12,.24,.17,.54,.17,.9,0,.41-.08,.76-.23,1.06-.16,.29-.36,.53-.62,.71-.26,.18-.56,.31-.91,.39-.35,.08-.71,.12-1.08,.12-.58,0-1.15-.09-1.71-.26-.56-.17-1.07-.42-1.52-.74l.66-1.29c.06,.06,.18,.15,.35,.25s.37,.21,.6,.31,.49,.19,.77,.27c.28,.07,.57,.11,.87,.11,.82,0,1.24-.26,1.24-.79,0-.17-.05-.32-.14-.43-.09-.12-.23-.22-.4-.3-.17-.09-.38-.17-.63-.24-.25-.07-.52-.15-.82-.23-.37-.1-.69-.21-.96-.33-.27-.12-.5-.26-.68-.42-.18-.16-.32-.35-.41-.56-.09-.22-.14-.47-.14-.77,0-.39,.07-.74,.22-1.04,.14-.3,.34-.56,.6-.76,.26-.2,.55-.36,.89-.46,.34-.1,.71-.16,1.1-.16,.54,0,1.04,.08,1.5,.25,.46,.17,.85,.37,1.19,.6l-.66,1.21Z"/><path class="cls-1" d="M26.57,50.8c.35,0,.65-.07,.89-.22s.44-.33,.59-.56c.15-.23,.25-.5,.31-.8,.06-.3,.09-.61,.09-.93v-3.93h1.49v3.93c0,.53-.06,1.02-.19,1.49-.13,.46-.33,.87-.6,1.21-.27,.35-.62,.62-1.05,.82s-.94,.3-1.53,.3-1.14-.11-1.57-.32c-.43-.21-.78-.5-1.05-.85-.27-.35-.46-.76-.58-1.22s-.18-.94-.18-1.44v-3.93h1.5v3.93c0,.33,.03,.64,.09,.94,.06,.3,.17,.56,.31,.8,.15,.23,.34,.42,.58,.56,.24,.14,.53,.21,.88,.21Z"/><path class="cls-1" d="M36.04,46.38c-.05-.05-.14-.12-.28-.21-.13-.09-.3-.17-.49-.26-.19-.08-.4-.15-.62-.21-.22-.06-.45-.09-.68-.09-.41,0-.72,.08-.92,.23-.2,.15-.3,.37-.3,.64,0,.16,.04,.29,.11,.39,.08,.11,.19,.2,.33,.28s.33,.15,.55,.22c.22,.06,.47,.13,.76,.21,.38,.1,.72,.21,1.03,.32,.31,.12,.57,.26,.78,.43,.21,.17,.38,.38,.49,.62,.12,.24,.17,.54,.17,.9,0,.41-.08,.76-.23,1.06-.16,.29-.36,.53-.62,.71-.26,.18-.56,.31-.91,.39-.35,.08-.71,.12-1.08,.12-.58,0-1.15-.09-1.71-.26-.56-.17-1.07-.42-1.52-.74l.66-1.29c.06,.06,.18,.15,.35,.25s.37,.21,.6,.31,.49,.19,.77,.27c.28,.07,.57,.11,.87,.11,.82,0,1.24-.26,1.24-.79,0-.17-.05-.32-.14-.43-.09-.12-.23-.22-.4-.3-.17-.09-.38-.17-.63-.24-.25-.07-.52-.15-.82-.23-.37-.1-.69-.21-.96-.33-.27-.12-.5-.26-.68-.42-.18-.16-.32-.35-.41-.56-.09-.22-.14-.47-.14-.77,0-.39,.07-.74,.22-1.04,.14-.3,.34-.56,.6-.76,.26-.2,.55-.36,.89-.46,.34-.1,.71-.16,1.1-.16,.54,0,1.04,.08,1.5,.25,.46,.17,.85,.37,1.19,.6l-.66,1.21Z"/><path class="cls-1" d="M43.82,45.68h-2.45v6.39h-1.5v-6.39h-2.46v-1.31h6.41v1.31Z"/><path class="cls-1" d="M43.29,52.07l3.04-7.7h1.21l3.03,7.7h-1.58l-.7-1.92h-2.7l-.7,1.92h-1.58Zm3.64-6.08l-1.11,3.11h2.18l-1.07-3.11Z"/><path class="cls-1" d="M51.39,52.07v-7.69h1.5v7.69h-1.5Z"/><path class="cls-1" d="M55.99,47.13v4.94h-1.5v-7.7h1.16l4.01,5.05v-5.04h1.5v7.69h-1.21l-3.96-4.94Z"/><path class="cls-1" d="M61.99,52.07l3.04-7.7h1.21l3.03,7.7h-1.58l-.7-1.92h-2.7l-.7,1.92h-1.58Zm3.64-6.08l-1.11,3.11h2.18l-1.07-3.11Z"/><path class="cls-1" d="M76.29,50.08c0,.32-.07,.61-.2,.86s-.31,.45-.54,.62c-.23,.17-.49,.29-.79,.38-.3,.09-.62,.13-.96,.13h-3.72v-7.7h4.12c.27,0,.51,.06,.73,.17s.4,.27,.55,.45c.15,.18,.27,.39,.35,.63,.08,.23,.12,.47,.12,.71,0,.38-.09,.73-.28,1.06-.19,.33-.46,.57-.82,.73,.44,.13,.79,.36,1.05,.7,.26,.34,.38,.76,.38,1.26Zm-4.71-4.44v1.94h2c.25,0,.47-.09,.64-.26,.18-.17,.27-.41,.27-.71s-.08-.53-.24-.71c-.16-.17-.36-.26-.6-.26h-2.06Zm3.2,4.15c0-.14-.02-.27-.07-.39-.05-.13-.11-.24-.19-.33-.08-.09-.17-.17-.28-.22-.11-.05-.23-.08-.36-.08h-2.3v2.03h2.22c.14,0,.27-.03,.38-.08s.22-.12,.31-.21c.09-.09,.16-.2,.21-.32,.05-.12,.08-.25,.08-.39Z"/><path class="cls-1" d="M77.46,52.07v-7.7h1.5v6.39h3.93v1.31h-5.42Z"/><path class="cls-1" d="M89.2,50.75v1.31h-5.35v-7.7h5.25v1.31h-3.75v1.86h3.24v1.21h-3.24v2.01h3.85Z"/><path class="cls-1" d="M92.99,52.07v-7.69h1.5v7.69h-1.5Z"/><path class="cls-1" d="M101.85,45.68h-2.45v6.39h-1.5v-6.39h-2.46v-1.31h6.41v1.31Z"/></g><rect class="cls-1" x="15.86" y="38.32" width="86" height="2.3"/></svg>