<svg data-name="Layer 1" xmlns="http://www.w3.org/2000/svg" viewBox="0 0 800 174.23"><path d="M208.75 5.17a5.54 5.54 0 00-.1-1c0-.1-.05-.19-.08-.29s-.13-.45-.21-.67l-.15-.32a4.37 4.37 0 00-.32-.55c-.07-.11-.14-.22-.22-.33l-.14-.19c-.08-.09-.17-.16-.25-.24l-.2-.24-.16-.11a5.07 5.07 0 00-.46-.35l-.39-.25a5.05 5.05 0 00-.53-.24l-.42-.17c-.19-.06-.39-.09-.58-.13l-.43-.09a5.58 5.58 0 00-.71 0h-.4c-2.68.24-38.09 3.62-77.89 21.37-23.9 10.63-42.4 26.95-54.04 46.76l-3 1.3C25.46 88.45 0 125.42 0 168.33v.72a5.19 5.19 0 003 4.7 5.28 5.28 0 002.19.48h141.45a4.54 4.54 0 00.82-.07l.36-.09c.17-.05.34-.08.51-.14s.25-.12.38-.18.3-.12.44-.2a5.63 5.63 0 00.75-.53l57-48.06a5.16 5.16 0 001.84-4V5.17zm-51.54 148.11l-5.47 4.61V55.64l46.64-39.31v102.25zm-93.12-27.11h77.28v37.69h-122zm65.23-95.32a267.23 267.23 0 0156.81-17.77l-41.69 35.15A264.47 264.47 0 0088 61.52c10.32-12.6 24.24-23.05 41.32-30.67zM78.09 76.43a267.64 267.64 0 0163.28-17.35v56.72H67.49a91.66 91.66 0 0110.6-39.37zm-14.23 6.62A102.7 102.7 0 0057 118.56l-46 38.82c3.48-31.54 22.21-57.92 52.86-74.33z" fill-rule="evenodd" fill="#3c72ff"/><path d="M248.54 144.42V27h48.6q18.84 0 30.29 9.77t11.44 28.79a38.16 38.16 0 01-18.66 33.8l25.17 45.08h-33.45l-19.89-40H279v40zM279 80h15.14a13.71 13.71 0 0010-3.79 13.52 13.52 0 003.88-10.12q0-6.69-3.7-10.57T294 51.63h-15zm70.26 23a45.54 45.54 0 015.54-22.36 41.48 41.48 0 0115.59-15.93 44.66 44.66 0 0123.06-5.9q13.21 0 23.16 5.9a41.64 41.64 0 0115.49 15.97 45.44 45.44 0 015.55 22.32 45.41 45.41 0 01-5.55 22.36 41.67 41.67 0 01-15.49 15.94q-10 5.9-23.16 5.9a44.66 44.66 0 01-23.06-5.9 41.5 41.5 0 01-15.59-15.9 45.51 45.51 0 01-5.54-22.4zm44.19 18.14a14.67 14.67 0 0011.8-5.2 19.33 19.33 0 004.4-12.94 19.35 19.35 0 00-4.4-12.94 16 16 0 00-23.59 0 19.3 19.3 0 00-4.41 12.94 19.28 19.28 0 004.41 13 14.64 14.64 0 0011.79 5.18zm57.93 23.24h29.76V27h-29.76zm47 0h29.76V27h-29.75zm47-3.88V27h29.76v41.36a21.15 21.15 0 017.13-5.29 35.18 35.18 0 017.73-2.46 33.35 33.35 0 016-.7q11.61 0 19.63 5.8a36.73 36.73 0 0112.15 15.23 49.75 49.75 0 014.13 20.17q0 21.83-12.67 34t-37.33 12.15a91.85 91.85 0 01-20.16-2.2 149.26 149.26 0 01-16.35-4.52zm29.76-39.26v19.9a32.17 32.17 0 004.49 1.23 29.49 29.49 0 005.9.53 15.35 15.35 0 0011.81-4.9q4.59-4.94 4.58-15.67a24.71 24.71 0 00-1.32-7.84 15.63 15.63 0 00-4.14-6.6 10.35 10.35 0 00-7.39-2.64q-7.4 0-10.65 4.58a19.17 19.17 0 00-3.26 11.45zm118.32 43.14l-1.06-7.75a32.82 32.82 0 01-11.33 8.37 38.49 38.49 0 01-14.18 2.29 34.31 34.31 0 01-11.44-2.12 22.12 22.12 0 01-10.22-7.57q-4.23-5.5-4.23-15.36 0-10 5.46-16.73A33.64 33.64 0 01661 95.38 55 55 0 01680.62 92q4.05 0 6.52.18c1.64.11 3.4.29 5.28.53v-1.64q0-4.39-2.2-6.6a11.34 11.34 0 00-5.37-3 25.27 25.27 0 00-6.16-.79 43.58 43.58 0 00-13.82 2 37 37 0 00-9.77 4.66l-11.27-17.05q5.28-4.22 14.87-7.74T682.91 59q17.26 0 27.91 8.9t10.65 26.49v50zm-1.06-30.29v-5.45a36.86 36.86 0 00-8.1-.71q-7.4 0-10.91 2.91a8.73 8.73 0 00-3.52 7q0 9.17 9.86 9.16a15.15 15.15 0 008.62-2.73q4.07-2.74 4.07-10.14zm46 30.29V61.66h28.7l1 10.39a32.93 32.93 0 018.72-8.36 22.31 22.31 0 0112.59-3.43 44.36 44.36 0 016.07.35 22.32 22.32 0 014.49 1L796.13 87a35.72 35.72 0 00-8.63-1q-19.37 0-19.37 21.31v37.15z" fill="#fff" fill-rule="evenodd"/></svg>