<svg xmlns="http://www.w3.org/2000/svg" viewBox="0 0 864 199.9"><defs><style>.cls-1{fill:#fff;}</style></defs><title>Asset 8</title><g id="Layer_2" data-name="Layer 2"><g id="Logo"><path class="cls-1" d="M113,9.18l37.42,7.46,5.32-5.7a34.43,34.43,0,0,1,48.65-1.69l2,1.85a34.47,34.47,0,0,1,1.87,48.45l-6.85,6.36.85,3a86.83,86.83,0,0,1,15.18,2.83,12.23,12.23,0,0,1,8.53,12.37l-2.39,17.47-3.6,1.93-3.2,10.7c-3.08,10.71-6.13,18-12.5,23.62l-9.77,35.28L141,199.9H84.94L31.48,173.15l-9.77-35.28c-6.37-5.66-9.43-12.91-12.5-23.62L6,103.55l-3.6-1.93L0,84.15A12.25,12.25,0,0,1,8.55,71.78,86.6,86.6,0,0,1,23.72,69l.85-3-6.84-6.36A34.46,34.46,0,0,1,19.6,11.1l2-1.85a34.44,34.44,0,0,1,48.66,1.69l5.32,5.7Z"/><path d="M115.28,156.91c5.6-.49,19.32-2.62,18.11-11-.44-2.68-2.45-8.57-20.42-4.73-18-3.84-20,2.05-20.42,4.73-1.21,8.35,12.42,10.48,18,11v7.72h-18l1.67,6H131.6l1.67-6h-18Z"/><path d="M113,18.82,72.24,26.94l-8.89-9.53A25,25,0,0,0,28,16.18L26,18A25,25,0,0,0,24.76,53.4L35.15,63,31,77.76c-13.37,1-19.63,3-19.73,3.06a2.87,2.87,0,0,0-1.89,3L11,95.66l.71.38c2.27,1.2,2.85,3,5.93,13.8l.55,1.9c3.35,11.7,6.16,16.82,11.71,20.81l9.46,34.18,47.51,24H139l47.52-24L196,132.55c5.56-4,8.36-9.11,11.72-20.81l.55-1.9c3.08-10.78,3.66-12.6,5.93-13.8l.71-.38,1.65-11.84a2.88,2.88,0,0,0-1.9-3c-.09,0-6.35-2.09-19.73-3.06L190.79,63l10.4-9.56A25,25,0,0,0,200,18l-2-1.85a25,25,0,0,0-35.38,1.23l-8.9,9.53L113,18.82m0,10.85,59.15,13,11.39,34.65c-1.28,0-2.6,0-3.95,0l-1.41,0a203.59,203.59,0,0,0-25.66,1.81q-7.14.95-14.23,2.39c-3.84.83-6.92,1.6-9.64,2.28-6,1.49-10,2.48-15.58,2.5h-.14c-5.6,0-9.57-1-15.58-2.5-2.72-.68-5.79-1.45-9.64-2.28Q80.6,80,73.45,79.1A203.3,203.3,0,0,0,47.8,77.29l-1.41,0c-1.35,0-2.67,0-4,0L53.82,42.66l59.15-13ZM35.48,127.12a19.17,19.17,0,0,1-5.89-7,31.49,31.49,0,0,1-2.94-10.05c-1.81-13.1.08-17.51,1.38-19A11.33,11.33,0,0,1,32.32,88a32.58,32.58,0,0,1,9.36-2.1,104.11,104.11,0,0,1,10.91-.49c3.38,0,7.21.11,11.31.31.13,0,13.73,1.23,21.57,3.94,3.85,1.33,9.09,3.49,10.18,6.94s.26,12.12-1.7,16.73A36.79,36.79,0,0,1,82.79,126.9c-2.61,1.77-9.94,5.88-21.66,5.88h-.27c-8.92-.05-16.06-1.19-21.24-3.39A22,22,0,0,1,35.48,127.12Zm143.63,33.49-42.17,21.31H89L46.83,160.61l-6.51-23.56a85.3,85.3,0,0,0,19.86,2.3,78.43,78.43,0,0,0,9.26-.52c16.87-2,25.31-12.58,26.83-14.68,3.35-4.64,7.13-12.89,10.38-20.35,1.15-2.63,5.72-2.75,6.32-2.75h0c.6,0,5.17.12,6.32,2.75,3.25,7.46,7,15.71,10.38,20.35,1.52,2.1,10,12.69,26.82,14.68a78.68,78.68,0,0,0,9.26.52,85.23,85.23,0,0,0,19.86-2.3Zm20.19-50.54a31.74,31.74,0,0,1-2.94,10.05,19.17,19.17,0,0,1-5.89,7,22,22,0,0,1-4.14,2.27c-5.18,2.2-12.33,3.34-21.24,3.39h-.28c-11.71,0-19-4.11-21.65-5.88A36.79,36.79,0,0,1,132,113.37c-2-4.61-2.84-13.21-1.71-16.73s6.34-5.61,10.19-6.94c7.83-2.71,21.43-3.92,21.57-3.94,4.1-.2,7.92-.31,11.31-.31a104.11,104.11,0,0,1,10.91.49,32.75,32.75,0,0,1,9.36,2.1,11.42,11.42,0,0,1,4.29,3.06C199.21,92.56,201.11,97,199.3,110.07Z"/><path d="M344.48,115.44a24.51,24.51,0,0,0-10.57-7.68,23.49,23.49,0,0,0,7-7.08,24.42,24.42,0,0,0,3.6-13.36c0-7.95-3.12-14.26-9.26-18.77s-14.59-6.64-25.47-6.64H266.66v95.8h45.77c11.85,0,21-2.28,27.32-6.77s9.67-11.22,9.67-19.71C349.42,124.92,347.76,119.61,344.48,115.44ZM282.63,75.35h25.94c6.53,0,11.58,1.19,15,3.56s4.94,5.56,4.94,10-1.62,7.73-4.94,10-8.49,3.56-15,3.56H282.63Zm45.57,65.41c-3.57,2.33-9.06,3.51-16.3,3.51H282.63V115.93H311.9c14.41,0,21.42,4.66,21.42,14.24C333.32,135.06,331.65,138.52,328.2,140.76Z"/><path d="M450.35,84.53v8.69A29.31,29.31,0,0,0,441,86.9a38.72,38.72,0,0,0-15.35-3,40.58,40.58,0,0,0-18.91,4.41,33.06,33.06,0,0,0-13.37,12.54,37.5,37.5,0,0,0,0,36.89,33.6,33.6,0,0,0,13.36,12.61,40,40,0,0,0,18.92,4.47A38.64,38.64,0,0,0,440.42,152a29.85,29.85,0,0,0,9.27-6v2.2c0,7.58-1.86,13.26-5.53,16.88s-9.51,5.48-17.36,5.48a45.1,45.1,0,0,1-14.54-2.4,35,35,0,0,1-11.73-6.46l-1.18-1-7.53,12.11.83.75a39.13,39.13,0,0,0,15.14,8.07,67.12,67.12,0,0,0,19.41,2.78c12.45,0,22-3.1,28.34-9.22s9.58-15.65,9.58-28.3V84.53Zm-3.33,46a20.46,20.46,0,0,1-8.13,7.68h0A25,25,0,0,1,427.07,141a25.23,25.23,0,0,1-11.95-2.78,20.4,20.4,0,0,1-8.13-7.68,21.65,21.65,0,0,1-2.94-11.23c0-6.51,2.08-11.61,6.36-15.6s9.86-6,16.66-6,12.27,2,16.52,6,6.37,9.09,6.37,15.6A21.65,21.65,0,0,1,447,130.49Z"/><path d="M548,70.87c-7.13-6-17-9-29.33-9H481v95.8h16V129.5h21.69c12.33,0,22.2-3,29.33-9s10.86-14.37,10.86-24.85S555.15,76.87,548,70.87Zm-11.27,39.3c-4.17,3.38-10.38,5.1-18.46,5.1H496.93V76.15h21.29c8.08,0,14.29,1.71,18.46,5.09s6.16,8.09,6.16,14.46S540.82,106.82,536.68,110.17Z"/><path d="M697,92c-5.51-5.42-13-8.17-22.29-8.17a38,38,0,0,0-15.51,3,26.8,26.8,0,0,0-8.57,5.91V84.53H635.7v73.18h15.43V120.06c0-7.15,1.89-12.67,5.6-16.43S665.64,98,672.15,98c5.72,0,10.14,1.6,13.14,4.77s4.56,8.08,4.56,14.52v40.45h15.44V115.8c0-10.35-2.8-18.35-8.32-23.77Z"/><path d="M775,92.93a28.47,28.47,0,0,0-8.77-6.09,35.2,35.2,0,0,0-14.51-3,38.53,38.53,0,0,0-19,4.7,34,34,0,0,0-13.21,13.14,39,39,0,0,0-4.77,19.42,39.31,39.31,0,0,0,4.77,19.48,33.85,33.85,0,0,0,13.21,13.22,38.6,38.6,0,0,0,19,4.69,34.77,34.77,0,0,0,14.93-3.19,29,29,0,0,0,8.88-6.42v8.81h14.91V52.89L775,60.81Zm-2.77,40.53a20.72,20.72,0,0,1-8,8.26h0a23.81,23.81,0,0,1-23,0,21.34,21.34,0,0,1-8-8.27,27.16,27.16,0,0,1,0-24.66,20.93,20.93,0,0,1,8-8.2,24.29,24.29,0,0,1,23,0,20.33,20.33,0,0,1,8,8.19,27.7,27.7,0,0,1,0,24.68Z"/><path d="M616.23,91.4c-5.42-5-12.85-7.54-23.33-7.54-15.81,0-26,6.7-26,6.7l6.87,11.75s6.77-4.71,18.59-4.71c4.88,0,9.35,1.33,12.28,4s4.36,6.57,4.36,11.66v1.2h-18.9c-10.12,0-17.66,2-22.41,6a21,21,0,0,0,.35,32.06c5,4,11.63,6,19.8,6a36.18,36.18,0,0,0,14.57-2.71,22.54,22.54,0,0,0,7.25-4.94v6.85h14.77V113.8C624.44,104,621.68,96.43,616.23,91.4ZM609,134.56a17.46,17.46,0,0,1-7.09,8.38A22.56,22.56,0,0,1,590,146c-4.57,0-8.15-.94-10.65-2.8a8.52,8.52,0,0,1-3.59-7.31c0-2.37,0-9.58,14.9-9.58H609Z"/><path d="M855.79,91.4c-5.42-5-12.85-7.54-23.32-7.54-15.82,0-26,6.7-26,6.7l6.87,11.75s6.77-4.71,18.59-4.71c4.88,0,9.35,1.33,12.28,4s4.36,6.57,4.36,11.66v1.2h-18.9c-10.12,0-17.66,2-22.41,6a21,21,0,0,0,.35,32.06c5,4,11.63,6,19.8,6A36.18,36.18,0,0,0,842,155.8a22.54,22.54,0,0,0,7.25-4.94v6.85H864V113.8C864,104,861.24,96.43,855.79,91.4Zm-7.22,43.16a17.46,17.46,0,0,1-7.09,8.38A22.56,22.56,0,0,1,829.54,146c-4.57,0-8.15-.94-10.65-2.8a8.52,8.52,0,0,1-3.59-7.31c0-2.37,0-9.58,14.9-9.58h18.37Z"/><polygon points="376.43 157.71 361 157.71 361 93.3 376.43 84.91 376.43 157.71"/><path d="M368.71,79.47a9.82,9.82,0,0,1-7.11-2.77h0a9.19,9.19,0,0,1-2.87-6.81A9.4,9.4,0,0,1,361.58,63a9.75,9.75,0,0,1,7.13-2.85,10,10,0,0,1,7.1,2.69,9,9,0,0,1,2.88,6.75,9.57,9.57,0,0,1-2.85,7A9.72,9.72,0,0,1,368.71,79.47Z"/></g></g></svg>