<?xml version="1.0" encoding="UTF-8" standalone="no"?>
<!-- Generator: Adobe Illustrator 23.1.1, SVG Export Plug-In . SVG Version: 6.00 Build 0)  -->
<svg xmlns:dc="http://purl.org/dc/elements/1.1/" xmlns:cc="http://creativecommons.org/ns#" xmlns:rdf="http://www.w3.org/1999/02/22-rdf-syntax-ns#" xmlns="http://www.w3.org/2000/svg" xmlns:sodipodi="http://sodipodi.sourceforge.net/DTD/sodipodi-0.dtd" xmlns:inkscape="http://www.inkscape.org/namespaces/inkscape" version="1.1" id="Layer_1" x="0px" y="0px" viewBox="0 0 624.49236 146.82999" xml:space="preserve" sodipodi:docname="NERD.VISIONlandscape5.svg" width="624.49237" height="146.83" inkscape:version="0.92.4 (f8dce91, 2019-08-02)"><metadata id="metadata39"><rdf:RDF><cc:Work rdf:about=""><dc:format>image/svg+xml</dc:format><dc:type rdf:resource="http://purl.org/dc/dcmitype/StillImage"/><dc:title/></cc:Work></rdf:RDF></metadata>
    <defs id="defs37"/>
    <sodipodi:namedview pagecolor="#1f222f" bordercolor="#666666" borderopacity="1" objecttolerance="10" gridtolerance="10" guidetolerance="10" inkscape:pageopacity="0" inkscape:pageshadow="2" inkscape:window-width="640" inkscape:window-height="480" id="namedview35" showgrid="false" inkscape:zoom="0.35871669" inkscape:cx="312.48739" inkscape:cy="49.139985" inkscape:window-x="0" inkscape:window-y="0" inkscape:window-maximized="0" inkscape:current-layer="Layer_1"/>
    <style type="text/css" id="style2">
	.st0 {
        fill: #1f222f;
    }
</style>
    <g id="g32" style="fill:#1f222f" transform="translate(-108.45761,-199.95)">
	<g id="g26" style="fill:#1f222f">
		<path class="st0" d="m 332.18,308.48 c 0,-5.52 -2.76,-8.9 -8.36,-8.9 -5.68,0 -8.9,2.99 -9.05,8.44 v 28.08 c 0,4.07 -2.84,6.06 -6.14,6.06 -3.3,0 -6.14,-2 -6.14,-6.06 v -42.27 c 0,-3.53 2.53,-5.6 5.75,-5.6 2.92,0 4.37,1.99 4.99,4.68 2.76,-3.22 7.06,-5.45 12.5,-5.45 11.89,0 18.8,7.75 18.8,21.4 v 27.31 c 0,3.91 -2.92,5.98 -6.22,5.98 -3.3,0 -6.14,-2.07 -6.14,-5.98 v -27.69 z" id="path4" style="fill:#1f222f" inkscape:connector-curvature="0"/>
        <path class="st0" d="m 368.93,319.38 c -3.91,0 -7.83,0.77 -7.83,5.45 0,4.99 4.68,6.14 8.9,6.14 2.38,0 4.76,-0.46 6.98,-1.69 2.53,-1.38 4.45,-2.92 7.44,-2.92 2.92,0 5.06,2.15 5.06,5.6 0,8.44 -11.58,11.05 -19.1,11.05 -9.82,0 -21.56,-3.07 -21.56,-15.5 0,-6.06 3.38,-11.74 9.59,-13.12 -5.98,-1.84 -8.67,-6.21 -8.67,-12.27 0,-11.58 11.2,-14.65 20.64,-14.65 6.83,0 18.95,2.38 18.95,10.59 0,3.38 -1.99,5.52 -5.37,5.52 -4.76,0 -6.9,-4.45 -15.04,-4.45 -3.07,0 -7.6,1.61 -7.6,5.91 0,4.6 3.53,5.37 7.44,5.37 h 1.69 c 2.69,0 5.22,0.92 5.22,4.45 0,3.6 -2.45,4.53 -5.22,4.53 h -1.52 z" id="path6" style="fill:#1f222f" inkscape:connector-curvature="0"/>
        <path class="st0" d="m 435.75,336.03 c 0,3.84 -2.76,6.06 -6.14,6.06 -3.22,0 -6.14,-1.99 -6.14,-6.06 v -9.21 c 0,-6.6 -3.15,-7.36 -6.6,-7.36 h -2.38 c -2.38,0 -4.3,-1.07 -4.3,-4.84 0,-3.6 1.99,-4.37 4.3,-4.37 h 2.45 c 3.45,0 6.6,-0.61 6.6,-5.22 0,-4.53 -3.84,-6.22 -8.67,-6.22 -6.75,0 -8.82,1.38 -8.82,5.14 v 32.07 c 0,3.84 -2.76,6.06 -6.14,6.06 -3.22,0 -6.14,-1.99 -6.14,-6.06 v -36.21 c 0,-9.36 6.67,-12.35 20.48,-12.35 10.43,0 20.56,3.07 20.56,15.27 0,5.45 -2.61,9.82 -8.59,11.66 6.14,1.38 9.51,5.68 9.51,12.43 v 9.21 z" id="path8" style="fill:#1f222f" inkscape:connector-curvature="0"/>
        <path class="st0" d="m 441.65,299.74 c 0,-9.28 6.75,-12.27 21.02,-12.27 16.03,0 26.55,10.05 26.55,27.31 0,17.34 -10.51,28.23 -26.55,28.23 -10.97,0 -21.02,-2.15 -21.02,-11.58 z m 12.28,25.93 c 0,3.38 2.76,4.68 8.52,4.68 8.51,0 14.35,-6.29 14.35,-15.57 0,-9.13 -5.75,-15.04 -14.27,-15.04 -6.83,0 -8.59,1.23 -8.59,4.83 v 21.1 z" id="path10" style="fill:#1f222f" inkscape:connector-curvature="0"/>
        <path class="st0" d="m 490.06,335.87 c 0,-3.6 2.53,-6.29 6.22,-6.29 3.69,0 6.21,2.69 6.21,6.29 0,3.61 -2.53,6.29 -6.21,6.29 -3.68,0 -6.22,-2.68 -6.22,-6.29 z" id="path12" style="fill:#1f222f" inkscape:connector-curvature="0"/>
        <path class="st0" d="m 535.02,296.9 c 1.46,-5.52 2.61,-8.67 6.98,-8.67 4.53,0 6.06,3.22 6.06,6.68 0,3.84 -2.38,12.12 -5.75,20.41 -4.14,10.2 -10.59,26.77 -18.72,26.77 -8.06,0 -14.73,-16.49 -18.8,-26.77 -3.15,-7.98 -5.68,-15.8 -5.68,-20.41 0,-3.3 1.46,-6.68 6.06,-6.68 4.37,0 5.75,3.15 6.98,8.67 2.3,10.59 6.9,23.63 11.35,29.69 4.38,-6.06 8.99,-18.79 11.52,-29.69 z" id="path14" style="fill:#1f222f" inkscape:connector-curvature="0"/>
        <path class="st0" d="m 552.43,294.29 c 0,-3.84 2.76,-6.06 6.14,-6.06 3.22,0 6.06,2.22 6.06,6.06 v 41.73 c 0,4.07 -2.84,6.14 -6.06,6.14 -3.38,0 -6.14,-2.07 -6.14,-6.14 z" id="path16" style="fill:#1f222f" inkscape:connector-curvature="0"/>
        <path class="st0" d="m 589.48,343.01 c -6.98,0 -19.56,-2.3 -19.56,-10.89 0,-3.3 2.38,-5.68 5.68,-5.68 3.91,0 8.67,4.75 15.19,4.75 3.45,0 7.83,-1.53 7.83,-5.68 0,-5.14 -7.44,-5.29 -11.35,-5.98 -9.51,-1.53 -16.73,-5.45 -16.73,-16.42 0,-12.12 10.51,-15.65 20.48,-15.65 6.37,0 18.64,1.69 18.64,10.13 0,3.38 -1.92,6.06 -5.45,6.06 -3.99,0 -6.44,-4.99 -14.58,-4.99 -3.3,0 -7.52,1.38 -7.52,5.37 0,5.37 7.9,5.45 12.51,6.22 3.76,0.69 8.29,2.07 11.35,4.75 2.84,2.45 4.22,6.37 4.22,10.51 0.01,13.43 -10.89,17.5 -20.71,17.5 z" id="path18" style="fill:#1f222f" inkscape:connector-curvature="0"/>
        <path class="st0" d="m 615.87,294.29 c 0,-3.84 2.76,-6.06 6.14,-6.06 3.22,0 6.06,2.22 6.06,6.06 v 41.73 c 0,4.07 -2.84,6.14 -6.06,6.14 -3.38,0 -6.14,-2.07 -6.14,-6.14 z" id="path20" style="fill:#1f222f" inkscape:connector-curvature="0"/>
        <path class="st0" d="m 633.9,314.77 c 0,-17.26 10.28,-27.31 25.86,-27.31 15.65,0 25.93,10.05 25.93,27.31 0,17.34 -10.28,28.23 -25.93,28.23 -15.58,0.01 -25.86,-10.88 -25.86,-28.23 z m 40.05,0 c 0,-9.13 -5.68,-15.19 -14.19,-15.19 -8.44,0 -14.04,6.06 -14.04,15.19 0,9.21 5.6,15.35 14.04,15.35 8.51,0 14.19,-6.14 14.19,-15.35 z" id="path22" style="fill:#1f222f" inkscape:connector-curvature="0"/>
        <path class="st0" d="m 720.59,308.48 c 0,-5.52 -2.76,-8.9 -8.36,-8.9 -5.68,0 -8.9,2.99 -9.05,8.44 v 28.08 c 0,4.07 -2.84,6.06 -6.14,6.06 -3.3,0 -6.14,-2 -6.14,-6.06 v -42.27 c 0,-3.53 2.53,-5.6 5.75,-5.6 2.92,0 4.37,1.99 4.99,4.68 2.76,-3.22 7.06,-5.45 12.51,-5.45 11.89,0 18.8,7.75 18.8,21.4 v 27.31 c 0,3.91 -2.91,5.98 -6.21,5.98 -3.3,0 -6.14,-2.07 -6.14,-5.98 v -27.69 z" id="path24" style="fill:#1f222f" inkscape:connector-curvature="0"/>
	</g>
        <g id="g30" style="fill:#1f222f">
		<path class="st0" d="m 302.35,251.6 c 0,0 -43.82,-1.5 -33.26,-3.1 0,0 45.38,-26.86 44.32,-26.36 l -73.28,11.21 c 0,0 46.52,-24.3 43.44,-24.3 l -99.89,17.42 c 0,0 6.54,-10.33 8.27,-17.42 1.72,-7.08 0,-9.1 0,-9.1 0,0 -70.95,39.61 -78.87,43.74 -7.92,4.13 -4.12,13.66 0,34.79 3.85,19.75 18.25,47.87 18.25,47.87 l 0.49,-6.23 c 1.13,0.01 2.61,0.21 3.05,0.73 0.27,0.35 0.77,2.26 1.16,3.8 0.31,1.18 0.65,2.52 1.04,3.84 0.32,1.27 0.79,2.58 1.41,3.96 0.58,1.37 1.22,2.53 1.92,3.46 l 0.08,0.1 c 4.53,6.75 12.05,10.77 20.18,10.77 9.5,0 18.18,-5.59 22.06,-14.16 l 0.08,-0.13 c 1.05,-1.78 2.07,-5.27 2.89,-8.08 0.46,-1.58 0.98,-3.38 1.23,-3.78 0.41,-0.67 1.54,-0.88 1.84,-0.9 0.01,0 1.45,0.11 1.94,0.9 0.25,0.4 0.77,2.19 1.23,3.77 0.82,2.81 1.83,6.29 2.88,8.06 l 0.05,0.08 c 3.94,8.64 12.61,14.22 22.1,14.22 7.21,0 13.95,-3.17 18.54,-8.61 v 0.02 l 0.12,-0.16 c 0.55,-0.66 1.08,-1.36 1.56,-2.1 l 0.02,-0.02 c 0.69,-0.93 1.31,-2.06 1.9,-3.44 0.58,-1.29 1.05,-2.63 1.39,-3.95 0.42,-1.43 0.78,-2.84 1.09,-4.08 0.36,-1.45 0.82,-3.26 1.07,-3.59 0.51,-0.6 2.35,-0.79 3.45,-0.73 h 0.06 l 0.18,2.77 c 10.64,0.34 20.7,-42.36 20.7,-42.36 l -11.71,6.54 c 5.49,-13.06 47.02,-35.45 47.02,-35.45 z m -141.7,51.68 c 10.6,0 19.22,8.62 19.22,19.22 0,10.6 -8.62,19.22 -19.22,19.22 -10.6,0 -19.22,-8.62 -19.22,-19.22 0,-10.6 8.62,-19.22 19.22,-19.22 z m 56.3,0 c 10.6,0 19.22,8.62 19.22,19.22 0,10.6 -8.62,19.22 -19.22,19.22 -10.6,0 -19.22,-8.62 -19.22,-19.22 0,-10.6 8.62,-19.22 19.22,-19.22 z m -27.02,-35.49 c 34.85,0 53.33,13.43 53.33,13.43 l 1.03,9.64 1.35,21.36 c -1.34,-0.13 -4.9,-0.67 -6.68,-2.71 -1.78,-2.05 -5.12,-4.66 -6.92,-6.02 l -0.33,-0.27 c -0.21,-0.17 -0.32,-0.27 -0.74,-0.55 l -0.18,-0.13 c -0.13,-0.09 -0.25,-0.17 -0.37,-0.24 l 0.01,-0.01 c -4,-2.67 -8.66,-4.09 -13.48,-4.09 -6.5,0 -12.61,2.54 -17.17,7.12 -1.71,1.6 -3.23,3.33 -4.71,5 l -0.99,1.12 c -1.36,1.53 -2.11,1.41 -3.48,1.19 -1.05,-0.17 -2.55,-0.17 -3.61,0 -1.37,0.22 -2.12,0.34 -3.48,-1.19 l -0.99,-1.12 c -1.48,-1.67 -3,-3.4 -4.68,-4.98 -4.52,-4.54 -10.82,-7.14 -17.27,-7.14 -4.95,0 -9.9,1.5 -13.57,4.1 l 0.02,0.03 c -0.53,0.36 -1,0.73 -1.5,1.13 -2.21,1.66 -5.34,4.09 -7.03,6.03 -1.53,1.76 -4.42,2.4 -6.07,2.63 l 2.67,-34.03 c 0.02,0.03 20,-10.3 54.84,-10.3 z" id="path28" style="fill:#1f222f" inkscape:connector-curvature="0"/>
	</g>
</g>
</svg>
