<svg width="221" height="53" viewBox="0 0 221 53" fill="none" xmlns="http://www.w3.org/2000/svg">
<g clip-path="url(#clip0_237_2096)">
<path d="M182.1 21.4992C180.6 19.5992 178.5 18.6992 175.7 18.6992C172.8 18.6992 170.5 19.8992 168.9 22.3992H168.8V19.1992H162.3V48.9992C162.4 50.0992 163.7 50.8992 165.5 50.8992C167.4 50.8992 168.7 50.0992 168.7 48.9992V48.8992V37.8992H168.8C170.1 39.8992 172.1 40.8992 174.6 40.8992C177.5 40.8992 179.8 39.7992 181.6 37.6992C183.3 35.5992 184.2 32.6992 184.2 29.1992C184.3 25.9992 183.6 23.3992 182.1 21.4992ZM165.6 49.7992C164.5 49.7992 163.6 49.3992 163.6 48.8992C163.6 48.3992 164.5 47.9992 165.6 47.9992C166.7 47.9992 167.6 48.3992 167.6 48.8992C167.6 49.3992 166.7 49.7992 165.6 49.7992ZM176.4 34.1992C175.6 35.3992 174.4 35.8992 172.9 35.8992C171.6 35.8992 170.6 35.3992 169.9 34.4992C169.1 33.5992 168.7 32.3992 168.7 30.8992V29.1992C168.7 27.4992 169.1 26.1992 170 25.1992C170.8 24.1992 171.9 23.6992 173.3 23.6992C176.2 23.6992 177.6 25.5992 177.6 29.2992C177.6 31.3992 177.2 32.9992 176.4 34.1992Z" fill="#221E1F"/>
<path d="M142.9 21.4992C141.4 19.5992 139.3 18.6992 136.5 18.6992C133.6 18.6992 131.3 19.8992 129.7 22.3992H129.6V19.1992H123.1V48.9992C123.2 50.0992 124.5 50.8992 126.3 50.8992C128.2 50.8992 129.5 50.0992 129.5 48.9992V37.9992H129.6C130.9 39.9992 132.9 40.9992 135.4 40.9992C138.3 40.9992 140.6 39.8992 142.4 37.7992C144.2 35.6992 145 32.7992 145 29.2992C145.1 25.9992 144.4 23.3992 142.9 21.4992ZM126.4 49.7992C125.3 49.7992 124.4 49.3992 124.4 48.8992C124.4 48.3992 125.3 47.9992 126.4 47.9992C127.5 47.9992 128.4 48.3992 128.4 48.8992C128.4 49.3992 127.5 49.7992 126.4 49.7992ZM137.2 34.1992C136.4 35.3992 135.2 35.8992 133.7 35.8992C132.4 35.8992 131.4 35.3992 130.7 34.4992C129.9 33.5992 129.5 32.3992 129.5 30.8992V29.1992C129.5 27.4992 129.9 26.1992 130.8 25.1992C131.6 24.1992 132.7 23.6992 134.1 23.6992C137 23.6992 138.4 25.5992 138.4 29.2992C138.4 31.3992 138 32.9992 137.2 34.1992Z" fill="#221E1F"/>
<path d="M152 16.4998C150.9 16.4998 150 16.1998 149.3 15.4998C148.6 14.7998 148.3 14.0998 148.3 13.0998C148.3 12.0998 148.6 11.2998 149.3 10.6998C150 10.0998 150.9 9.7998 152 9.7998C153.1 9.7998 154 10.0998 154.7 10.6998C155.4 11.2998 155.7 12.0998 155.7 13.0998C155.7 14.0998 155.4 14.8998 154.7 15.4998C154 16.1998 153.1 16.4998 152 16.4998Z" fill="#518FCC"/>
<path d="M155.1 33.5998C155.1 34.4998 155.3 35.1998 155.7 35.5998C156.1 36.0998 156.7 36.2998 157.4 36.2998C157.8 36.2998 158.1 36.2998 158.5 36.1998C158.8 36.0998 159.2 36.0998 159.6 35.9998V40.4998C158.8 40.6998 158 40.8998 157.1 40.9998C156.2 41.0998 155.3 41.1998 154.4 41.1998C153.5 41.1998 152.8 41.0998 152.1 40.7998C151.4 40.4998 150.8 40.0998 150.3 39.5998C149.8 39.0998 149.4 38.3998 149.1 37.6998C148.8 36.8998 148.7 36.0998 148.7 35.0998V19.7998H155.1V33.5998Z" fill="#221E1F"/>
<path d="M207 32.0996H193.4C193.6 35.0996 195.5 36.6996 199.1 36.6996C201.4 36.6996 203.4 36.1996 205.2 35.0996V39.7996C203.3 40.7996 200.8 41.3996 197.7 41.3996C194.3 41.3996 191.7 40.4996 189.8 38.5996C187.9 36.6996 187 34.0996 187 30.7996C187 27.2996 188 24.5996 190 22.5996C192 20.5996 194.5 19.5996 197.4 19.5996C200.5 19.5996 202.8 20.4996 204.5 22.2996C206.2 24.0996 207 26.5996 207 29.6996V32.0996ZM201 28.0996C201 25.0996 199.8 23.5996 197.4 23.5996C196.4 23.5996 195.5 23.9996 194.7 24.8996C193.9 25.7996 193.5 26.7996 193.3 28.0996H201Z" fill="#221E1F"/>
<path d="M212.5 18.9988H210.6V24.7988H209.8V18.9988H208V18.2988H212.5V18.9988Z" fill="#221E1F"/>
<path d="M220.2 24.7992H219.4V20.3992C219.4 20.0992 219.4 19.5992 219.5 19.0992C219.4 19.3992 219.4 19.5992 219.3 19.6992L217.1 24.6992H216.7L214.5 19.6992C214.4 19.5992 214.4 19.2992 214.3 18.9992C214.3 19.2992 214.3 19.6992 214.3 20.2992V24.6992H213.6V18.1992H214.6L216.6 22.6992C216.8 23.0992 216.9 23.2992 216.9 23.4992C217 23.0992 217.1 22.8992 217.2 22.6992L219.2 18.1992H220.2V24.7992Z" fill="#221E1F"/>
<path d="M73.3 40.7992H68.5L59 30.5992H58.9V40.8992H55.5V9.19922H58.9V29.2992H59L68 19.4992H72.5L62.6 29.7992L73.3 40.7992Z" fill="#221E1F"/>
<path d="M78.3001 13.9996C77.7001 13.9996 77.2001 13.7996 76.7001 13.3996C76.3001 12.9996 76.1001 12.4996 76.1001 11.7996C76.1001 11.1996 76.3001 10.5996 76.7001 10.1996C77.1001 9.79961 77.7001 9.59961 78.3001 9.59961C78.9001 9.59961 79.5001 9.79961 79.9001 10.1996C80.3001 10.5996 80.6001 11.1996 80.6001 11.7996C80.6001 12.3996 80.4001 12.8996 79.9001 13.3996C79.4001 13.7996 78.9001 13.9996 78.3001 13.9996Z" fill="#D1215C"/>
<path d="M80 34.8996C80 36.8996 80.8 37.7996 82.3 37.7996C82.9 37.7996 83.5 37.6996 83.9 37.5996V40.6996C83.6 40.7996 83.3 40.7996 82.8 40.8996C82.4 40.9996 81.9 40.9996 81.4 40.9996C80.7 40.9996 80.1 40.8996 79.5 40.6996C78.9 40.4996 78.4 40.0996 77.9 39.6996C77.5 39.1996 77.1 38.6996 76.9 37.9996C76.6 37.2996 76.5 36.4996 76.5 35.5996V19.5996H80V34.8996Z" fill="#221E1F"/>
<path d="M97.5 40.5992C96.7 41.0992 95.6 41.2992 94.3 41.2992C90.6 41.2992 88.7 39.1992 88.7 34.9992V22.3992H85V19.4992H88.7V14.2992L92.1 13.1992V19.4992H97.5V22.3992H92.1V34.3992C92.1 35.7992 92.3 36.8992 92.8 37.4992C93.3 38.0992 94.1 38.3992 95.2 38.3992C96.1 38.3992 96.8 38.1992 97.4 37.6992V40.5992H97.5Z" fill="#221E1F"/>
<path d="M119.3 30.9994H104.2C104.3 33.3994 104.9 35.1994 106.1 36.4994C107.3 37.7994 109 38.3994 111.2 38.3994C113.6 38.3994 115.8 37.5994 117.8 35.9994V39.1994C115.9 40.5994 113.4 41.1994 110.3 41.1994C107.3 41.1994 104.9 40.1994 103.2 38.2994C101.5 36.3994 100.6 33.5994 100.6 30.0994C100.6 26.7994 101.5 24.0994 103.4 21.9994C105.3 19.8994 107.6 18.8994 110.4 18.8994C113.2 18.8994 115.4 19.7994 116.9 21.5994C118.4 23.3994 119.2 25.8994 119.2 29.0994V30.9994H119.3ZM115.8 28.0994C115.8 26.0994 115.3 24.5994 114.4 23.4994C113.5 22.3994 112.2 21.8994 110.5 21.8994C108.9 21.8994 107.5 22.4994 106.4 23.5994C105.3 24.7994 104.6 26.2994 104.3 28.0994H115.8Z" fill="#221E1F"/>
<path d="M31.0002 22.6C24.7002 19.5 21.6002 19.2 21.6002 19.2C21.6002 19.2 17.4002 20.6 15.2002 21.6C15.2002 21.6 21.5002 13.8 33.8002 11C33.4002 14.4 32.3002 18.6 31.0002 22.6Z" fill="#A3CE3C"/>
<path d="M43.0002 31.8996L32.0002 25.0996L30.2002 27.4996C30.2002 27.4996 24.1002 38.3996 22.0002 40.8996C19.3002 44.0996 14.8002 48.4996 12.0002 49.4996C10.5002 49.9996 14.0002 49.1996 14.0002 49.1996C14.0002 49.1996 22.0002 49.5996 26.0002 48.1996C29.9002 46.7996 38.0002 41.9996 40.6002 39.1996C43.3002 36.3996 44.7002 33.6996 44.7002 33.6996L43.0002 31.8996Z" fill="#D1215C"/>
<path d="M37.8002 12.0996C40.0002 14.6996 43.8002 23.0996 43.0002 30.3996C41.7002 29.2996 38.8002 26.6996 34.2002 24.1996C35.7002 20.6996 37.1002 15.9996 37.8002 12.0996Z" fill="#518FCC"/>
<path d="M38.6 3.09961C28 3.59961 14.2 11.9996 8.5 17.7996C5.5 31.2996 15.3 44.0996 15.3 44.0996C11.7 30.9996 14.7 23.0996 14.6 22.9996C18.9 22.5996 24.3 23.3996 30 25.4996C27.6 31.6996 24.2 38.2996 18.4 44.7996L21.4 43.7996C21.4 43.7996 28.1 37.8996 33.1 26.7996C36.2 28.0996 38.9 29.6996 42.3 31.8996C37.5 40.2996 21.2 51.5996 0 46.6996L2 48.1996C20 54.9996 39.7 46.7996 48.8 32.7996C50.7 14.3996 38.7 3.09961 38.6 3.09961ZM31 22.5996C24.7 19.4996 21.6 19.1996 21.6 19.1996C21.6 19.1996 17.4 20.5996 15.2 21.5996C15.2 21.5996 21.5 13.7996 33.8 10.9996C33.4 14.3996 32.3 18.5996 31 22.5996ZM37.8 12.0996C40 14.6996 43.8 23.0996 43 30.3996C41.7 29.2996 38.8 26.6996 34.2 24.1996C35.8 20.2996 37.1 15.9996 37.8 12.0996Z" fill="#221E1F"/>
</g>
<defs>
<clipPath id="clip0_237_2096">
<rect width="220.2" height="53" fill="white"/>
</clipPath>
</defs>
</svg>