<svg id="Layer_1" data-name="Layer 1" xmlns="http://www.w3.org/2000/svg" xmlns:xlink="http://www.w3.org/1999/xlink" viewBox="0 0 491.52 356.89"><defs><style>.cls-1{fill:#073359;}.cls-2{fill:url(#linear-gradient);}</style><linearGradient id="linear-gradient" x1="183.71" y1="1278.69" x2="314.41" y2="1522.15" gradientTransform="matrix(1, 0, 0, -1, 0, 1517.76)" gradientUnits="userSpaceOnUse"><stop offset="0" stop-color="#0185fd"/><stop offset="0.23" stop-color="#0388fb"/><stop offset="0.39" stop-color="#0b91f7"/><stop offset="0.54" stop-color="#18a0ee"/><stop offset="0.66" stop-color="#2bb6e3"/><stop offset="0.79" stop-color="#43d3d3"/><stop offset="0.9" stop-color="#61f5c1"/><stop offset="0.91" stop-color="#64f9bf"/></linearGradient></defs><path class="cls-1" d="M36.17,321c9.55-1.6,13.91-6.6,13.91-15.6,0-11.59-6.68-16.77-28.53-16.77H5.23A2.91,2.91,0,0,0,2,291.87v60.2a2.91,2.91,0,0,0,3.21,3.21H22.44c21.94,0,30-6.16,30-18.19C52.4,327,47.5,322.37,36.17,321ZM22.44,348.59h-13V295.35h12c16.05,0,21,2.5,21,10.7,0,8.65-5.44,12-19.71,12H19.85a2.17,2.17,0,0,0-2.14,2.14v2a2.17,2.17,0,0,0,2.14,2.14h2.77c16.5,0,22,3,22,12.22C44.73,345,38.31,348.59,22.44,348.59ZM99,356.17c-17.83,0-27.2-10.17-27.2-32.1V292A2.91,2.91,0,0,1,75,288.75H76A2.92,2.92,0,0,1,79.25,292v32c0,18,6.24,25.32,19.79,25.32s19.8-7.22,19.8-25.23V292a2.91,2.91,0,0,1,3.21-3.21h1.07a2.91,2.91,0,0,1,3.21,3.21v32.11c-.18,21.84-9.54,32.1-27.38,32.1Zm154-1a2.91,2.91,0,0,1-3.21-3.21V336.19L224.16,292.5c-1.25-2.23-.36-3.84,2.05-3.84h1.69a4,4,0,0,1,3.75,2.23l21.75,37.55,22-37.64a4,4,0,0,1,3.75-2.23h1.6c2.5,0,3.48,1.61,2.23,3.84L257.06,336.1V352a2.91,2.91,0,0,1-3.21,3.21Zm121.46,0a2.91,2.91,0,0,1-3.21-3.21V291.87a2.91,2.91,0,0,1,3.21-3.21h2.14a3.92,3.92,0,0,1,3.83,2l37.9,53.42V291.87a2.91,2.91,0,0,1,3.21-3.21h1.07a2.91,2.91,0,0,1,3.21,3.21v60.2a2.91,2.91,0,0,1-3.21,3.21H420.7a3.93,3.93,0,0,1-3.84-2L378.7,299.45v52.62a2.91,2.91,0,0,1-3.21,3.21l-1.07-.09Zm91.67,0a2.91,2.91,0,0,1-3.21-3.21V295.53H446.56a2.91,2.91,0,0,1-3.21-3.21v-.45a2.91,2.91,0,0,1,3.21-3.21h39.95a2.91,2.91,0,0,1,3.21,3.21v.45a2.91,2.91,0,0,1-3.21,3.21H470.28V352a2.91,2.91,0,0,1-3.21,3.21Zm-268-51.81a5.39,5.39,0,0,0,.09,3.56c2.76,4.46,3.21,8.57,3.21,15.52,0,17.21-9,27.11-23.73,27.11h0c-14.8,0-23.63-9.81-23.63-27.11,0-17,9.19-27,23.81-27a21.78,21.78,0,0,1,9.19,1.69,3.43,3.43,0,0,0,4.55-1.87v-.09a3.46,3.46,0,0,0-2-4.46,29.34,29.34,0,0,0-11.86-2.23c-16.4,0-31.12,10.35-31.12,33.89,0,24.08,14.45,34,30.86,34s31.21-9.9,31.21-34c0-9.09-1.07-14.53-4.73-19.88C202.66,300.35,199.19,300.88,198.12,303.38Zm154.45,51.81h-1.34a3.76,3.76,0,0,1-3.66-2.5l-5.17-12.22-2.67-6.24-.72-1.6H322.52a2.91,2.91,0,0,1-3.21-3.21v-1.16a2.91,2.91,0,0,1,3.21-3.21H335.8L323.94,297l-15.69,37.18-2.68,6.25L300.4,352.6a3.82,3.82,0,0,1-3.66,2.5H295.5c-2.41,0-3.39-1.52-2.5-3.66l26.22-60.37a3.83,3.83,0,0,1,3.65-2.5h2a3.64,3.64,0,0,1,3.66,2.5L355,351.53h0C355.87,353.76,355,355.19,352.57,355.19Z"/><path class="cls-2" d="M293.07,68c-2.67-17-9.95-28.53-23.59-37.45a4.19,4.19,0,0,0-2.25-.64,4.38,4.38,0,0,0-3.62,1.87,4.43,4.43,0,0,0,1.23,5.9c11.49,7.46,17.46,17,20.05,31.86A4.07,4.07,0,0,0,288.81,73l0,0,.74-.1A4.29,4.29,0,0,0,293.07,68Zm19-41.32C299.63,13.18,282.74,4.18,265.74,2A87,87,0,0,0,252.62,1c-2.44,0-4.9.08-7.34.28a5.18,5.18,0,0,0-3.59,1.9l0,0,0,0a4.64,4.64,0,0,0-1,3.52,5.12,5.12,0,0,0,1.89,3.61l.06.05.05,0a4.58,4.58,0,0,0,3,1c.18,0,.33,0,.51,0,2.31-.2,4.61-.31,6.84-.31a72.08,72.08,0,0,1,11.13.85c14.82,2,29.51,9.79,40.27,21.46a66.21,66.21,0,0,1,18.05,45c0,14.43-3.85,27.3-11.41,38.27a68.93,68.93,0,0,1-28.86,23.48,5.14,5.14,0,0,0-2.64,6.8l0,.07,0,0a4.12,4.12,0,0,0,2.92,2.7l2.9.71-1.44,2.62-19.2,35.07-.64,1.18h-5.26V158a5.42,5.42,0,0,0-5.35-5.18,5.27,5.27,0,0,0-5.21,5.18v32h-5.87l-.66-1.1-20.23-33.14-3.41-5.57,6.15,2.21a52,52,0,0,0,8.33,2.33l.18,0,.16,0a3.26,3.26,0,0,0,.84.05,5,5,0,0,0,5-4.13,5.33,5.33,0,0,0-4.12-6.13,45.9,45.9,0,0,1-12.33-4.07,71.17,71.17,0,0,1-18.67-14l-.33-.31-.05-.05,0,0a79.3,79.3,0,0,1-8.08-10.44,64.69,64.69,0,0,1-10.64-35.73,78.06,78.06,0,0,1,6.13-30.2,62.16,62.16,0,0,1,18.84-24.66,5,5,0,0,1,3-1.08,5.7,5.7,0,0,1,2.92.92l.08.06.08.05a4.41,4.41,0,0,1,1.64,5.76,91.55,91.55,0,0,0-7.13,36.89,84.15,84.15,0,0,0,9.67,38.71,5.16,5.16,0,0,0,7,2,4.71,4.71,0,0,0,2.52-2.92l0-.08,0-.1a4.6,4.6,0,0,0-.41-3.74,74.56,74.56,0,0,1-8.44-34,80.68,80.68,0,0,1,6.28-32.84,15.2,15.2,0,0,0-13.84-21.17,14.79,14.79,0,0,0-9.28,3.28,70.62,70.62,0,0,0-22,28.58,86,86,0,0,0-6.95,34.15,76.55,76.55,0,0,0,12.36,41.3,92.27,92.27,0,0,0,9,11.58l.13.16.1.18,32.45,53,2.16,3.51H216a4.32,4.32,0,0,0,0,8.64H287.2v25A15.27,15.27,0,0,1,272,238.13H235.52a15.25,15.25,0,0,1-15.21-15.23v-3a4.34,4.34,0,0,0-4.33-4.33,4.44,4.44,0,0,0-4.3,4.33v2.77a23.69,23.69,0,0,0,23.66,23.69H272a23.71,23.71,0,0,0,23.69-23.69v-27.2a6.28,6.28,0,0,0-4.77-6.07H275.58l1.88-3.41,25.45-46.38.21-.41.36-.28a85,85,0,0,0,15.79-16.64c8.74-12.76,13.17-27.63,13.17-44.17A76.05,76.05,0,0,0,312.11,26.69Z"/></svg>