<svg width="120" height="28" viewBox="0 0 120 28" fill="none" xmlns="http://www.w3.org/2000/svg">
<path fill-rule="evenodd" clip-rule="evenodd" d="M36.6913 13.4755H33.8853V10.6053H36.6913V8.69177C36.6913 7.75377 36.7575 6.9049 36.8897 6.14512C37.022 5.38534 37.2724 4.73345 37.6409 4.18941C38.0093 3.64537 38.5243 3.22797 39.1856 2.93719C39.847 2.64641 40.7068 2.50102 41.7649 2.50102C42.5397 2.50102 43.2577 2.56668 43.9191 2.698L43.6923 5.56826C43.4467 5.51198 43.2105 5.46508 42.9837 5.42756C42.757 5.39004 42.5208 5.37128 42.2751 5.37128C41.8027 5.37128 41.4248 5.44632 41.1414 5.5964C40.8579 5.74648 40.6359 5.94814 40.4753 6.2014C40.3147 6.45466 40.2107 6.75013 40.1635 7.0878C40.1163 7.42548 40.0926 7.78192 40.0926 8.15712V10.6053H43.2388V13.4755H40.0926V24.1124H36.6913V13.4755ZM45.3523 10.5501H48.7705V24.1124H45.3523V10.5501ZM45.0216 5.97428C45.0216 5.42654 45.2217 4.94964 45.622 4.54356C46.0222 4.13747 46.5295 3.93444 47.1438 3.93444C47.7581 3.93444 48.2747 4.12803 48.6936 4.51522C49.1124 4.90242 49.3218 5.38877 49.3218 5.97428C49.3218 6.55979 49.1124 7.04614 48.6936 7.43334C48.2747 7.82053 47.7581 8.01413 47.1438 8.01413C46.5295 8.01413 46.0222 7.81109 45.622 7.40501C45.2217 6.99892 45.0216 6.52202 45.0216 5.97428ZM62.9647 22.0794H62.908C62.4173 22.9048 61.7567 23.5051 60.9263 23.8803C60.0959 24.2555 59.1994 24.4431 58.2368 24.4431C57.1799 24.4431 56.2409 24.2602 55.4199 23.8944C54.5989 23.5286 53.8959 23.0267 53.3108 22.3889C52.7257 21.7511 52.2822 21.0007 51.9802 20.1377C51.6782 19.2748 51.5272 18.3462 51.5272 17.3519C51.5272 16.3576 51.6876 15.429 52.0085 14.566C52.3293 13.7031 52.7776 12.9527 53.3532 12.3149C53.9289 11.677 54.6225 11.1752 55.4341 10.8094C56.2456 10.4436 57.1327 10.2607 58.0952 10.2607C58.737 10.2607 59.3032 10.3263 59.7939 10.4576C60.2846 10.589 60.7187 10.7578 61.0962 10.9642C61.4736 11.1705 61.7945 11.3909 62.0587 11.6254C62.323 11.8599 62.54 12.0897 62.7099 12.3149H62.7948V2.83176H66.1921V24.1054H62.9647V22.0794ZM54.9451 17.3863C54.9451 17.9152 55.0343 18.4252 55.2126 18.9162C55.3909 19.4073 55.6536 19.8417 56.0008 20.2195C56.348 20.5972 56.7656 20.8994 57.2536 21.1261C57.7415 21.3527 58.2952 21.466 58.9145 21.466C59.5339 21.466 60.0875 21.3527 60.5755 21.1261C61.0635 20.8994 61.4811 20.5972 61.8283 20.2195C62.1755 19.8417 62.4382 19.4073 62.6165 18.9162C62.7948 18.4252 62.884 17.9152 62.884 17.3863C62.884 16.8575 62.7948 16.3475 62.6165 15.8565C62.4382 15.3654 62.1755 14.931 61.8283 14.5532C61.4811 14.1755 61.0635 13.8733 60.5755 13.6466C60.0875 13.42 59.5339 13.3067 58.9145 13.3067C58.2952 13.3067 57.7415 13.42 57.2536 13.6466C56.7656 13.8733 56.348 14.1755 56.0008 14.5532C55.6536 14.931 55.3909 15.3654 55.2126 15.8565C55.0343 16.3475 54.9451 16.8575 54.9451 17.3863ZM80.7167 22.0794H80.6601C80.1694 22.9048 79.5088 23.5051 78.6784 23.8803C77.8479 24.2555 76.9515 24.4431 75.9889 24.4431C74.932 24.4431 73.993 24.2602 73.172 23.8944C72.351 23.5286 71.648 23.0267 71.0629 22.3889C70.4778 21.7511 70.0343 21.0007 69.7323 20.1377C69.4303 19.2748 69.2793 18.3462 69.2793 17.3519C69.2793 16.3576 69.4397 15.429 69.7606 14.566C70.0814 13.7031 70.5297 12.9527 71.1053 12.3149C71.681 11.677 72.3746 11.1752 73.1862 10.8094C73.9977 10.4436 74.8848 10.2607 75.8473 10.2607C76.489 10.2607 77.0553 10.3263 77.546 10.4576C78.0367 10.589 78.4708 10.7578 78.8483 10.9642C79.2257 11.1705 79.5466 11.3909 79.8108 11.6254C80.075 11.8599 80.2921 12.0897 80.462 12.3149H80.5469V2.83176H83.9441V24.1054H80.7167V22.0794ZM72.6974 17.3863C72.6974 17.9152 72.7866 18.4252 72.9649 18.9162C73.1432 19.4073 73.4059 19.8417 73.7531 20.2195C74.1004 20.5972 74.5179 20.8994 75.0059 21.1261C75.4939 21.3527 76.0475 21.466 76.6669 21.466C77.2862 21.466 77.8399 21.3527 78.3278 21.1261C78.8158 20.8994 79.2334 20.5972 79.5806 20.2195C79.9278 19.8417 80.1906 19.4073 80.3689 18.9162C80.5472 18.4252 80.6363 17.9152 80.6363 17.3863C80.6363 16.8575 80.5472 16.3475 80.3689 15.8565C80.1906 15.3654 79.9278 14.931 79.5806 14.5532C79.2334 14.1755 78.8158 13.8733 78.3278 13.6466C77.8399 13.42 77.2862 13.3067 76.6669 13.3067C76.0475 13.3067 75.4939 13.42 75.0059 13.6466C74.5179 13.8733 74.1004 14.1755 73.7531 14.5532C73.4059 14.931 73.1432 15.3654 72.9649 15.8565C72.7866 16.3475 72.6974 16.8575 72.6974 17.3863ZM87.9136 2.83176H91.3317V24.1123H87.9136V2.83176ZM97.9052 18.5165C98.0178 19.5325 98.4116 20.3227 99.0868 20.8872C99.762 21.4516 100.578 21.7338 101.534 21.7338C102.378 21.7338 103.086 21.5598 103.658 21.2117C104.23 20.8637 104.732 20.4262 105.163 19.8994L107.583 21.7338C106.795 22.7122 105.914 23.4083 104.938 23.8222C103.963 24.2362 102.941 24.4431 101.872 24.4431C100.859 24.4431 99.9027 24.2738 99.0024 23.9351C98.1022 23.5965 97.3238 23.1167 96.6674 22.4958C96.011 21.8749 95.4905 21.1271 95.106 20.2522C94.7216 19.3773 94.5293 18.4037 94.5293 17.3312C94.5293 16.2588 94.7216 15.2852 95.106 14.4103C95.4905 13.5354 96.011 12.7875 96.6674 12.1666C97.3238 11.5458 98.1022 11.066 99.0024 10.7273C99.9027 10.3887 100.859 10.2193 101.872 10.2193C102.81 10.2193 103.668 10.384 104.446 10.7132C105.224 11.0425 105.89 11.5175 106.444 12.1384C106.997 12.7593 107.428 13.526 107.738 14.4385C108.047 15.351 108.202 16.3999 108.202 17.5852V18.5165H97.9052ZM104.784 16.0632C104.765 15.0722 104.454 14.2915 103.852 13.7211C103.249 13.1508 102.412 12.8656 101.339 12.8656C100.322 12.8656 99.5172 13.1555 98.9242 13.7352C98.3312 14.3148 97.9688 15.0909 97.8371 16.0632H104.784ZM111.289 10.5582H114.694V12.7043H114.751C115.129 11.9136 115.668 11.3018 116.368 10.8688C117.068 10.4358 117.872 10.2193 118.78 10.2193C118.988 10.2193 119.191 10.2382 119.39 10.2758C119.589 10.3135 119.792 10.3605 120 10.417V13.6926C119.716 13.6173 119.437 13.5561 119.163 13.509C118.889 13.462 118.619 13.4385 118.354 13.4385C117.56 13.4385 116.921 13.5843 116.439 13.8761C115.957 14.1679 115.588 14.5021 115.333 14.8786C115.077 15.2551 114.907 15.6316 114.822 16.0081C114.737 16.3846 114.694 16.667 114.694 16.8552V24.1123H111.289V10.5582Z" fill="#1A5EF3"/>
<path fill-rule="evenodd" clip-rule="evenodd" d="M26.3824 13.5564C26.3824 21.0433 20.4765 27.1127 13.1912 27.1127C5.90591 27.1127 0 21.0433 0 13.5564C0 6.06939 5.90591 0 13.1912 0C20.4765 0 26.3824 6.06939 26.3824 13.5564ZM2.90949 7.45599L5.71982 12.4584H10.7781C11.1882 11.508 12.1143 10.8451 13.1911 10.8451C14.6481 10.8451 15.8293 12.059 15.8293 13.5563C15.8293 15.0537 14.6481 16.2676 13.1911 16.2676C12.1153 16.2676 11.1899 15.6059 10.7792 14.6569H6.95496L13.191 25.7571L23.4726 7.45599H2.90949Z" fill="#1A5EF3"/>
</svg>
