<?xml version="1.0" encoding="utf-8"?>
<!-- Generator: Adobe Illustrator 24.0.3, SVG Export Plug-In . SVG Version: 6.00 Build 0)  -->
<svg version="1.1" id="Layer_1" xmlns="http://www.w3.org/2000/svg" xmlns:xlink="http://www.w3.org/1999/xlink" x="0px" y="0px"
	 viewBox="0 0 942.11 942.11" style="enable-background:new 0 0 942.11 942.11;" xml:space="preserve">
<style type="text/css">
	.st0{fill:#1D1C1F;}
	.st1{fill:#2B3A46;stroke:#2B3A46;stroke-width:0.075;stroke-miterlimit:10;}
	.st2{fill:#2B3A46;stroke:#2B3A46;stroke-width:0.065;stroke-miterlimit:10;}
	.st3{fill:#2B3A46;}
	.st4{fill:#01A1DE;}
	.st5{fill:#F80000;}
	.st6{fill:#FFFFFF;}
	.st7{fill:#3F9588;}
	.st8{fill:#E74125;}
	.st9{fill:none;stroke:#3F9588;stroke-width:9;stroke-linecap:round;stroke-linejoin:round;stroke-miterlimit:10;}
	.st10{fill:none;stroke:#3F9588;stroke-width:9;stroke-linecap:round;stroke-miterlimit:10;}
	.st11{fill:none;stroke:#3F9588;stroke-width:9;stroke-linecap:square;stroke-linejoin:round;stroke-miterlimit:10;}
	.st12{fill:#BFBFBF;}
	.st13{fill:none;stroke:#BFBFBF;stroke-width:9;stroke-linecap:round;stroke-linejoin:round;stroke-miterlimit:10;}
	.st14{fill:none;stroke:#3F9487;stroke-width:9;stroke-linecap:round;stroke-linejoin:round;stroke-miterlimit:10;}
	.st15{fill:#3F9487;}
	.st16{fill:none;stroke:#2B3A46;stroke-width:9;stroke-linecap:round;stroke-linejoin:round;stroke-miterlimit:10;}
	.st17{fill:none;stroke:#BFBFBF;stroke-width:9;stroke-linecap:round;stroke-miterlimit:10;}
	.st18{fill:none;stroke:#BFBFBF;stroke-width:9;stroke-linecap:square;stroke-linejoin:round;stroke-miterlimit:10;}
</style>
<g>
	<path class="st8" d="M388.4,470.05c0,9.28-1.69,17.41-5.07,24.39c-3.39,6.98-8.25,12.36-14.58,16.13
		c-6.34,3.76-13.63,5.65-21.9,5.65c-7.98,0-15.08-1.83-21.29-5.5c-6.22-3.66-11.02-8.87-14.43-15.62
		c-3.4-6.74-5.11-14.38-5.11-22.93c0-9.2,1.72-17.29,5.17-24.3c3.44-7,8.38-12.38,14.82-16.12c6.44-3.75,13.89-5.62,22.35-5.62
		c7.74,0,14.68,1.84,20.81,5.53c6.13,3.68,10.87,8.87,14.21,15.55C386.74,453.89,388.4,461.51,388.4,470.05 M377.72,471.39
		c0-11.34-2.65-20.19-7.96-26.55c-5.31-6.35-12.7-9.54-22.17-9.54c-5.95,0-11.29,1.51-16.01,4.53c-4.72,3.02-8.37,7.3-10.97,12.85
		c-2.59,5.56-3.89,11.75-3.89,18.59c0,6.96,1.25,13.18,3.74,18.62c2.49,5.45,6.04,9.66,10.66,12.64c4.62,2.97,9.86,4.47,15.74,4.47
		c9.64,0,17.19-3.16,22.66-9.48C374.98,491.2,377.72,482.48,377.72,471.39 M432.2,431.36c-1.95-1.1-4.15-1.64-6.63-1.64
		c-6.96,0-10.45,4.4-10.45,13.19v9.59h14.58v8.44h-14.58v53.76h-9.96v-53.77H394.6v-8.44h10.57v-10.08c0-6.33,1.86-11.43,5.59-15.31
		c3.73-3.89,8.47-5.84,14.22-5.84c3.04,0,5.44,0.37,7.23,1.1L432.2,431.36L432.2,431.36L432.2,431.36z"/>
	<path class="st8" d="M466.54,431.36c-1.94-1.1-4.15-1.64-6.62-1.64c-6.96,0-10.45,4.4-10.45,13.19v9.59h14.58v8.44h-14.58v53.76
		h-9.97v-53.77h-10.57v-8.44h10.57v-10.08c0-6.33,1.86-11.43,5.59-15.31c3.73-3.89,8.47-5.84,14.22-5.84c3.04,0,5.44,0.37,7.23,1.1
		L466.54,431.36L466.54,431.36z M484.91,430.2c0,1.86-0.65,3.41-1.94,4.64c-1.3,1.24-2.83,1.85-4.62,1.85
		c-1.82,0-3.37-0.59-4.62-1.79c-1.25-1.19-1.88-2.77-1.88-4.71c0-1.74,0.61-3.25,1.85-4.52c1.24-1.28,2.78-1.91,4.65-1.91
		c1.86,0,3.42,0.62,4.68,1.88C484.28,426.9,484.91,428.41,484.91,430.2 M483.21,514.7h-9.97v-62.21h9.97V514.7z M540.07,511.85
		c-4.82,2.92-10.51,4.37-17.07,4.37c-5.67,0-10.76-1.31-15.28-3.92c-4.52-2.62-8.03-6.31-10.54-11.09
		c-2.51-4.78-3.76-10.14-3.76-16.09c0-10.28,2.94-18.55,8.83-24.79c5.89-6.23,13.74-9.36,23.54-9.36c5.43,0,10.23,1.05,14.4,3.16
		v10.2c-4.66-3.24-9.6-4.86-14.82-4.86c-6.44,0-11.67,2.3-15.7,6.89c-4.03,4.6-6.05,10.53-6.05,17.83c0,7.26,1.92,12.98,5.75,17.19
		c3.82,4.21,8.96,6.31,15.4,6.31c5.43,0,10.53-1.78,15.31-5.35L540.07,511.85L540.07,511.85z M601.28,486.09h-43.92
		c0.17,7.01,2.02,12.36,5.56,16.07c3.54,3.7,8.45,5.56,14.72,5.56c7.05,0,13.47-2.27,19.27-6.8v9.3
		c-5.43,4.01-12.64,6.01-21.63,6.01c-8.88,0-15.79-2.87-20.78-8.6c-4.98-5.73-7.47-13.66-7.47-23.78c0-6.15,1.25-11.77,3.74-16.85
		c2.49-5.08,5.93-9.02,10.29-11.81c4.38-2.79,9.24-4.2,14.58-4.2c8.06,0,14.35,2.62,18.86,7.87c4.52,5.24,6.78,12.58,6.78,22.02
		V486.09L601.28,486.09z M591.08,477.65c-0.08-5.75-1.47-10.21-4.17-13.4c-2.69-3.18-6.49-4.77-11.39-4.77
		c-4.62,0-8.57,1.66-11.85,4.98c-3.28,3.32-5.35,7.72-6.19,13.18L591.08,477.65L591.08,477.65z M677.09,490.04
		c0,7.86-2.81,14.19-8.44,18.99c-5.63,4.8-13.03,7.2-22.17,7.2c-8.3,0-14.91-1.58-19.81-4.74v-10.69c5.88,4.61,12.6,6.92,20.17,6.92
		c6.12,0,10.99-1.51,14.61-4.53c3.63-3.01,5.44-7.1,5.44-12.24c0-11.38-8.11-17.07-24.3-17.07h-7.23v-8.45h6.86
		c14.33,0,21.51-5.35,21.51-16.04c0-9.88-5.47-14.82-16.4-14.82c-6.15,0-11.93,2.06-17.31,6.19v-9.66
		c5.55-3.32,12.14-4.98,19.8-4.98c7.21,0,13.03,1.91,17.47,5.74c4.43,3.83,6.65,8.84,6.65,15.03c0,11.46-5.79,18.83-17.37,22.12
		v0.24c6.15,0.69,11.12,2.91,14.89,6.68C675.2,479.71,677.09,484.41,677.09,490.04 M742.63,487.06c0,5.51-1.18,10.51-3.55,15
		c-2.37,4.49-5.63,7.98-9.82,10.45c-4.17,2.47-8.84,3.71-14.03,3.71c-8.71,0-15.54-3.5-20.51-10.51c-4.96-7-7.44-16.79-7.44-29.35
		c0-9.96,1.47-18.76,4.41-26.39c2.94-7.64,7.09-13.52,12.48-17.64c5.39-4.14,11.6-6.2,18.65-6.2c6,0,10.81,0.83,14.46,2.49v9.42
		c-4.5-2.31-9.24-3.46-14.22-3.46c-7.7,0-13.86,3.45-18.5,10.36c-4.64,6.9-6.96,16.11-6.96,27.61h0.24
		c4.01-8.23,10.63-12.33,19.86-12.33c7.53,0,13.57,2.46,18.11,7.38C740.37,472.51,742.63,479,742.63,487.06 M732.43,488.34
		c0-6.08-1.49-10.87-4.46-14.4c-2.98-3.52-7.14-5.28-12.49-5.28c-4.86,0-8.95,1.71-12.27,5.13c-3.32,3.41-4.98,7.56-4.98,12.42
		c0,6.12,1.65,11.23,4.95,15.34c3.3,4.12,7.46,6.17,12.49,6.17c4.98,0,9.02-1.79,12.12-5.38
		C730.88,498.75,732.43,494.09,732.43,488.34 M801.26,488.09c0,8.47-2.8,15.26-8.41,20.42c-5.61,5.14-13.1,7.7-22.45,7.7
		c-8.1,0-14.11-1.21-18.04-3.64V502c5.91,3.82,11.96,5.72,18.16,5.72c6.15,0,11.12-1.73,14.88-5.17c3.77-3.44,5.66-8.06,5.66-13.84
		c0-5.68-1.91-10.12-5.71-13.34c-3.81-3.22-9.34-4.83-16.58-4.83c-5.8,0-10.71,0.24-14.76,0.72l2.97-43.68h40.28v8.99H765.6
		l-1.76,25.58l8.02-0.31c9.07,0,16.24,2.3,21.51,6.87C798.62,473.29,801.26,479.75,801.26,488.09 M262.08,531.61l-0.01-0.01V410.88
		l-43.25-12.48l-77.76,29.2l-0.2,0.04l0.01,87.29l26.53-10.39v-71.02l51.41-12.29l-0.01,104.42l-77.89-10.72l77.89,28.76v0.03
		l43.26-11.97v-0.14H262.08z"/>
</g>
<g>
	<g>
		<path class="st1" d="M379.63,867.33c-0.9,0-1.34-0.47-1.34-1.4v-32.15c0.03-5.27,1.88-9.73,5.53-13.39
			c3.62-3.65,8.05-5.48,13.28-5.48h3.16c0.93,0,1.39,0.48,1.39,1.45c0,1.03-0.46,1.55-1.39,1.55h-3.16c-4.41,0-8.15,1.52-11.22,4.55
			c-3.07,3.07-4.64,6.84-4.71,11.32v32.15c0,0.93-0.46,1.4-1.39,1.4H379.63z"/>
		<path class="st1" d="M457.79,867.33c-0.9,0-1.34-0.47-1.34-1.4v-12.71c-1.65,3-3.65,5.51-6,7.54c-4.89,4.38-10.67,6.57-17.32,6.57
			c-7.24,0-13.41-2.57-18.51-7.7c-5.14-5.1-7.7-11.27-7.7-18.51c0-7.23,2.56-13.4,7.7-18.51c5.1-5.13,11.27-7.7,18.51-7.7
			c7.24,0,13.4,2.57,18.51,7.7c5.13,5.1,7.7,11.27,7.7,18.51v24.82c0,0.93-0.47,1.4-1.4,1.4H457.79z M416.7,824.68
			c-4.59,4.55-6.88,10.03-6.88,16.44c0,6.42,2.29,11.89,6.88,16.44c4.55,4.55,10.03,6.82,16.44,6.82c6.41,0,11.89-2.28,16.44-6.82
			c4.58-4.55,6.88-10.03,6.88-16.44c0-6.41-2.29-11.89-6.88-16.44c-4.55-4.51-10.03-6.77-16.44-6.77
			C426.72,817.91,421.25,820.17,416.7,824.68z"/>
		<path class="st1" d="M608.77,859.63c-5.14-5.1-7.7-11.27-7.7-18.51c0-7.23,2.56-13.4,7.7-18.51c5.1-5.13,11.27-7.7,18.51-7.7
			c5.1,0,9.8,1.4,14.11,4.19c4.31,2.76,7.53,6.46,9.67,11.11c0.17,0.38,0.21,0.72,0.1,1.03c-0.14,0.41-0.36,0.69-0.67,0.82
			c-4.76,2.11-11.48,5.12-20.16,9.05c-8.82,4-15.51,7.01-20.06,9.05c-0.48,0.2-1.1,0.5-1.86,0.88c-0.79,0.35-1.43,0.62-1.91,0.83
			c0.62,1.38,1.43,2.64,2.43,3.77c4.69,5.93,10.8,8.89,18.35,8.89c4.93,0,9.41-1.44,13.44-4.34c4.03-2.86,6.87-6.61,8.53-11.27
			c0.2-0.65,0.69-0.98,1.45-0.98c0.48,0,0.85,0.19,1.09,0.57c0.31,0.41,0.38,0.86,0.2,1.34c-1.83,5.2-5.01,9.42-9.56,12.66
			c-4.55,3.21-9.6,4.81-15.15,4.81C620.04,867.33,613.87,864.76,608.77,859.63z M610.84,824.84c-4.59,4.55-6.88,10.03-6.88,16.44
			c0,1.14,0.07,2.26,0.21,3.36c0.21,1.55,0.6,3.09,1.19,4.6c4.69-2.13,11.77-5.34,21.25-9.61c9.34-4.2,16.42-7.39,21.25-9.56
			c-0.9-1.45-1.83-2.7-2.79-3.77c-4.69-5.51-10.61-8.27-17.78-8.27C620.86,818.02,615.39,820.29,610.84,824.84z"/>
		<path class="st1" d="M677.47,864.28l-20.26-47.4c-0.21-0.48-0.17-0.91,0.1-1.29c0.28-0.45,0.67-0.67,1.19-0.67
			c0.69,0,1.15,0.28,1.4,0.83l18.25,42.54c0.28,0.66,0.64,1.52,1.09,2.58c0.34,0.93,0.6,1.55,0.77,1.86c0.48,1,1.14,1.52,1.97,1.55
			c0.76,0.04,1.41-0.48,1.96-1.55c0.21-0.41,0.48-1.07,0.83-1.97c0.52-1.2,0.88-2.05,1.09-2.53l18.14-42.44
			c0.28-0.58,0.71-0.88,1.29-0.88c0.59,0,1.03,0.23,1.34,0.67c0.28,0.41,0.31,0.85,0.1,1.29l-20.26,47.35
			c-0.83,2.07-2.33,3.1-4.5,3.1C679.8,867.33,678.3,866.31,677.47,864.28z"/>
	</g>
	<g>
		<path class="st2" d="M540.04,835.16l0.51-0.51c0.54-0.54,0.54-1.42,0-1.96c-0.54-0.54-1.42-0.54-1.96,0l-0.51,0.51
			c-0.54,0.54-0.54,1.42,0,1.96C538.62,835.7,539.5,835.7,540.04,835.16z"/>
		<path class="st2" d="M544.74,830.46l3.47-3.47c0.54-0.54,0.54-1.42,0-1.96s-1.42-0.54-1.96,0l-3.47,3.47
			c-0.54,0.54-0.54,1.42,0,1.96C543.31,831.01,544.19,831.01,544.74,830.46z"/>
		<path class="st2" d="M592.1,800.78c0-0.37,0.01-0.74-0.05-1.11c-0.13-0.86-0.61-1.25-1.44-1.21c-0.8,0.04-1.22,0.49-1.27,1.37
			c-0.01,0.3,0,0.59,0,0.89c0,9.04,0,18.07,0,27.11c0,0.38-0.03,0.75-0.04,1.13c-4.39-7.31-10.51-11.94-18.92-13.39
			c-8.56-1.47-14.62,0.85-20.05,5.49c0,0,0,0,0,0c-0.01,0.01-0.03,0.02-0.04,0.03l-0.11,0.11c-0.53,0.53-0.53,1.38,0,1.91
			c0.49,0.49,1.25,0.52,1.78,0.11c0,0,0,0,0,0c-0.07,0.07-0.13,0.12,0,0c6.7-5.61,13.75-6.78,22-3.94
			c13.7,4.72,19.56,21.16,12.18,33.75c-5.05,8.61-15.07,13-24.84,10.83c-4.27-0.95-7.91-3.08-10.97-6.18
			c-11.38-11.56-22.74-23.14-34.12-34.7c-4.85-4.93-10.76-7.56-17.65-7.72c-7.06-0.16-13.23,2.26-18.3,7.21
			c-5.37,5.23-7.9,11.68-7.9,19.16c0.01,13.3,0,26.59,0,39.89c0,0.26-0.01,0.52,0.01,0.78c0.07,0.86,0.53,1.29,1.35,1.29
			c0.81,0,1.27-0.44,1.33-1.31c0.02-0.33,0.01-0.67,0.01-1c0-8.89,0-17.78,0-26.67c0-0.39,0-0.78,0-1.17
			c0.06-0.01,0.13-0.03,0.19-0.04c0.14,0.19,0.29,0.38,0.42,0.58c0.56,0.87,1.06,1.79,1.69,2.61c6.16,8.01,14.29,11.52,24.32,10.25
			c5.57-0.7,10.34-3.25,14.32-7.22c2.54-2.54,5.06-5.1,7.6-7.64c0.28-0.28,0.58-0.53,1.03-0.95c-0.06,0.43-0.07,0.61-0.11,0.78
			c-0.65,3.08-1.31,6.15-1.97,9.23c-0.19,0.9-0.4,1.81-0.57,2.71c-0.19,0.98,0.04,1.47,0.69,1.61c0.71,0.15,1.12-0.21,1.37-1.23
			c0.02-0.07,0.04-0.14,0.06-0.21c1.18-5.5,2.36-10.99,3.53-16.49c0.29-1.38-0.24-1.92-1.59-1.61c-5.55,1.27-11.1,2.54-16.65,3.82
			c-1.03,0.24-1.44,0.66-1.3,1.32c0.13,0.58,0.73,0.99,1.8,0.73c3.87-0.96,7.78-1.82,11.67-2.71c0.38-0.09,0.77-0.14,1.23-0.22
			c-0.1,0.19-0.13,0.31-0.2,0.38c-3.22,3.22-6.28,6.63-9.7,9.62c-6.16,5.4-13.38,6.98-21.25,4.73
			c-12.43-3.54-19.45-16.88-15.46-29.35c5.31-16.6,25.54-21.51,37.74-9.61c0.8,0.78,1.55,1.59,2.33,2.39
			c5.06,5.15,10.11,10.31,15.18,15.46c5.74,5.83,11.46,11.69,17.24,17.48c4.35,4.35,9.66,6.82,15.81,7.23
			c6.66,0.44,12.7-1.41,17.9-5.61c6.63-5.36,9.69-12.48,9.72-20.91C592.15,827.3,592.1,814.04,592.1,800.78z"/>
	</g>
	<path class="st3" d="M287.19,835.75c-0.96-5.03-3.37-9.45-7.22-13.28c-3.82-3.85-8.25-6.26-13.28-7.22
		c-1.68-0.32-3.42-0.48-5.23-0.48c-1.73,0-3.4,0.17-5.01,0.46c-0.61,0.11-1.18,0.33-1.78,0.49c-0.97,0.25-1.94,0.49-2.86,0.86
		c-0.67,0.26-1.3,0.63-1.94,0.96c-0.8,0.4-1.61,0.79-2.37,1.29c-0.6,0.39-1.17,0.86-1.75,1.31c-0.53,0.41-1.1,0.75-1.61,1.21
		c-0.24,0.21-0.44,0.49-0.67,0.71c-0.16,0.16-0.35,0.27-0.51,0.43c-0.28,0.28-0.47,0.59-0.74,0.88c-0.68,0.74-1.34,1.5-1.95,2.33
		c-0.49,0.65-0.92,1.33-1.33,2.01c-0.25,0.41-0.55,0.76-0.79,1.19V789.7c0-0.93-0.45-1.4-1.34-1.4h-0.15c-0.93,0-1.4,0.47-1.4,1.4
		v51.28v24.81c0,0.93,0.46,1.4,1.4,1.4h0.15c0.9,0,1.34-0.46,1.34-1.4v-12.72c0.24,0.43,0.53,0.78,0.79,1.19
		c0.41,0.68,0.85,1.36,1.33,2.01c0.61,0.83,1.27,1.6,1.95,2.33c0.27,0.28,0.46,0.6,0.74,0.88c0.16,0.16,0.35,0.27,0.51,0.43
		c0.24,0.22,0.43,0.5,0.67,0.71c0.51,0.46,1.08,0.8,1.61,1.21c0.58,0.45,1.15,0.92,1.75,1.31c0.76,0.49,1.57,0.89,2.37,1.29
		c0.64,0.32,1.27,0.69,1.94,0.96c0.92,0.36,1.89,0.6,2.86,0.85c0.6,0.16,1.17,0.38,1.78,0.49c1.61,0.3,3.28,0.46,5.01,0.46
		c1.81,0,3.55-0.16,5.23-0.48c5.03-0.96,9.45-3.37,13.28-7.22c3.85-3.83,6.26-8.25,7.22-13.28c0.32-1.68,0.48-3.42,0.48-5.23
		C287.67,839.17,287.51,837.43,287.19,835.75z M277.9,857.42c-4.55,4.51-10.03,6.77-16.44,6.77c-6.41,0-11.89-2.26-16.44-6.77
		c-4.58-4.55-6.88-10.03-6.88-16.44c0-6.41,2.29-11.89,6.88-16.44c4.55-4.51,10.03-6.77,16.44-6.77c6.41,0,11.89,2.26,16.44,6.77
		c4.58,4.55,6.88,10.03,6.88,16.44C284.77,847.39,282.48,852.87,277.9,857.42z"/>
	<g>
		<path class="st3" d="M346.17,815.49c-0.31-0.45-0.76-0.67-1.34-0.67c-0.59,0-1.02,0.29-1.29,0.88l-18.14,42.44
			c-0.21,0.48-0.57,1.33-1.09,2.53c-0.34,0.9-0.62,1.55-0.83,1.96l0.02,0.01l-12.78,29.94c-0.37,0.85-0.1,1.47,0.79,1.85l0.09,0.04
			c0.83,0.35,1.42,0.1,1.79-0.76l14.5-33.97l18.39-42.97C346.48,816.33,346.44,815.9,346.17,815.49z"/>
		<path class="st3" d="M316.87,861.84c0.59,0,1.03-0.22,1.34-0.67c0.28-0.41,0.31-0.85,0.1-1.29l-3.42-8l0.03-0.02
			c-0.17-0.31-0.43-0.93-0.77-1.86c-0.45-1.07-0.81-1.93-1.09-2.59l-13.63-31.77c-0.24-0.55-0.71-0.83-1.4-0.83
			c-0.52,0-0.91,0.22-1.19,0.67c-0.28,0.38-0.31,0.81-0.1,1.29l2.88,6.75l-0.04,0.02c0.21,0.41,0.48,1.07,0.83,1.96
			c0.52,1.21,0.88,2.05,1.09,2.53l14.07,32.92C315.86,861.55,316.29,861.84,316.87,861.84z"/>
	</g>
</g>
</svg>
