<?xml version="1.0" encoding="utf-8"?>
<!-- Generator: Adobe Illustrator 24.0.3, SVG Export Plug-In . SVG Version: 6.00 Build 0)  -->
<svg version="1.1" id="Layer_1" xmlns="http://www.w3.org/2000/svg" xmlns:xlink="http://www.w3.org/1999/xlink" x="0px" y="0px"
	 viewBox="0 0 942.11 942.11" style="enable-background:new 0 0 942.11 942.11;" xml:space="preserve">
<style type="text/css">
	.st0{fill:#1D1C1F;}
	.st1{fill:#2B3A46;stroke:#2B3A46;stroke-width:0.075;stroke-miterlimit:10;}
	.st2{fill:#2B3A46;stroke:#2B3A46;stroke-width:0.065;stroke-miterlimit:10;}
	.st3{fill:#2B3A46;}
	.st4{fill:#01A1DE;}
	.st5{fill:#F80000;}
	.st6{fill:#FFFFFF;}
	.st7{fill:#3F9588;}
	.st8{fill:#E74125;}
	.st9{fill:none;stroke:#3F9588;stroke-width:9;stroke-linecap:round;stroke-linejoin:round;stroke-miterlimit:10;}
	.st10{fill:none;stroke:#3F9588;stroke-width:9;stroke-linecap:round;stroke-miterlimit:10;}
	.st11{fill:none;stroke:#3F9588;stroke-width:9;stroke-linecap:square;stroke-linejoin:round;stroke-miterlimit:10;}
	.st12{fill:#BFBFBF;}
	.st13{fill:none;stroke:#BFBFBF;stroke-width:9;stroke-linecap:round;stroke-linejoin:round;stroke-miterlimit:10;}
	.st14{fill:none;stroke:#3F9487;stroke-width:9;stroke-linecap:round;stroke-linejoin:round;stroke-miterlimit:10;}
	.st15{fill:#3F9487;}
	.st16{fill:none;stroke:#2B3A46;stroke-width:9;stroke-linecap:round;stroke-linejoin:round;stroke-miterlimit:10;}
	.st17{fill:none;stroke:#BFBFBF;stroke-width:9;stroke-linecap:round;stroke-miterlimit:10;}
	.st18{fill:none;stroke:#BFBFBF;stroke-width:9;stroke-linecap:square;stroke-linejoin:round;stroke-miterlimit:10;}
</style>
<rect x="0" y="0" class="st0" width="942.11" height="942.11"/>
<g>
	<g>
		<path class="st6" d="M379.63,875.33c-0.9,0-1.34-0.47-1.34-1.4v-32.15c0.03-5.27,1.88-9.73,5.53-13.39
			c3.62-3.65,8.05-5.48,13.28-5.48h3.16c0.93,0,1.39,0.48,1.39,1.45c0,1.03-0.46,1.55-1.39,1.55h-3.16c-4.41,0-8.15,1.52-11.22,4.55
			c-3.07,3.07-4.64,6.84-4.71,11.32v32.15c0,0.93-0.46,1.4-1.39,1.4H379.63z"/>
		<path class="st6" d="M457.79,875.33c-0.9,0-1.34-0.47-1.34-1.4v-12.71c-1.65,3-3.65,5.51-6,7.54c-4.89,4.38-10.67,6.57-17.32,6.57
			c-7.24,0-13.41-2.57-18.51-7.7c-5.14-5.1-7.7-11.27-7.7-18.51c0-7.23,2.56-13.4,7.7-18.51c5.1-5.13,11.27-7.7,18.51-7.7
			c7.24,0,13.4,2.57,18.51,7.7c5.13,5.1,7.7,11.27,7.7,18.51v24.82c0,0.93-0.47,1.4-1.4,1.4H457.79z M416.7,832.68
			c-4.59,4.55-6.88,10.03-6.88,16.44c0,6.42,2.29,11.89,6.88,16.44c4.55,4.55,10.03,6.82,16.44,6.82c6.41,0,11.89-2.28,16.44-6.82
			c4.58-4.55,6.88-10.03,6.88-16.44c0-6.41-2.29-11.89-6.88-16.44c-4.55-4.51-10.03-6.77-16.44-6.77
			C426.72,825.91,421.25,828.17,416.7,832.68z"/>
		<path class="st6" d="M608.77,867.63c-5.14-5.1-7.7-11.27-7.7-18.51c0-7.23,2.56-13.4,7.7-18.51c5.1-5.13,11.27-7.7,18.51-7.7
			c5.1,0,9.8,1.4,14.11,4.19c4.31,2.76,7.53,6.46,9.67,11.11c0.17,0.38,0.21,0.72,0.1,1.03c-0.14,0.41-0.36,0.69-0.67,0.82
			c-4.76,2.11-11.48,5.12-20.16,9.05c-8.82,4-15.51,7.01-20.06,9.05c-0.48,0.2-1.1,0.5-1.86,0.88c-0.79,0.35-1.43,0.62-1.91,0.83
			c0.62,1.38,1.43,2.64,2.43,3.77c4.69,5.93,10.8,8.89,18.35,8.89c4.93,0,9.41-1.44,13.44-4.34c4.03-2.86,6.87-6.61,8.53-11.27
			c0.2-0.65,0.69-0.98,1.45-0.98c0.48,0,0.85,0.19,1.09,0.57c0.31,0.41,0.38,0.86,0.2,1.34c-1.83,5.2-5.01,9.42-9.56,12.66
			c-4.55,3.21-9.6,4.81-15.15,4.81C620.04,875.33,613.87,872.76,608.77,867.63z M610.84,832.84c-4.59,4.55-6.88,10.03-6.88,16.44
			c0,1.14,0.07,2.26,0.21,3.36c0.21,1.55,0.6,3.09,1.19,4.6c4.69-2.13,11.77-5.34,21.25-9.61c9.34-4.2,16.42-7.39,21.25-9.56
			c-0.9-1.45-1.83-2.7-2.79-3.77c-4.69-5.51-10.61-8.27-17.78-8.27C620.86,826.01,615.39,828.29,610.84,832.84z"/>
		<path class="st6" d="M677.47,872.28l-20.26-47.4c-0.21-0.48-0.17-0.91,0.1-1.29c0.28-0.45,0.67-0.67,1.19-0.67
			c0.69,0,1.15,0.28,1.4,0.83l18.25,42.54c0.28,0.66,0.64,1.52,1.09,2.58c0.34,0.93,0.6,1.55,0.77,1.86c0.48,1,1.14,1.52,1.97,1.55
			c0.76,0.04,1.41-0.48,1.96-1.55c0.21-0.41,0.48-1.07,0.83-1.97c0.52-1.2,0.88-2.05,1.09-2.53l18.14-42.44
			c0.28-0.58,0.71-0.88,1.29-0.88c0.59,0,1.03,0.23,1.34,0.67c0.28,0.41,0.31,0.85,0.1,1.29l-20.26,47.35
			c-0.83,2.07-2.33,3.1-4.5,3.1C679.8,875.33,678.3,874.31,677.47,872.28z"/>
	</g>
	<g>
		<path class="st6" d="M540.04,843.15l0.51-0.51c0.54-0.54,0.54-1.42,0-1.96c-0.54-0.54-1.42-0.54-1.96,0l-0.51,0.51
			c-0.54,0.54-0.54,1.42,0,1.96C538.62,843.7,539.5,843.7,540.04,843.15z"/>
		<path class="st6" d="M544.74,838.46l3.47-3.47c0.54-0.54,0.54-1.42,0-1.96c-0.54-0.54-1.42-0.54-1.96,0l-3.47,3.47
			c-0.54,0.54-0.54,1.42,0,1.96C543.31,839.01,544.19,839.01,544.74,838.46z"/>
		<path class="st6" d="M592.1,808.78c0-0.37,0.01-0.74-0.05-1.11c-0.13-0.86-0.61-1.25-1.44-1.21c-0.8,0.04-1.22,0.49-1.27,1.37
			c-0.01,0.3,0,0.59,0,0.89c0,9.04,0,18.07,0,27.11c0,0.38-0.03,0.75-0.04,1.13c-4.39-7.31-10.51-11.94-18.92-13.39
			c-8.56-1.47-14.62,0.85-20.05,5.49c0,0,0,0,0,0c-0.01,0.01-0.03,0.02-0.04,0.03l-0.11,0.11c-0.53,0.53-0.53,1.38,0,1.91
			c0.49,0.49,1.25,0.52,1.78,0.11c0,0,0,0,0,0c-0.07,0.07-0.13,0.12,0,0c6.7-5.61,13.75-6.78,22-3.94
			c13.7,4.72,19.56,21.16,12.18,33.75c-5.05,8.61-15.07,13-24.84,10.83c-4.27-0.95-7.91-3.08-10.97-6.18
			c-11.38-11.56-22.74-23.14-34.12-34.7c-4.85-4.93-10.76-7.56-17.65-7.72c-7.06-0.16-13.23,2.26-18.3,7.21
			c-5.37,5.23-7.9,11.68-7.9,19.16c0.01,13.3,0,26.59,0,39.89c0,0.26-0.01,0.52,0.01,0.78c0.07,0.86,0.53,1.29,1.35,1.29
			c0.81,0,1.27-0.44,1.33-1.31c0.02-0.33,0.01-0.67,0.01-1c0-8.89,0-17.78,0-26.67c0-0.39,0-0.78,0-1.17
			c0.06-0.01,0.13-0.03,0.19-0.04c0.14,0.19,0.29,0.38,0.42,0.58c0.56,0.87,1.06,1.79,1.69,2.61c6.16,8.01,14.29,11.52,24.32,10.25
			c5.57-0.7,10.34-3.25,14.32-7.22c2.54-2.54,5.06-5.1,7.6-7.64c0.28-0.28,0.58-0.53,1.03-0.95c-0.06,0.43-0.07,0.61-0.11,0.78
			c-0.65,3.08-1.31,6.15-1.97,9.23c-0.19,0.9-0.4,1.81-0.57,2.71c-0.19,0.98,0.04,1.47,0.69,1.61c0.71,0.15,1.12-0.21,1.37-1.23
			c0.02-0.07,0.04-0.14,0.06-0.21c1.18-5.5,2.36-10.99,3.53-16.49c0.29-1.38-0.24-1.92-1.59-1.61c-5.55,1.27-11.1,2.54-16.65,3.82
			c-1.03,0.24-1.44,0.66-1.3,1.32c0.13,0.58,0.73,0.99,1.8,0.73c3.87-0.96,7.78-1.82,11.67-2.71c0.38-0.09,0.77-0.14,1.23-0.22
			c-0.1,0.19-0.13,0.31-0.2,0.38c-3.22,3.22-6.28,6.63-9.7,9.62c-6.16,5.4-13.38,6.98-21.25,4.73
			c-12.43-3.54-19.45-16.88-15.46-29.35c5.31-16.6,25.54-21.51,37.74-9.61c0.8,0.78,1.55,1.59,2.33,2.39
			c5.06,5.15,10.11,10.31,15.18,15.46c5.74,5.83,11.46,11.69,17.24,17.48c4.35,4.35,9.66,6.82,15.81,7.23
			c6.66,0.44,12.7-1.41,17.9-5.61c6.63-5.36,9.69-12.48,9.72-20.91C592.15,835.3,592.1,822.04,592.1,808.78z"/>
	</g>
	<path class="st6" d="M287.19,843.75c-0.96-5.03-3.37-9.45-7.22-13.28c-3.82-3.85-8.25-6.26-13.28-7.22
		c-1.68-0.32-3.42-0.48-5.23-0.48c-1.73,0-3.4,0.17-5.01,0.46c-0.61,0.11-1.18,0.33-1.78,0.49c-0.97,0.25-1.94,0.49-2.86,0.86
		c-0.67,0.26-1.3,0.63-1.94,0.96c-0.8,0.4-1.61,0.79-2.37,1.29c-0.6,0.39-1.17,0.86-1.75,1.31c-0.53,0.41-1.1,0.75-1.61,1.21
		c-0.24,0.21-0.44,0.49-0.67,0.71c-0.16,0.16-0.35,0.27-0.51,0.43c-0.28,0.28-0.47,0.59-0.74,0.88c-0.68,0.74-1.34,1.5-1.95,2.33
		c-0.49,0.65-0.92,1.33-1.33,2.01c-0.25,0.41-0.55,0.76-0.79,1.19V797.7c0-0.93-0.45-1.4-1.34-1.4h-0.15c-0.93,0-1.4,0.47-1.4,1.4
		v51.28v24.81c0,0.93,0.46,1.4,1.4,1.4h0.15c0.9,0,1.34-0.46,1.34-1.4v-12.72c0.24,0.43,0.53,0.78,0.79,1.19
		c0.41,0.68,0.85,1.36,1.33,2.01c0.61,0.83,1.27,1.6,1.95,2.33c0.27,0.28,0.46,0.6,0.74,0.88c0.16,0.16,0.35,0.27,0.51,0.43
		c0.24,0.22,0.43,0.5,0.67,0.71c0.51,0.46,1.08,0.8,1.61,1.21c0.58,0.45,1.15,0.92,1.75,1.31c0.76,0.49,1.57,0.89,2.37,1.29
		c0.64,0.32,1.27,0.69,1.94,0.96c0.92,0.36,1.89,0.6,2.86,0.85c0.6,0.16,1.17,0.38,1.78,0.49c1.61,0.3,3.28,0.46,5.01,0.46
		c1.81,0,3.55-0.16,5.23-0.48c5.03-0.96,9.45-3.37,13.28-7.22c3.85-3.83,6.26-8.25,7.22-13.28c0.32-1.68,0.48-3.42,0.48-5.23
		C287.67,847.17,287.51,845.43,287.19,843.75z M277.9,865.42c-4.55,4.51-10.03,6.77-16.44,6.77c-6.41,0-11.89-2.26-16.44-6.77
		c-4.58-4.55-6.88-10.03-6.88-16.44c0-6.41,2.29-11.89,6.88-16.44c4.55-4.51,10.03-6.77,16.44-6.77c6.41,0,11.89,2.26,16.44,6.77
		c4.58,4.55,6.88,10.03,6.88,16.44C284.77,855.39,282.48,860.87,277.9,865.42z"/>
	<g>
		<path class="st6" d="M346.17,823.49c-0.31-0.45-0.76-0.67-1.34-0.67c-0.59,0-1.02,0.29-1.29,0.88l-18.14,42.44
			c-0.21,0.48-0.57,1.33-1.09,2.53c-0.34,0.9-0.62,1.55-0.83,1.96l0.02,0.01l-12.78,29.94c-0.37,0.85-0.1,1.47,0.79,1.85l0.09,0.04
			c0.83,0.35,1.42,0.1,1.79-0.76l14.5-33.97l18.39-42.97C346.48,824.33,346.44,823.9,346.17,823.49z"/>
		<path class="st6" d="M316.87,869.84c0.59,0,1.03-0.22,1.34-0.67c0.28-0.41,0.31-0.85,0.1-1.29l-3.42-8l0.03-0.02
			c-0.17-0.31-0.43-0.93-0.77-1.86c-0.45-1.07-0.81-1.93-1.09-2.59l-13.63-31.77c-0.24-0.55-0.71-0.83-1.4-0.83
			c-0.52,0-0.91,0.22-1.19,0.67c-0.28,0.38-0.31,0.81-0.1,1.29l2.88,6.75l-0.04,0.02c0.21,0.41,0.48,1.07,0.83,1.96
			c0.52,1.21,0.88,2.05,1.09,2.53l14.07,32.92C315.86,869.55,316.29,869.84,316.87,869.84z"/>
	</g>
</g>
<g>
	<path class="st7" d="M517.09,563.64c-0.01-2.34-0.5-4.56-1.38-6.58c-2.37-6.43-7.45-9.93-15-9.93h-0.16H454.1h-31.06
		c-9.14,0-16.55,7.41-16.55,16.55v77.67c0,3.02,0.82,5.83,2.23,8.27c2.6,5.37,7.43,8.28,14.3,8.28h32.04l-8.09-7.95h-18.38
		c-5.89,0-10.02-2.49-12.25-7.09c-1.21-2.09-1.91-4.5-1.91-7.08v-66.52c0-7.83,6.35-14.17,14.17-14.17h26.6h39.78h0.14
		c6.47,0,10.82,3,12.85,8.51c0.75,1.73,1.18,3.63,1.18,5.63c0.07,0.86,0.13,28.44,0.13,29.38l7.8-8.1v-23.58l0.14-0.14
		C517.24,565.69,517.18,564.65,517.09,563.64z"/>
	<path class="st7" d="M687.73,563.64c-0.01-2.34-0.5-4.56-1.38-6.58c-2.37-6.43-7.45-9.93-15-9.93h-0.16h-46.44h-31.06
		c-9.14,0-16.55,7.41-16.55,16.55v77.67c0,3.02,0.82,5.83,2.23,8.27c2.6,5.37,7.43,8.28,14.3,8.28h32.04l-8.09-7.95h-18.38
		c-5.89,0-10.02-2.49-12.25-7.09c-1.21-2.09-1.91-4.5-1.91-7.08v-66.52c0-7.83,6.35-14.17,14.17-14.17h26.6h39.78h0.14
		c6.47,0,10.82,3,12.85,8.51c0.75,1.73,1.18,3.63,1.18,5.63c0.07,0.86,0.13,28.44,0.13,29.38l7.8-8.1v-23.58l0.14-0.14
		C687.88,565.69,687.82,564.65,687.73,563.64z"/>
	<path class="st7" d="M260.95,555.08h66.52c6.47,0,10.82,3,12.85,8.51c0.75,1.73,1.18,3.63,1.18,5.63c0.03,0.36,0.08,7.75,0.08,7.75
		l7.99-8.05v-2.14c0-1.09-0.06-2.13-0.15-3.14c-0.01-2.34-0.5-4.56-1.38-6.58c-2.37-6.43-7.45-9.93-15-9.93h-77.67
		c-9.14,0-16.55,7.41-16.55,16.55v77.67c0,3.02,0.82,5.83,2.23,8.27c2.6,5.37,7.43,8.28,14.3,8.28h5.97l8.53-7.95h-8.93
		c-5.89,0-10.02-2.49-12.25-7.09c-1.21-2.09-1.91-4.5-1.91-7.08v-66.52C246.77,561.43,253.12,555.08,260.95,555.08z"/>
</g>
<g>
	<g>
		<path class="st12" d="M372.09,293V192c0-4.15,3.41-7.46,7.56-7.39c51.11,0.9,105.29,46.27,108.56,107.92
			c0.23,4.25-3.11,7.85-7.37,7.85H379.47C375.39,300.38,372.09,297.08,372.09,293z"/>
	</g>
</g>
<g>
	<path class="st12" d="M695.73,127.58c28.64,0,51.94,23.3,51.94,51.94v493.22c0,28.64-23.3,51.94-51.94,51.94H246.38
		c-28.64,0-51.94-23.3-51.94-51.94V179.52c0-28.64,23.3-51.94,51.94-51.94H695.73 M695.73,118.58H246.38
		c-33.66,0-60.94,27.28-60.94,60.94v493.22c0,33.66,27.28,60.94,60.94,60.94h449.35c33.66,0,60.94-27.28,60.94-60.94V179.52
		C756.67,145.87,729.39,118.58,695.73,118.58L695.73,118.58z"/>
</g>
<g>
	<path class="st12" d="M350.1,204.63v110.91v9h9h110.91c-2.09,26.33-13.35,50.8-32.23,69.68c-21.02,21.02-48.96,32.59-78.68,32.59
		c-29.72,0-57.66-11.57-78.68-32.59s-32.59-48.96-32.59-78.68s11.57-57.66,32.59-78.68C299.3,217.99,323.77,206.73,350.1,204.63
		 M359.1,195.28c-66.42,0-120.27,53.85-120.27,120.27s53.85,120.27,120.27,120.27c66.42,0,120.27-53.85,120.27-120.27H359.1V195.28
		L359.1,195.28z"/>
</g>
<polyline class="st13" points="604.11,623.33 635.86,655.08 703.34,587.6 "/>
<polyline class="st13" points="433.47,623.33 465.22,655.08 532.7,587.6 "/>
<line class="st17" x1="359.08" y1="570.55" x2="267.47" y2="662.16"/>
<line class="st17" x1="359.08" y1="662.16" x2="267.47" y2="570.55"/>
<rect x="548.95" y="280.1" class="st18" width="37.04" height="150.38"/>
<rect x="613.49" y="216.98" class="st18" width="37.04" height="213.5"/>
<rect x="678.02" y="346.25" class="st18" width="37.04" height="84.23"/>
</svg>
