<?xml version="1.0" encoding="utf-8"?>
<!-- Generator: Adobe Illustrator 19.2.1, SVG Export Plug-In . SVG Version: 6.00 Build 0)  -->
<svg version="1.1" id="layer" xmlns="http://www.w3.org/2000/svg" xmlns:xlink="http://www.w3.org/1999/xlink" x="0px" y="0px"
	 viewBox="0 0 700 652" style="enable-background:new 0 0 652 652;background-color:black" xml:space="preserve">
<style type="text/css">
	.st0{fill:#3D4647;}
	.st1{fill:#5BB73B;}
	.st2{fill:#231F20;}
	.st3{fill:#ffffff;}
	.heavy {fill:#3D4647; font: italic bold 100px courier; }
	.light {
		fill:#ffffff; 
		font: 120px arial;
		letter-spacing: 30px;	
	}
	
</style>
<g id="Layer_2">
	<g>
		<g>
			<g>
				<path class="st0" d="M217.2,322.4l23.5,32.9h-10l-19.1-27.1l-10.3,10.1v17.3h-8v-76.5h8.2v48.8l26.1-27h11.3L217.2,322.4z"/>
				<path class="st0" d="M269.2,348.9c7.3,0,12.5-3,15.8-9.2h9c-1.8,5-4.8,9-9,12s-9.3,4.5-15.8,4.5c-8.2,0-14.8-2.7-20-8.2
					c-5-5.3-7.5-12-7.5-20s2.5-14.6,7.2-20c5.2-5.5,11.6-8.2,19.8-8.2c8.2,0,14.6,2.7,19.8,8.2c4.8,5.3,7.2,11.8,7.2,20v3.3H250
					c0.7,5,2.5,9.2,6,12.5C259.5,347.2,263.8,348.9,269.2,348.9z M268.5,307.5c-5,0-9.2,1.5-12.5,4.7c-3.2,3-5.2,6.8-5.8,11.6h36.9
					c-0.8-4.8-2.7-8.7-5.8-11.6C277.8,309.1,273.5,307.5,268.5,307.5z"/>
				<path class="st0" d="M313.7,309.8c4.3-6.3,10.8-9.5,19.5-9.5c7.8,0,14.1,2.7,19.1,8.2c4.8,5.3,7.3,12,7.3,20
					c0,7.8-2.5,14.5-7.3,20c-4.8,5.5-11.3,8.2-19.5,8.2s-14.5-3.2-19-9.7v30.4h-8.2V301h8.2L313.7,309.8L313.7,309.8z M332,307.5
					c-5.8,0-10.5,2-14,6c-3.3,3.8-4.8,8.8-4.8,14.5c0,5.8,1.7,10.8,4.8,14.5c3.5,4.2,8,6,14,6c5.8,0,10.5-2,14.1-6
					c3.5-3.8,5.2-8.8,5.2-14.5c0-5.8-1.7-10.8-5.2-14.5C342.7,309.6,338,307.5,332,307.5z"/>
				<path class="st0" d="M402.4,311.9l-13.6,43.4h-9.3l-17.1-54.2h8.8l13,44.3l13.8-44.3h9l13.8,44.3l13-44.3h8.8l-17.1,54.2h-9.3
					L402.4,311.9z"/>
				<path class="st0" d="M491.1,346.7c-4.3,6.3-10.8,9.5-19.5,9.5c-7.8,0-14.1-2.7-19.1-8.2c-4.8-5.3-7.2-12-7.2-20
					c0-7.8,2.5-14.5,7.2-20c5-5.5,11.5-8.2,19.6-8.2c8.2,0,14.5,3.2,19,9.7v-8.8h8.2v54.4h-8.2L491.1,346.7L491.1,346.7z
					 M472.8,348.9c5.8,0,10.5-2,14-6c3.3-3.8,4.8-8.8,4.8-14.5c0-5.8-1.7-10.8-4.8-14.5c-3.5-4.2-8-6-14-6c-5.8,0-10.6,2-14.1,6
					c-3.5,3.8-5.2,8.8-5.2,14.5c0,5.8,1.7,10.8,5.2,14.5C462.2,346.9,466.8,348.9,472.8,348.9z"/>
				<path class="st0" d="M541.5,300.1v8.2h-0.8c-5.8,0-10.6,2.5-14.3,7.2c-3.5,4.5-5.3,9.8-5.3,16v23.8h-8.2V301h8.2v13.3
					c1.8-5.7,5.5-9.8,11.3-12.5c2.5-1.2,5.3-1.8,8.8-1.8L541.5,300.1L541.5,300.1z"/>
				<path class="st0" d="M570.8,348.9c7.3,0,12.5-3,15.8-9.2h9c-1.8,5-4.8,9-9,12s-9.3,4.5-15.8,4.5c-8.2,0-14.8-2.7-20-8.2
					c-5-5.3-7.5-12-7.5-20s2.5-14.6,7.2-20c5.2-5.5,11.6-8.2,19.8-8.2s14.6,2.7,19.8,8.2c4.8,5.3,7.2,11.8,7.2,20v3.3h-45.6
					c0.7,5,2.5,9.2,6,12.5S565.5,348.9,570.8,348.9z M570.2,307.5c-5,0-9.2,1.5-12.5,4.7c-3.2,3-5.2,6.8-5.8,11.6h36.9
					c-0.8-4.8-2.7-8.7-5.8-11.6C579.5,309.1,575.1,307.5,570.2,307.5z"/>
			</g>
		</g>
		<g>
			<polygon class="st0" points="81.6,251.5 21.4,286 21.4,297.5 142,297.5 142,286 			"/>
			<polygon class="st0" points="81.6,390.7 142,356.2 142,344.7 21.4,344.7 21.4,356.2 			"/>
			<polygon class="st1" points="142,335.2 81.6,335.2 21.4,335.2 21.4,307 142,307 			"/>
		</g>
	</g>
</g>
<path class="st0" d="M612.8,301.7c1.2,0,2.3,0.2,3.4,0.7c1.1,0.5,2,1.1,2.7,1.9c0.8,0.8,1.4,1.7,1.9,2.7c0.5,1.1,0.7,2.2,0.7,3.4
	c0,1.2-0.2,2.3-0.7,3.4c-0.5,1-1.1,2-1.9,2.7c-0.8,0.8-1.7,1.4-2.7,1.9c-1,0.5-2.2,0.7-3.4,0.7c-1.2,0-2.3-0.2-3.4-0.7
	c-1-0.5-2-1.1-2.7-1.9c-0.8-0.8-1.4-1.7-1.9-2.7c-0.5-1-0.7-2.2-0.7-3.4s0.2-2.3,0.7-3.4c0.5-1,1.1-2,1.9-2.7
	c0.8-0.8,1.7-1.4,2.7-1.9C610.4,302,611.6,301.7,612.8,301.7z M612.8,317.8c2.1,0,3.8-0.7,5.2-2.2c0.7-0.7,1.2-1.5,1.6-2.4
	c0.4-0.9,0.6-1.9,0.6-2.9c0-1-0.2-2-0.6-2.9c-0.4-0.9-0.9-1.7-1.6-2.4c-1.4-1.4-3.2-2.2-5.2-2.2c-2.1,0-3.8,0.7-5.2,2.2
	c-1.4,1.5-2.2,3.2-2.2,5.2c0,1,0.2,2,0.6,2.9c0.4,0.9,0.9,1.7,1.6,2.4C608.9,317.1,610.7,317.8,612.8,317.8z M617,308.4
	c0,0.6-0.2,1.1-0.5,1.5c-0.3,0.4-0.8,0.8-1.4,0.9c0.9,0.3,1.5,1,1.7,2.3c0,0.3,0.1,0.6,0.1,0.9v1.2h-1.7v-1c0-0.7-0.1-1.2-0.2-1.6
	c-0.3-0.7-0.9-1-1.7-1h-2.4v3.5H609v-9.6h4.1c1.4,0,2.4,0.3,3,0.8C616.7,306.9,617,307.6,617,308.4z M613,310.2
	c0.7,0,1.3-0.1,1.7-0.4c0.4-0.3,0.6-0.6,0.6-1.1c0-0.5-0.2-0.9-0.5-1.1s-1-0.4-1.9-0.4h-2.1v3.1H613z"/>


<g class="st3" transform="scale(0.3) translate(240,130)">
	<g >
		<text x="285" y="1240" class="heavy">by</text>
		<text x="470" y="1290" class="light">SCADA MODS</text>
		
				<g transform="scale(0.5) translate(2500,1550)">
			<polygon class="st2" points="957.6,808.1 928.8,804.2 904.6,751.5 921.1,725.9 			"/>
			<path class="st3" d="M1112.9,905.9l-53.3-77.8l-134.8-18.5l-46.6-101.5l-53.3,127.4l13.3,31.8l-0.2,0.3
				c-50.4,80.2-66.8,102.3-102.6,186.5h123.1l90.9,108.6l62.9-100.7l-45.2-12.6c0,0,161.4,1.5,209.6-8.9
				c48.1-10.4,88.1-96.3,88.1-96.3L1112.9,905.9z M881.8,761.5l-25.9,67.4l9.6,13.3l-16.3,16.3l-12.6-23l42.2-100.7l34.8,77
				L881.8,761.5z M1005.5,897l-11.1-22.2l-11.9-10.4l46.7,5.9l25.9,34.1L1005.5,897z"/>
		</g>
	</g>
</g>

</svg>
