<?xml version="1.0" encoding="UTF-8"?><svg id="Layer_1" xmlns="http://www.w3.org/2000/svg" viewBox="0 0 850.76 244.95"><defs><style>.cls-1,.cls-2{fill:#fff;}.cls-2{stroke:#fff;stroke-miterlimit:10;stroke-width:1.5px;}</style></defs><rect width="850.76" height="244.95"/><g><g><path class="cls-2" d="M369.1,224.72c-.55,0-.83-.29-.83-.86v-19.79c.02-3.24,1.16-5.99,3.41-8.24,2.23-2.25,4.95-3.37,8.18-3.37h1.94c.57,0,.86,.3,.86,.89,0,.64-.29,.95-.86,.95h-1.94c-2.72,0-5.02,.93-6.9,2.8-1.89,1.89-2.86,4.21-2.9,6.97v19.79c0,.57-.29,.86-.86,.86h-.1Z"/><path class="cls-2" d="M417.22,224.72c-.55,0-.83-.29-.83-.86v-7.83c-1.02,1.85-2.25,3.39-3.69,4.64-3.01,2.7-6.57,4.04-10.66,4.04-4.46,0-8.25-1.58-11.39-4.74-3.16-3.14-4.74-6.94-4.74-11.4s1.58-8.25,4.74-11.39c3.14-3.16,6.94-4.74,11.39-4.74s8.25,1.58,11.39,4.74c3.16,3.14,4.74,6.94,4.74,11.39v15.28c0,.57-.29,.86-.86,.86h-.1Zm-25.3-26.25c-2.82,2.8-4.23,6.17-4.23,10.12s1.41,7.32,4.23,10.12c2.8,2.8,6.17,4.2,10.12,4.2s7.32-1.4,10.12-4.2c2.82-2.8,4.23-6.17,4.23-10.12s-1.41-7.32-4.23-10.12c-2.8-2.78-6.17-4.17-10.12-4.17s-7.32,1.39-10.12,4.17Z"/><path class="cls-2" d="M510.16,219.98c-3.16-3.14-4.74-6.94-4.74-11.4s1.58-8.25,4.74-11.39c3.14-3.16,6.94-4.74,11.39-4.74,3.14,0,6.04,.86,8.69,2.58,2.65,1.7,4.64,3.98,5.95,6.84,.11,.23,.13,.45,.06,.64-.08,.25-.22,.42-.41,.51-2.93,1.3-7.06,3.15-12.41,5.57-5.43,2.46-9.55,4.32-12.35,5.57-.3,.13-.68,.31-1.15,.54-.49,.21-.88,.38-1.18,.51,.38,.85,.88,1.62,1.5,2.32,2.89,3.65,6.65,5.47,11.3,5.47,3.03,0,5.79-.89,8.27-2.67,2.48-1.76,4.23-4.07,5.25-6.94,.13-.4,.42-.6,.89-.6,.3,0,.52,.12,.67,.35,.19,.25,.23,.53,.13,.83-1.12,3.2-3.09,5.8-5.89,7.79-2.8,1.97-5.91,2.96-9.32,2.96-4.46,0-8.25-1.58-11.39-4.74Zm1.27-21.42c-2.82,2.8-4.23,6.17-4.23,10.12,0,.7,.04,1.39,.13,2.07,.13,.96,.37,1.9,.73,2.83,2.89-1.31,7.25-3.29,13.08-5.92,5.75-2.59,10.11-4.55,13.08-5.89-.55-.89-1.12-1.66-1.72-2.32-2.88-3.39-6.53-5.09-10.95-5.09-3.95,0-7.32,1.4-10.12,4.2Z"/><path class="cls-2" d="M552.45,222.84l-12.47-29.18c-.13-.3-.11-.56,.06-.8,.17-.27,.42-.41,.73-.41,.42,0,.71,.17,.86,.51l11.23,26.19c.17,.4,.39,.93,.67,1.59,.21,.57,.37,.96,.48,1.15,.3,.61,.7,.93,1.21,.95,.47,.02,.87-.3,1.21-.95,.13-.26,.3-.66,.51-1.21,.32-.74,.54-1.26,.67-1.56l11.17-26.13c.17-.36,.43-.54,.8-.54s.64,.14,.83,.41c.17,.26,.19,.52,.06,.8l-12.47,29.15c-.51,1.27-1.43,1.91-2.77,1.91s-2.26-.63-2.77-1.88Z"/></g><g><path class="cls-2" d="M467.85,204.92l.32-.32c.33-.33,.33-.88,0-1.21s-.88-.33-1.21,0l-.32,.32c-.33,.33-.33,.88,0,1.21,.33,.33,.88,.33,1.21,0Z"/><path class="cls-2" d="M470.74,202.03l2.13-2.13c.33-.33,.33-.88,0-1.21-.33-.33-.88-.33-1.21,0l-2.13,2.13c-.33,.33-.33,.88,0,1.21,.33,.33,.88,.33,1.21,0Z"/><path class="cls-2" d="M499.89,183.75c0-.23,0-.46-.03-.68-.08-.53-.38-.77-.88-.75-.49,.02-.75,.3-.78,.84,0,.18,0,.36,0,.55,0,5.56,0,11.13,0,16.69,0,.23-.02,.46-.03,.69-2.7-4.5-6.47-7.35-11.65-8.24-5.27-.9-9,.52-12.34,3.38h0s-.02,.01-.03,.02l-.07,.07c-.32,.32-.32,.85,0,1.18,.3,.3,.77,.32,1.09,.07h0s-.08,.07,0,0c4.13-3.45,8.46-4.17,13.55-2.42,8.44,2.91,12.04,13.03,7.5,20.78-3.11,5.3-9.28,8-15.29,6.67-2.63-.58-4.87-1.89-6.75-3.81-7-7.12-14-14.24-21-21.36-2.98-3.03-6.62-4.65-10.86-4.75-4.35-.1-8.14,1.39-11.26,4.44-3.3,3.22-4.87,7.19-4.86,11.79,0,8.19,0,16.37,0,24.56,0,.16,0,.32,0,.48,.04,.53,.33,.8,.83,.79,.5,0,.78-.27,.82-.8,.01-.2,0-.41,0-.62,0-5.47,0-10.94,0-16.42v-.72l.12-.03c.09,.12,.18,.23,.26,.35,.35,.54,.65,1.1,1.04,1.61,3.79,4.93,8.8,7.09,14.97,6.31,3.43-.43,6.36-2,8.81-4.44,1.57-1.56,3.12-3.14,4.68-4.71,.17-.17,.35-.33,.63-.59-.04,.26-.04,.37-.07,.48-.4,1.89-.81,3.79-1.21,5.68-.12,.56-.25,1.11-.35,1.67-.11,.6,.02,.9,.42,.99,.43,.1,.69-.13,.84-.76,.01-.04,.03-.09,.04-.13,.72-3.38,1.45-6.77,2.17-10.15,.18-.85-.15-1.18-.98-.99-3.42,.78-6.83,1.56-10.25,2.35-.63,.15-.89,.41-.8,.81,.08,.36,.45,.61,1.11,.45,2.39-.59,4.79-1.12,7.18-1.67,.23-.05,.47-.09,.76-.14-.06,.12-.08,.19-.12,.24-1.98,1.98-3.87,4.08-5.97,5.92-3.79,3.32-8.23,4.29-13.08,2.91-7.65-2.18-11.97-10.39-9.52-18.07,3.27-10.22,15.72-13.24,23.24-5.91,.49,.48,.95,.98,1.43,1.47,3.11,3.17,6.23,6.35,9.34,9.52,3.53,3.59,7.05,7.2,10.61,10.76,2.68,2.68,5.95,4.2,9.73,4.45,4.1,.27,7.82-.87,11.02-3.46,4.08-3.3,5.96-7.68,5.98-12.87,.03-8.16,0-16.32,0-24.49Z"/></g><path class="cls-2" d="M312.19,205.28c-.59-3.09-2.07-5.82-4.45-8.17-2.35-2.37-5.08-3.85-8.17-4.45-1.03-.2-2.1-.3-3.22-.3s-2.09,.1-3.08,.28c-.38,.07-.73,.2-1.1,.3-.59,.16-1.19,.3-1.76,.53-.41,.16-.8,.39-1.19,.59-.49,.25-.99,.49-1.46,.79-.37,.24-.72,.53-1.08,.81-.33,.25-.68,.46-.99,.74-.15,.13-.27,.3-.42,.44-.1,.1-.22,.16-.32,.27-.17,.17-.29,.37-.45,.54-.42,.45-.83,.92-1.2,1.44-.3,.4-.57,.82-.82,1.24-.15,.25-.34,.47-.48,.73v-24.12c0-.57-.28-.86-.83-.86h-.1c-.57,0-.86,.29-.86,.86v46.84c0,.57,.29,.86,.86,.86h.1c.55,0,.83-.29,.83-.86v-7.83c.15,.27,.33,.48,.48,.73,.25,.42,.52,.84,.82,1.24,.38,.51,.78,.98,1.2,1.44,.16,.18,.28,.37,.45,.54,.1,.1,.22,.17,.32,.27,.15,.14,.27,.3,.42,.43,.32,.28,.66,.49,.99,.74,.36,.28,.71,.57,1.08,.81,.47,.3,.96,.54,1.46,.79,.4,.2,.78,.42,1.19,.59,.57,.22,1.17,.37,1.76,.53,.37,.1,.72,.23,1.1,.3,.99,.18,2.02,.28,3.08,.28s2.19-.1,3.22-.3c3.09-.59,5.82-2.07,8.17-4.45,2.37-2.35,3.85-5.08,4.45-8.17,.2-1.03,.3-2.1,.3-3.22s-.1-2.19-.3-3.22Zm-5.72,13.34c-2.8,2.78-6.17,4.17-10.12,4.17s-7.32-1.39-10.12-4.17c-2.82-2.8-4.23-6.17-4.23-10.12s1.41-7.32,4.23-10.12c2.8-2.78,6.17-4.17,10.12-4.17s7.32,1.39,10.12,4.17c2.82,2.8,4.23,6.17,4.23,10.12s-1.41,7.32-4.23,10.12Z"/><g><path class="cls-2" d="M348.5,192.81c-.19-.28-.47-.41-.83-.41s-.63,.18-.8,.54l-11.17,26.13c-.13,.3-.35,.82-.67,1.56-.21,.55-.38,.95-.51,1.21h.01l-7.87,18.44c-.23,.53-.06,.91,.48,1.14l.06,.02c.51,.22,.87,.06,1.1-.46l8.93-20.91,11.32-26.45c.13-.28,.11-.54-.06-.8Z"/><path class="cls-2" d="M330.46,221.34c.36,0,.64-.14,.83-.41,.17-.25,.19-.52,.06-.8l-2.11-4.92h.02c-.11-.2-.27-.58-.48-1.16-.28-.66-.5-1.19-.67-1.59l-8.39-19.56c-.15-.34-.43-.51-.86-.51-.32,0-.56,.14-.73,.41-.17,.23-.19,.5-.06,.8l1.77,4.15h-.02c.13,.27,.3,.67,.51,1.22,.32,.74,.54,1.26,.67,1.56l8.66,20.26c.17,.36,.43,.54,.8,.54Z"/></g></g><g><path class="cls-1" d="M287.7,65.25h-37.64c-.97,0-1.76,.79-1.76,1.76v18.4c0,.97,.79,1.76,1.76,1.76h14.68v22.86s-3.3,1.12-12.41,1.12c-10.75,0-25.78-3.93-25.78-36.96s15.64-37.39,30.33-37.39c12.71,0,18.19,2.24,21.67,3.32,1.09,.34,2.11-.76,2.11-1.73l4.2-17.78c0-.45-.15-1-.67-1.37-1.42-1.01-10.05-5.84-31.86-5.84-25.13,0-50.9,10.69-50.9,62.08s29.51,59.05,54.37,59.05c20.59,0,33.08-8.8,33.08-8.8,.51-.28,.57-1,.57-1.33v-57.39c0-.97-.79-1.76-1.76-1.76Z"/><path class="cls-1" d="M481.67,19.57c0-.98-.78-1.77-1.75-1.77h-21.19c-.97,0-1.76,.79-1.76,1.77,0,0,0,40.95,0,40.95h-33.03V19.57c0-.98-.78-1.77-1.75-1.77h-21.19c-.96,0-1.75,.79-1.75,1.77v110.89c0,.98,.79,1.77,1.75,1.77h21.19c.97,0,1.75-.8,1.75-1.77v-47.43h33.03l-.06,47.43c0,.98,.79,1.77,1.76,1.77h21.24c.97,0,1.75-.8,1.75-1.77V19.57Z"/><g><path class="cls-1" d="M327.69,34.12c0-7.63-6.12-13.8-13.67-13.8s-13.66,6.17-13.66,13.8,6.12,13.81,13.66,13.81,13.67-6.18,13.67-13.81Z"/><path class="cls-1" d="M326.17,107.07V55.88c0-.97-.78-1.77-1.75-1.77h-21.13c-.97,0-1.84,1-1.84,1.97v73.34c0,2.15,1.34,2.8,3.08,2.8h19.03c2.09,0,2.6-1.03,2.6-2.83v-22.32Z"/></g><path class="cls-1" d="M562.21,54.28h-21.03c-.96,0-1.75,.8-1.75,1.77v54.37s-5.34,3.91-12.93,3.91-9.6-3.44-9.6-10.87V56.05c0-.98-.78-1.77-1.75-1.77h-21.34c-.96,0-1.75,.8-1.75,1.77v51.01c0,22.05,12.29,27.45,29.2,27.45,13.87,0,25.06-7.66,25.06-7.66,0,0,.53,4.04,.77,4.52,.24,.48,.87,.96,1.55,.96l13.58-.06c.96,0,1.75-.8,1.75-1.77V56.05c0-.98-.79-1.77-1.76-1.77Z"/><path class="cls-1" d="M619.69,51.79c-11.94,0-20.07,5.33-20.07,5.33V19.57c0-.98-.78-1.77-1.75-1.77h-21.25c-.97,0-1.75,.79-1.75,1.77v110.89c0,.98,.78,1.77,1.75,1.77h14.74c.66,0,1.17-.34,1.54-.94,.37-.6,.9-5.11,.9-5.11,0,0,8.69,8.24,25.14,8.24,19.31,0,30.39-9.8,30.39-43.98s-17.69-38.65-29.64-38.65Zm-8.29,62.48c-7.29-.22-12.24-3.53-12.24-3.53v-35.12s4.88-2.99,10.87-3.53c7.57-.68,14.87,1.61,14.87,19.67,0,19.05-3.29,22.81-13.5,22.5Z"/><path class="cls-1" d="M387.08,54.1h-15.9s-.02-21-.02-21c0-.8-.41-1.19-1.33-1.19h-21.66c-.84,0-1.29,.37-1.29,1.18v21.7s-10.86,2.62-11.59,2.83c-.73,.21-1.27,.89-1.27,1.69v13.64c0,.98,.78,1.77,1.75,1.77h11.11v32.81c0,24.37,17.09,26.76,28.63,26.76,5.27,0,11.58-1.69,12.62-2.08,.63-.23,1-.88,1-1.59l.02-15c0-.98-.83-1.77-1.76-1.77s-3.3,.38-5.74,.38c-7.81,0-10.45-3.63-10.45-8.33s0-31.18,0-31.18h15.9c.97,0,1.75-.79,1.75-1.77v-17.08c0-.98-.79-1.77-1.75-1.77Z"/></g></svg>