<?xml version="1.0" encoding="UTF-8"?><svg id="Layer_1" xmlns="http://www.w3.org/2000/svg" viewBox="0 0 850.76 244.95"><defs><style>.cls-1{fill:#0f0d0e;}.cls-2,.cls-3{fill:#181616;}.cls-3{fill-rule:evenodd;}.cls-4{fill:#2e3a45;stroke:#2e3a45;stroke-miterlimit:10;stroke-width:1.5px;}</style></defs><g><g><path class="cls-4" d="M369.1,224.72c-.55,0-.83-.29-.83-.86v-19.79c.02-3.24,1.16-5.99,3.41-8.24,2.23-2.25,4.95-3.37,8.18-3.37h1.94c.57,0,.86,.3,.86,.89,0,.64-.29,.95-.86,.95h-1.94c-2.72,0-5.02,.93-6.9,2.8-1.89,1.89-2.86,4.21-2.9,6.97v19.79c0,.57-.29,.86-.86,.86h-.1Z"/><path class="cls-4" d="M417.22,224.72c-.55,0-.83-.29-.83-.86v-7.83c-1.02,1.85-2.25,3.39-3.69,4.64-3.01,2.7-6.57,4.04-10.66,4.04-4.46,0-8.25-1.58-11.39-4.74-3.16-3.14-4.74-6.94-4.74-11.4s1.58-8.25,4.74-11.39c3.14-3.16,6.94-4.74,11.39-4.74s8.25,1.58,11.39,4.74c3.16,3.14,4.74,6.94,4.74,11.39v15.28c0,.57-.29,.86-.86,.86h-.1Zm-25.3-26.25c-2.82,2.8-4.23,6.17-4.23,10.12s1.41,7.32,4.23,10.12c2.8,2.8,6.17,4.2,10.12,4.2s7.32-1.4,10.12-4.2c2.82-2.8,4.23-6.17,4.23-10.12s-1.41-7.32-4.23-10.12c-2.8-2.78-6.17-4.17-10.12-4.17s-7.32,1.39-10.12,4.17Z"/><path class="cls-4" d="M510.16,219.98c-3.16-3.14-4.74-6.94-4.74-11.4s1.58-8.25,4.74-11.39c3.14-3.16,6.94-4.74,11.39-4.74,3.14,0,6.04,.86,8.69,2.58,2.65,1.7,4.64,3.98,5.95,6.84,.11,.23,.13,.45,.06,.64-.08,.25-.22,.42-.41,.51-2.93,1.3-7.06,3.15-12.41,5.57-5.43,2.46-9.55,4.32-12.35,5.57-.3,.13-.68,.31-1.15,.54-.49,.21-.88,.38-1.18,.51,.38,.85,.88,1.62,1.5,2.32,2.89,3.65,6.65,5.47,11.3,5.47,3.03,0,5.79-.89,8.27-2.67,2.48-1.76,4.23-4.07,5.25-6.94,.13-.4,.42-.6,.89-.6,.3,0,.52,.12,.67,.35,.19,.25,.23,.53,.13,.83-1.12,3.2-3.09,5.8-5.89,7.79-2.8,1.97-5.91,2.96-9.32,2.96-4.46,0-8.25-1.58-11.39-4.74Zm1.27-21.42c-2.82,2.8-4.23,6.17-4.23,10.12,0,.7,.04,1.39,.13,2.07,.13,.96,.37,1.9,.73,2.83,2.89-1.31,7.25-3.29,13.08-5.92,5.75-2.59,10.11-4.55,13.08-5.89-.55-.89-1.12-1.66-1.72-2.32-2.88-3.39-6.53-5.09-10.95-5.09-3.95,0-7.32,1.4-10.12,4.2Z"/><path class="cls-4" d="M552.45,222.84l-12.47-29.18c-.13-.3-.11-.56,.06-.8,.17-.27,.42-.41,.73-.41,.42,0,.71,.17,.86,.51l11.23,26.19c.17,.4,.39,.93,.67,1.59,.21,.57,.37,.96,.48,1.15,.3,.61,.7,.93,1.21,.95,.47,.02,.87-.3,1.21-.95,.13-.26,.3-.66,.51-1.21,.32-.74,.54-1.26,.67-1.56l11.17-26.13c.17-.36,.43-.54,.8-.54s.64,.14,.83,.41c.17,.26,.19,.52,.06,.8l-12.47,29.15c-.51,1.27-1.43,1.91-2.77,1.91s-2.26-.63-2.77-1.88Z"/></g><g><path class="cls-4" d="M467.85,204.92l.32-.32c.33-.33,.33-.88,0-1.21s-.88-.33-1.21,0l-.32,.32c-.33,.33-.33,.88,0,1.21,.33,.33,.88,.33,1.21,0Z"/><path class="cls-4" d="M470.74,202.03l2.13-2.13c.33-.33,.33-.88,0-1.21-.33-.33-.88-.33-1.21,0l-2.13,2.13c-.33,.33-.33,.88,0,1.21,.33,.33,.88,.33,1.21,0Z"/><path class="cls-4" d="M499.89,183.75c0-.23,0-.46-.03-.68-.08-.53-.38-.77-.88-.75-.49,.02-.75,.3-.78,.84,0,.18,0,.36,0,.55,0,5.56,0,11.13,0,16.69,0,.23-.02,.46-.03,.69-2.7-4.5-6.47-7.35-11.65-8.24-5.27-.9-9,.52-12.34,3.38h0s-.02,.01-.03,.02l-.07,.07c-.32,.32-.32,.85,0,1.18,.3,.3,.77,.32,1.09,.07h0s-.08,.07,0,0c4.13-3.45,8.46-4.17,13.55-2.42,8.44,2.91,12.04,13.03,7.5,20.78-3.11,5.3-9.28,8-15.29,6.67-2.63-.58-4.87-1.89-6.75-3.81-7-7.12-14-14.24-21-21.36-2.98-3.03-6.62-4.65-10.86-4.75-4.35-.1-8.14,1.39-11.26,4.44-3.3,3.22-4.87,7.19-4.86,11.79,0,8.19,0,16.37,0,24.56,0,.16,0,.32,0,.48,.04,.53,.33,.8,.83,.79,.5,0,.78-.27,.82-.8,.01-.2,0-.41,0-.62,0-5.47,0-10.94,0-16.42v-.72l.12-.03c.09,.12,.18,.23,.26,.35,.35,.54,.65,1.1,1.04,1.61,3.79,4.93,8.8,7.09,14.97,6.31,3.43-.43,6.36-2,8.81-4.44,1.57-1.56,3.12-3.14,4.68-4.71,.17-.17,.35-.33,.63-.59-.04,.26-.04,.37-.07,.48-.4,1.89-.81,3.79-1.21,5.68-.12,.56-.25,1.11-.35,1.67-.11,.6,.02,.9,.42,.99,.43,.1,.69-.13,.84-.76,.01-.04,.03-.09,.04-.13,.72-3.38,1.45-6.77,2.17-10.15,.18-.85-.15-1.18-.98-.99-3.42,.78-6.83,1.56-10.25,2.35-.63,.15-.89,.41-.8,.81,.08,.36,.45,.61,1.11,.45,2.39-.59,4.79-1.12,7.18-1.67,.23-.05,.47-.09,.76-.14-.06,.12-.08,.19-.12,.24-1.98,1.98-3.87,4.08-5.97,5.92-3.79,3.32-8.23,4.29-13.08,2.91-7.65-2.18-11.97-10.39-9.52-18.07,3.27-10.22,15.72-13.24,23.24-5.91,.49,.48,.95,.98,1.43,1.47,3.11,3.17,6.23,6.35,9.34,9.52,3.53,3.59,7.05,7.2,10.61,10.76,2.68,2.68,5.95,4.2,9.73,4.45,4.1,.27,7.82-.87,11.02-3.46,4.08-3.3,5.96-7.68,5.98-12.87,.03-8.16,0-16.32,0-24.49Z"/></g><path class="cls-4" d="M312.19,205.28c-.59-3.09-2.07-5.82-4.45-8.17-2.35-2.37-5.08-3.85-8.17-4.45-1.03-.2-2.1-.3-3.22-.3s-2.09,.1-3.08,.28c-.38,.07-.73,.2-1.1,.3-.59,.16-1.19,.3-1.76,.53-.41,.16-.8,.39-1.19,.59-.49,.25-.99,.49-1.46,.79-.37,.24-.72,.53-1.08,.81-.33,.25-.68,.46-.99,.74-.15,.13-.27,.3-.42,.44-.1,.1-.22,.16-.32,.27-.17,.17-.29,.37-.45,.54-.42,.45-.83,.92-1.2,1.44-.3,.4-.57,.82-.82,1.24-.15,.25-.34,.47-.48,.73v-24.12c0-.57-.28-.86-.83-.86h-.1c-.57,0-.86,.29-.86,.86v46.84c0,.57,.29,.86,.86,.86h.1c.55,0,.83-.29,.83-.86v-7.83c.15,.27,.33,.48,.48,.73,.25,.42,.52,.84,.82,1.24,.38,.51,.78,.98,1.2,1.44,.16,.18,.28,.37,.45,.54,.1,.1,.22,.17,.32,.27,.15,.14,.27,.3,.42,.43,.32,.28,.66,.49,.99,.74,.36,.28,.71,.57,1.08,.81,.47,.3,.96,.54,1.46,.79,.4,.2,.78,.42,1.19,.59,.57,.22,1.17,.37,1.76,.53,.37,.1,.72,.23,1.1,.3,.99,.18,2.02,.28,3.08,.28s2.19-.1,3.22-.3c3.09-.59,5.82-2.07,8.17-4.45,2.37-2.35,3.85-5.08,4.45-8.17,.2-1.03,.3-2.1,.3-3.22s-.1-2.19-.3-3.22Zm-5.72,13.34c-2.8,2.78-6.17,4.17-10.12,4.17s-7.32-1.39-10.12-4.17c-2.82-2.8-4.23-6.17-4.23-10.12s1.41-7.32,4.23-10.12c2.8-2.78,6.17-4.17,10.12-4.17s7.32,1.39,10.12,4.17c2.82,2.8,4.23,6.17,4.23,10.12s-1.41,7.32-4.23,10.12Z"/><g><path class="cls-4" d="M348.5,192.81c-.19-.28-.47-.41-.83-.41s-.63,.18-.8,.54l-11.17,26.13c-.13,.3-.35,.82-.67,1.56-.21,.55-.38,.95-.51,1.21h.01l-7.87,18.44c-.23,.53-.06,.91,.48,1.14l.06,.02c.51,.22,.87,.06,1.1-.46l8.93-20.91,11.32-26.45c.13-.28,.11-.54-.06-.8Z"/><path class="cls-4" d="M330.46,221.34c.36,0,.64-.14,.83-.41,.17-.25,.19-.52,.06-.8l-2.11-4.92h.02c-.11-.2-.27-.58-.48-1.16-.28-.66-.5-1.19-.67-1.59l-8.39-19.56c-.15-.34-.43-.51-.86-.51-.32,0-.56,.14-.73,.41-.17,.23-.19,.5-.06,.8l1.77,4.15h-.02c.13,.27,.3,.67,.51,1.22,.32,.74,.54,1.26,.67,1.56l8.66,20.26c.17,.36,.43,.54,.8,.54Z"/></g></g><g><g><path class="cls-1" d="M391.69,59.67h-29.98c-.77,0-1.4,.63-1.4,1.4v14.66c0,.77,.63,1.4,1.4,1.4h11.69v18.21s-2.63,.9-9.89,.9c-8.57,0-20.53-3.13-20.53-29.44s12.46-29.78,24.16-29.78c10.13,0,14.49,1.78,17.26,2.64,.87,.27,1.68-.6,1.68-1.38l3.34-14.16c0-.36-.12-.8-.54-1.09-1.13-.8-8-4.65-25.38-4.65-20.01,0-40.54,8.51-40.54,49.45s23.5,47.03,43.31,47.03c16.4,0,26.35-7.01,26.35-7.01,.41-.23,.45-.8,.45-1.06V61.08c0-.77-.63-1.4-1.4-1.4Z"/><path class="cls-1" d="M546.19,23.28c0-.78-.62-1.41-1.39-1.41h-16.88c-.77,0-1.4,.63-1.4,1.41V55.91h-26.31V23.28c0-.78-.62-1.41-1.39-1.41h-16.88c-.77,0-1.39,.63-1.39,1.41V111.61c0,.78,.63,1.41,1.39,1.41h16.88c.77,0,1.39-.63,1.39-1.41v-37.78h26.31l-.05,37.78c0,.78,.63,1.41,1.4,1.41h16.92c.77,0,1.39-.63,1.39-1.41V23.28Z"/><g><path class="cls-1" d="M423.54,34.87c0-6.08-4.87-10.99-10.89-10.99s-10.88,4.91-10.88,10.99,4.88,11,10.88,11,10.89-4.93,10.89-11Z"/><path class="cls-1" d="M422.33,92.98V52.21c0-.77-.62-1.41-1.4-1.41h-16.83c-.77,0-1.46,.8-1.46,1.57v58.41c0,1.72,1.07,2.23,2.45,2.23h15.16c1.66,0,2.07-.82,2.07-2.25v-17.78Z"/></g><path class="cls-1" d="M610.34,50.93h-16.75c-.77,0-1.39,.63-1.39,1.41v43.31s-4.26,3.11-10.3,3.11-7.64-2.74-7.64-8.65V52.35c0-.78-.62-1.41-1.39-1.41h-17c-.77,0-1.4,.63-1.4,1.41v40.63c0,17.57,9.79,21.86,23.26,21.86,11.05,0,19.96-6.1,19.96-6.1,0,0,.42,3.22,.62,3.6,.19,.38,.69,.76,1.23,.76l10.82-.05c.77,0,1.4-.63,1.4-1.41V52.35c0-.78-.63-1.41-1.4-1.41Z"/><path class="cls-1" d="M656.12,48.95c-9.51,0-15.98,4.24-15.98,4.24V23.28c0-.78-.62-1.41-1.39-1.41h-16.93c-.77,0-1.39,.63-1.39,1.41V111.61c0,.78,.63,1.41,1.4,1.41h11.74c.53,0,.93-.27,1.23-.75,.29-.47,.71-4.07,.71-4.07,0,0,6.92,6.56,20.03,6.56,15.38,0,24.21-7.8,24.21-35.03s-14.09-30.78-23.61-30.78Zm-6.61,49.77c-5.81-.18-9.75-2.81-9.75-2.81v-27.97s3.89-2.38,8.66-2.81c6.03-.54,11.84,1.28,11.84,15.67,0,15.17-2.62,18.17-10.75,17.92Z"/><path class="cls-1" d="M470.85,50.79h-12.66l-.02-16.73c0-.63-.33-.95-1.06-.95h-17.25c-.67,0-1.03,.3-1.03,.94v17.29s-8.65,2.09-9.23,2.26c-.58,.17-1.01,.71-1.01,1.35v10.86c0,.78,.62,1.41,1.4,1.41h8.85v26.13c0,19.41,13.62,21.32,22.8,21.32,4.2,0,9.22-1.35,10.05-1.65,.5-.18,.79-.7,.79-1.27v-11.95c.01-.78-.64-1.41-1.39-1.41s-2.63,.3-4.57,.3c-6.22,0-8.33-2.89-8.33-6.64s0-24.83,0-24.83h12.66c.77,0,1.4-.63,1.4-1.41v-13.61c0-.78-.63-1.41-1.4-1.41Z"/></g><g><path class="cls-3" d="M236.41,4.68c-36.11,0-65.38,29.27-65.38,65.38,0,28.89,18.73,53.4,44.71,62.04,3.27,.6,4.47-1.42,4.47-3.15,0-1.56-.06-6.71-.09-12.17-18.19,3.96-22.03-7.71-22.03-7.71-2.97-7.56-7.26-9.57-7.26-9.57-5.93-4.06,.45-3.97,.45-3.97,6.57,.46,10.02,6.74,10.02,6.74,5.83,10,15.3,7.11,19.03,5.43,.59-4.23,2.28-7.11,4.15-8.74-14.52-1.65-29.79-7.26-29.79-32.31,0-7.14,2.55-12.97,6.74-17.55-.68-1.65-2.92-8.3,.63-17.3,0,0,5.49-1.76,17.98,6.7,5.22-1.45,10.81-2.18,16.37-2.2,5.56,.03,11.15,.75,16.38,2.2,12.48-8.46,17.96-6.7,17.96-6.7,3.56,9.01,1.32,15.66,.64,17.3,4.19,4.58,6.73,10.41,6.73,17.55,0,25.11-15.3,30.64-29.86,32.26,2.35,2.03,4.43,6.01,4.43,12.11,0,8.75-.08,15.79-.08,17.94,0,1.74,1.18,3.78,4.49,3.14,25.97-8.66,44.68-33.16,44.68-62.03,0-36.11-29.27-65.38-65.38-65.38Z"/><path class="cls-2" d="M195.79,98.56c-.14,.33-.66,.42-1.12,.2-.47-.21-.74-.66-.59-.98,.14-.33,.65-.43,1.13-.2,.47,.21,.75,.66,.58,.99h0Zm-.8-.6"/><path class="cls-2" d="M198.44,101.51c-.31,.29-.92,.15-1.34-.3-.43-.46-.51-1.07-.19-1.36,.32-.29,.91-.15,1.34,.3,.43,.46,.51,1.07,.19,1.36h0Zm-.62-.67"/><path class="cls-2" d="M201.02,105.28c-.4,.28-1.06,.02-1.46-.56-.4-.58-.4-1.28,0-1.56,.41-.28,1.05-.03,1.46,.55,.4,.59,.4,1.29,0,1.57h0Zm0,0"/><path class="cls-2" d="M204.55,108.92c-.36,.4-1.12,.29-1.68-.25-.57-.53-.73-1.28-.37-1.67,.36-.4,1.13-.28,1.69,.25,.57,.53,.74,1.28,.36,1.67h0Zm0,0"/><path class="cls-2" d="M209.43,111.03c-.16,.51-.89,.74-1.63,.53-.74-.22-1.22-.82-1.07-1.34,.15-.52,.89-.76,1.64-.53,.74,.22,1.22,.82,1.07,1.34h0Zm0,0"/><path class="cls-2" d="M214.78,111.42c.02,.54-.61,.99-1.39,1-.78,.02-1.41-.42-1.42-.95,0-.54,.61-.99,1.4-1,.78-.01,1.41,.42,1.41,.95h0Zm0,0"/><path class="cls-2" d="M219.76,110.57c.09,.53-.45,1.07-1.22,1.21-.76,.14-1.46-.19-1.56-.71-.09-.54,.46-1.08,1.21-1.22,.77-.13,1.47,.18,1.56,.72h0Zm0,0"/></g></g></svg>