<svg id="Layer_1" data-name="Layer 1" xmlns="http://www.w3.org/2000/svg" viewBox="0 0 583.11 227.28"><defs><style>.cls-1{fill:#fff;}</style></defs><path class="cls-1" d="M48.76,91h72.15a12.28,12.28,0,0,0,12.28-12.28V67.09H48.76Z"/><path class="cls-1" d="M48.76,124.66H90.2a12.28,12.28,0,0,0,12.29-12.28V100.79H48.76Z"/><path class="cls-1" d="M48.76,158.36H60.35a12.28,12.28,0,0,0,12.29-12.28V134.49H48.76Z"/><path class="cls-1" d="M170.1,127.68h6.28a5.49,5.49,0,0,0,5.5-5.49V103.13H191a7.46,7.46,0,0,0,7.47-7.47V92.12H181.88V78.63h18.36A6.77,6.77,0,0,0,207,71.86V67.61H170.1Z"/><path class="cls-1" d="M245.45,127.68V99.11q0-7.78-4.65-11.83t-12.63-4q-7.59,0-12.27,4.25a15.47,15.47,0,0,0-5.05,11h10.84a4.57,4.57,0,0,1,1.84-3.77,7.36,7.36,0,0,1,4.64-1.43,6,6,0,0,1,4.53,1.6,6.24,6.24,0,0,1,1.57,4.55V101L223,103a28.39,28.39,0,0,0-5.38,1.33,16.27,16.27,0,0,0-4.21,2.28,9.15,9.15,0,0,0-2.87,3.63,12.44,12.44,0,0,0-1,5.14q0,6.06,3.67,9.64a13.11,13.11,0,0,0,9.56,3.58q8.31,0,12.41-6.84l.13,1a5.48,5.48,0,0,0,5.45,4.83Zm-11.18-18a8.84,8.84,0,0,1-1.55,5.28,7.58,7.58,0,0,1-3,2.68,8.45,8.45,0,0,1-3.94,1,5.94,5.94,0,0,1-3.72-1,3.41,3.41,0,0,1-1.34-2.83,3.57,3.57,0,0,1,1.25-2.92,8.36,8.36,0,0,1,3.61-1.52l8.68-1.8Z"/><path class="cls-1" d="M262,64.81a6.51,6.51,0,0,0-4.58,1.92,6.64,6.64,0,0,0-2,4.87,6.28,6.28,0,0,0,1.94,4.52,6.66,6.66,0,0,0,4.8,1.88,6.76,6.76,0,0,0,4.8-1.88,6.2,6.2,0,0,0,2-4.7,6.31,6.31,0,0,0-2.08-4.76A7,7,0,0,0,262,64.81Z"/><path class="cls-1" d="M256.59,127.68h5.69a5.49,5.49,0,0,0,5.5-5.49v-38H256.59Z"/><path class="cls-1" d="M290,122.19V105.45c.16-3.68,1.34-6.38,3.51-8.12a13.66,13.66,0,0,1,8.64-2.57v-11a15.1,15.1,0,0,0-8.34,2.06A10.84,10.84,0,0,0,289.41,91l-1.06-6.84H278.8v43.48h5.69A5.49,5.49,0,0,0,290,122.19Z"/><path class="cls-1" d="M354.64,110.34l-.8,4.65-.92-4.65L345.54,84.2h-9.9l-7.39,26.14-1,4.65-.76-4.65L319.91,84.2H308L321,127.68H328a5.71,5.71,0,0,0,5.43-3.92l7.13-21.63,7.89,25.55h7.45a5.73,5.73,0,0,0,5.48-4.06L373.25,84.2H361.31Z"/><path class="cls-1" d="M385.69,78a6.76,6.76,0,0,0,4.8-1.88,6.51,6.51,0,0,0,0-9.39,6.69,6.69,0,0,0-4.78-1.92,6.61,6.61,0,0,0-4.78,1.92,6.34,6.34,0,0,0-2,4.69,6.27,6.27,0,0,0,1.95,4.7A6.66,6.66,0,0,0,385.69,78Z"/><path class="cls-1" d="M391.31,84.2H380.12v43.48h5.69a5.49,5.49,0,0,0,5.5-5.49Z"/><path class="cls-1" d="M425.38,83.24a13.47,13.47,0,0,0-7.17,1.85A12.51,12.51,0,0,0,413.6,90l-.88-5.78h-9.56v43.48h5.47a5.72,5.72,0,0,0,5.72-5.71V104.83c0-3.44.72-6.07,2.15-7.87A6.77,6.77,0,0,1,422,94.25a5.46,5.46,0,0,1,4.57,2,9.26,9.26,0,0,1,1.57,5.79v25.64h5.47a5.72,5.72,0,0,0,5.72-5.71V99.45q0-7.55-3.61-11.88T425.38,83.24Z"/><path class="cls-1" d="M491.91,65.06H480.72V88.89a13.45,13.45,0,0,0-5.24-4.06,18.16,18.16,0,0,0-7.79-1.59,18.5,18.5,0,0,0-14.5,6.51,23.58,23.58,0,0,0-5.74,16.15A25.52,25.52,0,0,0,450,117.42a20.41,20.41,0,0,0,7.21,8.21,18.57,18.57,0,0,0,10.37,3q9.24,0,13.86-6.78l.18,1.15a5.48,5.48,0,0,0,5.43,4.67h4.83Zm-11,41.09a11.8,11.8,0,0,1-3.29,8.78,10.62,10.62,0,0,1-7.69,3.24,10.22,10.22,0,0,1-7.83-3.39,12.52,12.52,0,0,1-3.15-8.88,12.39,12.39,0,0,1,3.17-8.8,10.26,10.26,0,0,1,7.81-3.39,10.49,10.49,0,0,1,9.3,5.47,12.84,12.84,0,0,1,1.68,6.47Z"/><path class="cls-1" d="M521.75,118.7a6.31,6.31,0,0,1-4,1.11,7,7,0,0,1-4.53-1.36,4.34,4.34,0,0,1-.92-1,5.77,5.77,0,0,0-4.82-2.91h-6.93a13.55,13.55,0,0,0,4.63,10.34q4.41,3.81,12.32,3.81a23.71,23.71,0,0,0,6.46-.83,17,17,0,0,0,5.33-2.52,11.42,11.42,0,0,0,3.69-4.44,14.44,14.44,0,0,0,1.34-6.36,11.74,11.74,0,0,0-3.24-8.74q-3.23-3.19-10.91-4.5a16.87,16.87,0,0,1-6-1.84,3.58,3.58,0,0,1-1.61-3.14,4,4,0,0,1,1.26-3.1A4.93,4.93,0,0,1,517.36,92q4.85,0,5,5h11.1a13.25,13.25,0,0,0-4.66-10q-4.39-3.8-11.32-3.79-7.68,0-11.88,4.06a13.5,13.5,0,0,0-4.19,10.1,11,11,0,0,0,3.4,8.5q3.41,3.13,10.54,4.36,4.63.87,6.24,2.09a3.93,3.93,0,0,1,1.61,3.31A3.68,3.68,0,0,1,521.75,118.7Z"/><polygon class="cls-1" points="170.25 146.19 175.01 146.19 175.01 158.53 177.49 158.53 177.49 146.19 182.28 146.19 182.28 143.85 170.25 143.85 170.25 146.19"/><path class="cls-1" d="M189.42,148.16a3.58,3.58,0,0,0-2.87,1.26v-5.88h-2.41v15h2.41v-5.92a2.1,2.1,0,0,1,2.09-2.28c1.51,0,2.07,1,2.07,2.24v6h2.4v-6.37C193.11,149.94,191.91,148.16,189.42,148.16Z"/><path class="cls-1" d="M200.15,148.14a5.36,5.36,0,0,0,.25,10.7,4.54,4.54,0,0,0,4.56-3.18l-2-.65a2.43,2.43,0,0,1-2.53,1.76,2.69,2.69,0,0,1-2.75-2.63H205a3.61,3.61,0,0,0,.06-.76C205.08,150.19,203.26,148.14,200.15,148.14Zm-2.44,4.24a2.42,2.42,0,0,1,2.46-2.23,2.26,2.26,0,0,1,2.49,2.23Z"/><polygon class="cls-1" points="224.8 143.85 221.53 143.85 215.21 150.89 215.21 143.85 212.73 143.85 212.73 158.53 215.21 158.53 215.21 154.31 217.16 152.18 221.74 158.53 224.86 158.53 218.86 150.33 224.8 143.85"/><path class="cls-1" d="M234.41,148.45H232v6a2,2,0,0,1-2.11,2.26c-1.45,0-2-1.06-2-2.3v-5.92h-2.4v6.36a3.72,3.72,0,0,0,3.81,4,3.2,3.2,0,0,0,2.85-1.4,7.38,7.38,0,0,0,.09,1.11h2.3a14.15,14.15,0,0,1-.11-1.84Z"/><path class="cls-1" d="M243.05,148.18a3.66,3.66,0,0,0-3.17,1.51v-6.15h-2.36v15h2.34v-1.34a3.47,3.47,0,0,0,3.11,1.59c2.94,0,4.74-2.3,4.74-5.34S246.07,148.18,243.05,148.18Zm-.48,8.47c-1.53,0-2.71-1.2-2.71-3.19s1.18-3.15,2.71-3.15,2.72,1.14,2.72,3.15S244.15,156.65,242.57,156.65Z"/><path class="cls-1" d="M254.15,148.14a5.36,5.36,0,0,0,.25,10.7,4.55,4.55,0,0,0,4.56-3.18l-2-.65a2.43,2.43,0,0,1-2.53,1.76,2.69,2.69,0,0,1-2.75-2.63H259a3.61,3.61,0,0,0,.06-.76C259.08,150.19,257.26,148.14,254.15,148.14Zm-2.44,4.24a2.42,2.42,0,0,1,2.46-2.23,2.26,2.26,0,0,1,2.49,2.23Z"/><path class="cls-1" d="M263.72,150.06v-1.61h-2.34v10.08h2.41v-4.8c0-1.89.84-3,2.71-3a5.32,5.32,0,0,1,.78.06v-2.44a3.49,3.49,0,0,0-.64-.06A3.06,3.06,0,0,0,263.72,150.06Z"/><path class="cls-1" d="M274.62,148.16a3.37,3.37,0,0,0-3,1.64v-1.35h-2.34v10.08h2.41v-5.81a2.12,2.12,0,0,1,2.09-2.39c1.51,0,2.07,1,2.07,2.24v6h2.4v-6.37C278.26,149.94,277.08,148.16,274.62,148.16Z"/><path class="cls-1" d="M285.31,148.14a5.36,5.36,0,0,0,.24,10.7,4.54,4.54,0,0,0,4.56-3.18l-2-.65a2.43,2.43,0,0,1-2.53,1.76,2.69,2.69,0,0,1-2.75-2.63h7.37a3.61,3.61,0,0,0,.06-.76C290.23,150.19,288.41,148.14,285.31,148.14Zm-2.45,4.24a2.42,2.42,0,0,1,2.47-2.23,2.25,2.25,0,0,1,2.48,2.23Z"/><path class="cls-1" d="M295.58,155.26v-4.68h2.09v-2.13h-2.09v-3.09h-2.17v1.52a1.43,1.43,0,0,1-1.56,1.57h-.52v2.13h1.87v5.08a2.78,2.78,0,0,0,3,3,3.78,3.78,0,0,0,1.47-.23v-2a5.3,5.3,0,0,1-.83.08C296,156.52,295.58,156.15,295.58,155.26Z"/><path class="cls-1" d="M304.16,148.14a5.36,5.36,0,0,0,.24,10.7,4.54,4.54,0,0,0,4.56-3.18l-2-.65a2.43,2.43,0,0,1-2.53,1.76,2.69,2.69,0,0,1-2.75-2.63H309a3.61,3.61,0,0,0,.06-.76C309.08,150.19,307.26,148.14,304.16,148.14Zm-2.45,4.24a2.42,2.42,0,0,1,2.47-2.23,2.25,2.25,0,0,1,2.48,2.23Z"/><path class="cls-1" d="M315.57,152.55l-1.53-.31a1.11,1.11,0,0,1-1-1.06,1.31,1.31,0,0,1,1.45-1.16,1.73,1.73,0,0,1,1.86,1.51l2-.57c-.16-1-1.07-2.82-3.89-2.82a3.5,3.5,0,0,0-3.71,3.25,3,3,0,0,0,2.72,2.94l1.49.33c.8.17,1.18.58,1.18,1.12s-.52,1.16-1.51,1.16a1.88,1.88,0,0,1-2.05-1.72l-2.09.58c.12,1.14,1.24,3,4.16,3,2.56,0,3.81-1.69,3.81-3.23S317.47,153,315.57,152.55Z"/><polygon class="cls-1" points="326.19 158.53 335.26 158.53 335.26 156.21 328.68 156.21 328.68 152.32 334.64 152.32 334.64 150.06 328.68 150.06 328.68 146.17 335.26 146.17 335.26 143.85 326.19 143.85 326.19 158.53"/><path class="cls-1" d="M343.16,148.16a3.37,3.37,0,0,0-3,1.64v-1.35h-2.34v10.08h2.41v-5.81a2.12,2.12,0,0,1,2.09-2.39c1.51,0,2.07,1,2.07,2.24v6h2.4v-6.37C346.8,149.94,345.62,148.16,343.16,148.16Z"/><path class="cls-1" d="M357.84,151.91c0-2-1.18-3.77-4.28-3.77-2.49,0-4.06,1.55-4.25,3.29l2.2.5a1.93,1.93,0,0,1,2.07-1.82c1.32,0,1.9.68,1.9,1.53,0,.35-.16.64-.74.72l-2.59.4c-1.72.25-3,1.24-3,3a3.17,3.17,0,0,0,3.42,3,3.52,3.52,0,0,0,3.11-1.59,5.7,5.7,0,0,0,.1,1.28H358a8.81,8.81,0,0,1-.13-1.61Zm-2.36,2.44A2.29,2.29,0,0,1,353,157a1.33,1.33,0,0,1-1.47-1.3,1.39,1.39,0,0,1,1.34-1.37l2.63-.4Z"/><path class="cls-1" d="M366.27,148.18a3.66,3.66,0,0,0-3.17,1.51v-6.15h-2.36v15h2.34v-1.34a3.47,3.47,0,0,0,3.11,1.59c2.94,0,4.74-2.3,4.74-5.34S369.3,148.18,366.27,148.18Zm-.47,8.47c-1.54,0-2.72-1.2-2.72-3.19s1.18-3.15,2.72-3.15,2.71,1.14,2.71,3.15S367.37,156.65,365.8,156.65Z"/><rect class="cls-1" x="373.25" y="143.54" width="2.4" height="14.99"/><path class="cls-1" d="M382.89,148.14a5.36,5.36,0,0,0,.24,10.7,4.54,4.54,0,0,0,4.56-3.18l-2-.65a2.43,2.43,0,0,1-2.53,1.76,2.69,2.69,0,0,1-2.75-2.63h7.37a3.61,3.61,0,0,0,.06-.76C387.81,150.19,386,148.14,382.89,148.14Zm-2.45,4.24a2.42,2.42,0,0,1,2.47-2.23,2.25,2.25,0,0,1,2.48,2.23Z"/><path class="cls-1" d="M401.69,148.16a3.54,3.54,0,0,0-3.27,1.78,3.16,3.16,0,0,0-3-1.78,3.46,3.46,0,0,0-3,1.57v-1.28h-2.29v10.08h2.38v-6a2.06,2.06,0,0,1,2.09-2.24,1.84,1.84,0,0,1,1.94,2.07v6.15h2.36v-6a2.1,2.1,0,0,1,2.1-2.24,1.84,1.84,0,0,1,1.94,2.07v6.15h2.32V152A3.46,3.46,0,0,0,401.69,148.16Z"/><path class="cls-1" d="M412.32,148.14a5.36,5.36,0,0,0,.25,10.7,4.53,4.53,0,0,0,4.55-3.18l-2-.65a2.42,2.42,0,0,1-2.52,1.76,2.71,2.71,0,0,1-2.76-2.63h7.37a2.79,2.79,0,0,0,.07-.76C417.25,150.19,415.42,148.14,412.32,148.14Zm-2.44,4.24a2.42,2.42,0,0,1,2.46-2.23,2.25,2.25,0,0,1,2.48,2.23Z"/><path class="cls-1" d="M424.87,148.16a3.34,3.34,0,0,0-3,1.64v-1.35h-2.34v10.08H422v-5.81a2.12,2.12,0,0,1,2.09-2.39c1.51,0,2.07,1,2.07,2.24v6h2.4v-6.37C428.51,149.94,427.33,148.16,424.87,148.16Z"/><path class="cls-1" d="M434.48,155.26v-4.68h2.09v-2.13h-2.09v-3.09h-2.17v1.52a1.43,1.43,0,0,1-1.55,1.57h-.52v2.13h1.86v5.08a2.78,2.78,0,0,0,3,3,3.78,3.78,0,0,0,1.47-.23v-2a5.14,5.14,0,0,1-.82.08C434.88,156.52,434.48,156.15,434.48,155.26Z"/><path class="cls-1" d="M450.87,156.46c-2.51,0-4.87-1.82-4.87-5.26s2.42-5.32,4.84-5.32a4.07,4.07,0,0,1,4.27,3.21l2.34-.79a6.4,6.4,0,0,0-6.61-4.76,7.36,7.36,0,0,0-7.39,7.66,7.27,7.27,0,0,0,7.42,7.64,6.58,6.58,0,0,0,6.64-4.86l-2.28-.75A4.36,4.36,0,0,1,450.87,156.46Z"/><path class="cls-1" d="M463.9,148.14a5.35,5.35,0,1,0,5.23,5.34A5.12,5.12,0,0,0,463.9,148.14Zm0,8.55a2.89,2.89,0,0,1-2.82-3.21,2.83,2.83,0,1,1,5.63,0C466.71,155.59,465.39,156.69,463.9,156.69Z"/><path class="cls-1" d="M483,148.16a3.55,3.55,0,0,0-3.27,1.78,3.16,3.16,0,0,0-3-1.78,3.43,3.43,0,0,0-3,1.57v-1.28h-2.3v10.08h2.38v-6a2.07,2.07,0,0,1,2.09-2.24,1.84,1.84,0,0,1,1.95,2.07v6.15h2.36v-6a2.1,2.1,0,0,1,2.09-2.24,1.84,1.84,0,0,1,1.94,2.07v6.15h2.32V152A3.46,3.46,0,0,0,483,148.16Z"/><path class="cls-1" d="M495.07,148.22a3.63,3.63,0,0,0-3.21,1.6v-1.37h-2.32v14h2.38v-5.08a3.65,3.65,0,0,0,3.07,1.39c2.89,0,4.74-2.28,4.74-5.3S498.05,148.22,495.07,148.22Zm-.46,8.43c-1.57,0-2.71-1.24-2.71-3.17s1.14-3.13,2.71-3.13,2.72,1.25,2.72,3.13S496.21,156.65,494.61,156.65Z"/><path class="cls-1" d="M510.17,151.91c0-2-1.18-3.77-4.29-3.77-2.48,0-4.06,1.55-4.24,3.29l2.19.5a1.94,1.94,0,0,1,2.07-1.82c1.33,0,1.91.68,1.91,1.53,0,.35-.17.64-.75.72l-2.59.4c-1.72.25-3,1.24-3,3a3.16,3.16,0,0,0,3.42,3,3.5,3.5,0,0,0,3.1-1.59,5.32,5.32,0,0,0,.11,1.28h2.23a9.34,9.34,0,0,1-.12-1.61Zm-2.36,2.44A2.3,2.3,0,0,1,505.3,157a1.33,1.33,0,0,1-1.47-1.3,1.39,1.39,0,0,1,1.35-1.37l2.63-.4Z"/><path class="cls-1" d="M518.39,148.16a3.34,3.34,0,0,0-3,1.64v-1.35h-2.34v10.08h2.4v-5.81a2.12,2.12,0,0,1,2.09-2.39c1.52,0,2.07,1,2.07,2.24v6H522v-6.37C522,149.94,520.86,148.16,518.39,148.16Z"/><polygon class="cls-1" points="529.08 154.83 526.18 148.45 523.47 148.45 527.78 157.33 525.35 162.61 527.92 162.61 534.34 148.45 531.79 148.45 529.08 154.83"/></svg>