<?xml version="1.0" encoding="utf-8"?>
<!-- Generator: Adobe Illustrator 24.1.2, SVG Export Plug-In . SVG Version: 6.00 Build 0)  -->
<svg version="1.1" id="Layer_1" xmlns="http://www.w3.org/2000/svg" xmlns:xlink="http://www.w3.org/1999/xlink" x="0px" y="0px"
	 viewBox="0 0 312.4 103.2" style="enable-background:new 0 0 312.4 103.2;" xml:space="preserve">
<style type="text/css">
	.st0{fill:#FFFFFF;}
	.st1{fill:url(#SVGID_1_);}
	.st2{fill:#24334E;}
	.st3{fill:#737176;}
	.st4{fill:url(#SVGID_2_);}
</style>
<g>
	<g>
		<g id="XMLID_40_">
			<g id="XMLID_41_">
				<g>
					<g>
						<path class="st0" d="M109.1,32.2h5v22.6h-5V32.2z"/>
						<path class="st0" d="M118.8,43.6L118.8,43.6c0-6.5,5.1-11.7,12-11.7s12,5.2,12,11.6v0.1c0,6.4-5.1,11.7-12,11.7
							S118.8,50,118.8,43.6z M137.6,43.6L137.6,43.6c0-3.9-2.8-7.2-6.8-7.2s-6.8,3.2-6.8,7v0.1c0,3.9,2.8,7.1,6.8,7.1
							C134.8,50.6,137.6,47.4,137.6,43.6z"/>
						<path class="st0" d="M146.8,43.6L146.8,43.6c0-6.5,4.8-11.7,11.3-11.7c4,0,6.5,1.5,8.8,3.6l-1.2,1.2c-2-1.9-4.2-3.3-7.6-3.3
							c-5.4,0-9.5,4.4-9.5,10.1v0.1c0,5.7,4.2,10.2,9.6,10.2c3.3,0,5.5-1.3,7.8-3.5l1.1,1.1c-2.4,2.4-5,3.9-9,3.9
							C151.6,55.2,146.8,50,146.8,43.6z"/>
						<path class="st0" d="M170,43.6L170,43.6c0-6.2,4.5-11.7,11.4-11.7c6.8,0,11.3,5.5,11.3,11.6v0.1c0,6.2-4.5,11.7-11.4,11.7
							C174.5,55.2,170,49.7,170,43.6z M191,43.6L191,43.6c0-5.6-4.1-10.2-9.6-10.2c-5.6,0-9.6,4.5-9.6,10.1v0.1
							c0,5.6,4.1,10.2,9.6,10.2C187,53.7,191,49.1,191,43.6z"/>
						<path class="st0" d="M198.4,32.2h1.6l15.6,19.6V32.2h1.6v22.6h-1.3L200,34.7v20.1h-1.6V32.2z"/>
						<path class="st0" d="M223.9,32.2h1.6l15.6,19.6V32.2h1.6v22.6h-1.3l-15.9-20.1v20.1h-1.6V32.2z"/>
						<path class="st0" d="M249.4,32.2h16.1v1.5h-14.4v8.9H264v1.5h-12.9v9.1h14.6v1.5h-16.2V32.2z"/>
						<path class="st0" d="M270,43.6L270,43.6c0-6.5,4.8-11.7,11.3-11.7c4,0,6.5,1.5,8.8,3.6l-1.2,1.2c-2-1.9-4.2-3.3-7.6-3.3
							c-5.4,0-9.5,4.4-9.5,10.1v0.1c0,5.7,4.2,10.2,9.6,10.2c3.3,0,5.5-1.3,7.8-3.5l1.1,1.1c-2.4,2.4-5,3.9-9,3.9
							C274.8,55.2,270,50,270,43.6z"/>
						<path class="st0" d="M301.1,33.8h-7.9v-1.5h17.4v1.5h-7.9v21h-1.7V33.8z"/>
					</g>
					<g>
						<path class="st0" d="M107.9,76.7l0.9-1c2,1.8,3.8,2.7,6.4,2.7c2.7,0,4.5-1.5,4.5-3.6v-0.1c0-1.9-1-3-5.1-3.8
							c-4.3-0.9-6.1-2.3-6.1-5.1v-0.1c0-2.7,2.4-4.7,5.8-4.7c2.6,0,4.3,0.7,6.2,2.2l-0.8,1.1c-1.7-1.5-3.4-2-5.4-2
							c-2.6,0-4.4,1.5-4.4,3.4v0.1c0,1.9,1,3.1,5.2,3.9c4.2,0.8,5.9,2.3,5.9,4.9v0.1c0,2.9-2.5,4.9-5.9,4.9
							C112.2,79.6,110,78.7,107.9,76.7z"/>
						<path class="st0" d="M135.7,61.4h12.8v1.2H137v7.1h10.3v1.2H137v7.2h11.6v1.2h-12.9V61.4z"/>
						<path class="st0" d="M163.1,61.4h7.5c2.2,0,4,0.7,5.1,1.8c0.8,0.8,1.4,2.1,1.4,3.3v0.1c0,3-2.2,4.7-5.3,5.1l5.9,7.7H176
							l-5.7-7.4h-5.9v7.4h-1.3V61.4z M170.5,70.7c3,0,5.2-1.5,5.2-4.1v-0.1c0-2.4-1.9-3.9-5.2-3.9h-6.1v8.1H170.5z"/>
						<path class="st0" d="M189.9,61.4h1.5l7,16.5l7.1-16.5h1.4l-7.9,18.1h-1.2L189.9,61.4z"/>
						<path class="st0" d="M221.1,61.4h1.3v17.9h-1.3V61.4z"/>
						<path class="st0" d="M237.4,70.4L237.4,70.4c0-5.1,3.8-9.3,9-9.3c3.2,0,5.1,1.2,7,2.9l-0.9,1c-1.6-1.5-3.4-2.6-6.1-2.6
							c-4.3,0-7.6,3.5-7.6,8v0.1c0,4.5,3.3,8.1,7.6,8.1c2.6,0,4.4-1,6.2-2.8l0.9,0.9c-1.9,1.9-3.9,3.1-7.1,3.1
							C241.2,79.7,237.4,75.6,237.4,70.4z"/>
						<path class="st0" d="M267.3,61.4h12.8v1.2h-11.4v7.1H279v1.2h-10.3v7.2h11.6v1.2h-12.9V61.4z"/>
						<path class="st0" d="M293.6,76.7l0.9-1c2,1.8,3.8,2.7,6.4,2.7c2.7,0,4.5-1.5,4.5-3.6v-0.1c0-1.9-1-3-5.1-3.8
							c-4.3-0.9-6.1-2.3-6.1-5.1v-0.1c0-2.7,2.4-4.7,5.8-4.7c2.6,0,4.3,0.7,6.2,2.2l-0.8,1.1c-1.7-1.5-3.4-2-5.4-2
							c-2.6,0-4.4,1.5-4.4,3.4v0.1c0,1.9,1,3.1,5.2,3.9c4.2,0.8,5.9,2.3,5.9,4.9v0.1c0,2.9-2.5,4.9-5.9,4.9
							C298,79.6,295.8,78.7,293.6,76.7z"/>
					</g>
				</g>
			</g>
		</g>
	</g>
	<g>
		<g>
			<linearGradient id="SVGID_1_" gradientUnits="userSpaceOnUse" x1="44.6596" y1="2.8996" x2="44.6596" y2="132.7348">
				<stop  offset="0" style="stop-color:#00A6D6"/>
				<stop  offset="0.1791" style="stop-color:#0596C4"/>
				<stop  offset="0.5382" style="stop-color:#136E95"/>
				<stop  offset="1" style="stop-color:#283251"/>
			</linearGradient>
			<path class="st1" d="M87.5,50.4c0-30.5-20.2-50.8-42.6-50.2c0,0,0,0,0,0c0,0,0,0,0.1,0c2.3,1.9,3.7,5.1,3.9,9c0,0.1,0,0.3,0,0.4
				c0,0.1,0,0.2,0,0.3c0,0,0,0,0,0c0,0,0,0,0,0c0,0.5,0,1-0.1,1.4c0,0.1,0,0.2,0,0.3c0,0.1,0,0.2,0,0.4c-0.9,7.1-5.9,13.2-11.8,14
				c-2.6,0.4-5-0.4-6.8-1.9c0,0,0,0-0.1,0c-2.3-1.9-3.7-5.1-3.9-9c0-0.1,0-0.3,0-0.4c0-0.1,0-0.2,0-0.3c0,0,0,0,0,0c0,0,0,0,0,0
				c0-0.5,0-1,0.1-1.4c0-0.1,0-0.2,0-0.3c0-0.1,0-0.2,0-0.4c0.4-3.1,1.5-5.9,3.2-8.3C12.8,12.1,1.8,32.1,1.8,52.8
				c0,19.3,9.5,37.5,24.4,45.6v-51c0-7.3,4.7-13.7,10.8-14.3l0,0c6.4-0.7,11.9,5.2,11.9,13.2v56.3C69.7,99.7,87.5,79,87.5,50.4z"/>
		</g>
		<path id="XMLID_30_" class="st0" d="M37,33.1L37,33.1c-6.1,0.7-10.8,7.1-10.8,14.3v51c3.3,1.8,7,3.2,10.8,3.9
			c4,0.8,8,0.8,11.9,0.3V46.3C48.9,38.3,43.4,32.4,37,33.1z"/>
		<path id="XMLID_29_" class="st0" d="M45,0.2c-2.6,0.1-5.3,0.4-8,1.1c-2.6,0.6-5.1,1.6-7.5,2.7c-2.1,2.9-3.3,6.7-3.3,10.4
			c0,7.3,4.7,12.5,10.8,11.6c6.4-0.9,11.9-8.2,11.9-16.2C48.9,5.6,47.4,2.2,45,0.2z"/>
	</g>
</g>
</svg>
