<?xml version="1.0" encoding="utf-8"?>
<!-- Generator: Adobe Illustrator 24.2.1, SVG Export Plug-In . SVG Version: 6.00 Build 0)  -->
<svg version="1.1" id="Layer_1" xmlns="http://www.w3.org/2000/svg" xmlns:xlink="http://www.w3.org/1999/xlink" x="0px" y="0px"
	 viewBox="0 0 1037.9 279.4" style="enable-background:new 0 0 1037.9 279.4;" xml:space="preserve">
<style type="text/css">
	.st0{fill:#00305B;}
	.st1{fill:#01B2EB;}
</style>
<g>
	<g>
		<g>
			<path class="st0" d="M367.7,129.5V49.3l-34.6,52.5h-0.7l-34.2-52v79.7h-26.4V6.7h29.1l32.3,51.9l32.2-51.9h29.1v122.8H367.7z"/>
			<path class="st0" d="M480,129.5v-13.3c-6.1,7.9-14,15.1-27.5,15.1c-20.2,0-31.9-13.3-31.9-34.9V35.5h26.7V88
				c0,12.6,6,19.1,16.1,19.1c10.2,0,16.7-6.5,16.7-19.1V35.5h26.7v94H480z"/>
			<path class="st0" d="M531.7,129.5V1.4h26.7v128.1H531.7z"/>
			<path class="st0" d="M670.9,91.8h-65.4c2.6,12.1,11.1,18.4,23,18.4c8.9,0,15.4-2.8,22.8-9.6l15.3,13.5
				c-8.8,10.9-21.4,17.5-38.4,17.5c-28.2,0-49.1-19.8-49.1-48.6v-0.4c0-26.8,19.1-48.9,46.5-48.9c31.4,0,45.8,24.4,45.8,51.1v0.4
				C671.2,87.7,671,89.3,670.9,91.8z M625.4,55.1c-11.1,0-18.2,7.9-20.3,20h40.2C643.7,63.2,636.7,55.1,625.4,55.1z"/>
			<path class="st0" d="M716.4,70.6c-18.3,0-32.5-14.7-32.5-32.5s14.4-32.7,32.6-32.7S749,20.1,749,37.9S734.6,70.6,716.4,70.6z
				 M716.5,9c-16.5,0-28.9,13-28.9,29.1S699.9,67,716.3,67c16.5,0,28.9-13,28.9-29.1C745.3,21.9,732.9,9,716.5,9z M724.6,41.9
				l8.5,12.4h-8.9l-7.4-11.2h-6v11.2h-7.6V19.7h15.4c8.3,0,13.6,4.2,13.6,11.4C732,36.8,729,40.3,724.6,41.9z M718.2,26.5h-7.5v10.2
				h7.6c3.9,0,5.9-2.1,5.9-5C724.3,28.2,721.9,26.5,718.2,26.5z"/>
		</g>
		<g>
			<path class="st0" d="M272.5,255.2v-97.8H294v97.8H272.5z"/>
			<path class="st0" d="M363.6,255.2v-41.7c0-10.1-4.8-15.2-12.9-15.2c-8.1,0-13.3,5.2-13.3,15.2v41.8h-21.1v-74.9h21.2V191
				c4.9-6.3,11.2-12,21.9-12c16.1,0,25.4,10.6,25.4,27.8v48.5h-21.2V255.2z"/>
			<path class="st0" d="M428.6,256.5c-13,0-21.8-5.2-21.8-22.5v-35.5h-8.9v-18.2h8.9v-19.1H428v19.1h17.6v18.2H428v32
				c0,4.9,2.1,7.3,6.8,7.3c3.9,0,7.4-1,10.5-2.7v17C440.9,254.8,435.7,256.5,428.6,256.5z"/>
			<path class="st0" d="M528.7,225.2h-52.1c2.1,9.6,8.8,14.7,18.3,14.7c7.1,0,12.3-2.2,18.2-7.7l12.2,10.8c-7,8.7-17,14-30.6,14
				c-22.5,0-39.1-15.8-39.1-38.7V218c0-21.4,15.2-39,37-39c25,0,36.5,19.4,36.5,40.7v0.3C529,222,528.9,223.2,528.7,225.2z
				 M492.6,196c-8.8,0-14.5,6.3-16.2,15.9h32C507.1,202.4,501.5,196,492.6,196z"/>
			<path class="st0" d="M578.3,277.9c-12.2,0-23.6-2.8-33.1-7.8l7.3-15.9c7.7,4.3,15.4,6.8,25.3,6.8c14.5,0,21.4-7,21.4-20.4V237
				c-6.3,7.5-13.1,12.2-24.4,12.2c-17.5,0-33.2-12.7-33.2-34.9V214c0-22.4,16.1-34.9,33.2-34.9c11.6,0,18.4,4.9,24.2,11.2v-9.8h21.2
				v58C620.1,266.5,606.1,277.9,578.3,277.9z M599.2,213.9c0-10.2-8-17.3-18.3-17.3s-18.2,7.1-18.2,17.3v0.3
				c0,10.3,7.8,17.3,18.2,17.3c10.3,0,18.3-7.1,18.3-17.3V213.9z"/>
			<path class="st0" d="M683.1,201.2c-14.1,0-22.8,8.5-22.8,26.4v27.7h-21.2v-74.9h21.2v15.1c4.3-10.3,11.3-17,23.9-16.5v22.2H683.1
				z"/>
			<path class="st0" d="M737.9,255.2v-8.1c-5.2,5.7-12.3,9.5-22.6,9.5c-14.1,0-25.7-8.1-25.7-22.9v-0.3c0-16.3,12.4-23.9,30.2-23.9
				c7.5,0,13,1.3,18.3,3.1v-1.3c0-8.8-5.4-13.7-16.1-13.7c-8.1,0-13.8,1.5-20.7,4.1l-5.3-16.2c8.2-3.6,16.3-6,29.1-6
				c23.2,0,33.4,12,33.4,32.3v43.4L737.9,255.2L737.9,255.2z M738.3,225.1c-3.6-1.7-8.4-2.8-13.5-2.8c-9.1,0-14.7,3.6-14.7,10.3v0.3
				c0,5.7,4.7,9.1,11.6,9.1c9.9,0,16.6-5.4,16.6-13.1V225.1z"/>
			<path class="st0" d="M801.3,256.5c-13,0-21.8-5.2-21.8-22.5v-35.5h-8.9v-18.2h8.9v-19.1h21.2v19.1h17.6v18.2h-17.6v32
				c0,4.9,2.1,7.3,6.8,7.3c3.9,0,7.4-1,10.5-2.7v17C813.6,254.8,808.4,256.5,801.3,256.5z"/>
			<path class="st0" d="M834.4,172.1v-18.9h22.4v18.9H834.4z M835,255.2v-74.9h21.2v74.9L835,255.2L835,255.2z"/>
			<path class="st0" d="M912.9,256.9c-23.2,0-40.4-17.2-40.4-38.7v-0.3c0-21.5,17.3-39,40.7-39c23.2,0,40.4,17.2,40.4,38.7v0.3
				C953.6,239.4,936.2,256.9,912.9,256.9z M932.6,217.9c0-11-8-20.7-19.7-20.7c-12.2,0-19.4,9.4-19.4,20.4v0.3
				c0,11,8,20.7,19.7,20.7c12.2,0,19.4-9.4,19.4-20.4V217.9z"/>
			<path class="st0" d="M1016.3,255.2v-41.7c0-10.1-4.8-15.2-12.9-15.2c-8.1,0-13.3,5.2-13.3,15.2v41.8h-21.2v-74.9h21.2V191
				c4.9-6.3,11.2-12,21.9-12c16.1,0,25.4,10.6,25.4,27.8v48.5h-21.1V255.2z"/>
		</g>
	</g>
	<g>
		<path class="st1" d="M207.3,12.7c2.8,4.8,4.9,9.7,6.9,14.6C218,37,221,47,222.6,57.4c2.7,17,2.2,33.8-3.8,50.2
			c-4.8,13.2-12.6,24.6-23,34.2c-7,6.5-14.7,12-23,16.7c-1.2,0.7-1.3,1.4-1,2.6c6.7,26.7,13.3,53.4,20.1,80c0.4,1.4,0,2-1.1,2.6
			c-13.4,6.8-27.3,12.1-41.9,15.3c-13.1,2.9-26.5,4-39.9,3.5c-14.6-0.5-28.9-2.6-42.9-6.9c-10.3-3.1-20.3-7-30.1-11.6
			c-1.3-0.6-2.3-1.2-1.8-3.1c5.8-21.8,11.6-43.7,17.3-65.6c1.3-4.9,2.5-9.8,3.9-14.7c0.4-1.3-0.4-1.6-1.2-2.1
			c-4.7-2.5-9.2-5.3-13.6-8.4c-10.4-7.2-19.3-15.8-26.3-26.4c-6.9-10.5-11.3-22-13-34.4c-2.1-15.7-0.4-31.1,4-46.2
			c2.8-9.9,6.8-19.3,11.6-28.4c1.1-2.1,1.1-2.1,2.4-0.2C28.1,27.7,36.9,41,45.6,54.3C54.1,67.1,62.5,79.8,71,92.6
			c7.2,10.9,14.4,21.9,21.6,32.9c0.8,1.3,1.7,1.8,3.3,1.8c12.5-0.1,25-0.1,37.5,0c1.3,0,2.1-0.3,2.9-1.5
			c8.2-13.2,16.4-26.3,24.7-39.5c4.8-7.6,9.6-15.2,14.3-22.7c6.8-10.7,13.5-21.4,20.3-32.1C199.4,25.3,203.3,19.1,207.3,12.7z"/>
	</g>
</g>
</svg>
