<svg id="Layer_1" data-name="Layer 1" xmlns="http://www.w3.org/2000/svg" viewBox="0 0 942.11 942.11"><defs><style>.cls-1,.cls-2,.cls-3{fill:#2b3a46;}.cls-1,.cls-2,.cls-6{stroke:#2b3a46;}.cls-1,.cls-2{stroke-miterlimit:10;}.cls-1{stroke-width:0.08px;}.cls-2{stroke-width:0.06px;}.cls-4{fill:#3f9588;}.cls-5,.cls-6{fill:none;stroke-linecap:round;stroke-linejoin:round;stroke-width:9px;}.cls-5{stroke:#3f9588;}</style></defs><path class="cls-1" d="M402.84,878.52a.91.91,0,0,1-1-1v-24a13.78,13.78,0,0,1,4.13-10,13.39,13.39,0,0,1,9.91-4.09h2.36a.94.94,0,0,1,1,1.08c0,.77-.35,1.16-1,1.16h-2.36a11.43,11.43,0,0,0-8.36,3.39,11.76,11.76,0,0,0-3.52,8.45v24a.92.92,0,0,1-1,1Z"/><path class="cls-1" d="M461.16,878.52c-.67,0-1-.35-1-1V868a20.36,20.36,0,0,1-4.48,5.63A19.47,19.47,0,1,1,462.32,859v18.52a.92.92,0,0,1-1,1ZM430.5,846.7a17.4,17.4,0,1,0,24.53,0,17.42,17.42,0,0,0-24.53,0Z"/><path class="cls-1" d="M573.82,872.78a19.51,19.51,0,0,1,24.33-30.24,19,19,0,0,1,7.22,8.29,1,1,0,0,1,.07.77.94.94,0,0,1-.5.62q-5.33,2.35-15,6.74-9.87,4.49-15,6.76c-.36.15-.82.37-1.39.65l-1.42.62a11,11,0,0,0,1.81,2.82,17.33,17.33,0,0,0,23.72,3.39,17.13,17.13,0,0,0,6.37-8.41,1,1,0,0,1,1.08-.73.9.9,0,0,1,.81.42,1,1,0,0,1,.15,1,19.49,19.49,0,0,1-18.43,13A18.72,18.72,0,0,1,573.82,872.78Zm1.54-26a16.64,16.64,0,0,0-5.13,12.26,20.76,20.76,0,0,0,.15,2.51,15.08,15.08,0,0,0,.89,3.43l15.85-7.17L603,850.71a19.85,19.85,0,0,0-2.09-2.82,17.34,17.34,0,0,0-25.53-1.07Z"/><path class="cls-1" d="M625.08,876.25,610,840.88a.91.91,0,0,1,.08-1,1,1,0,0,1,.88-.5,1,1,0,0,1,1,.62l13.62,31.74c.21.49.48,1.14.81,1.93a12.5,12.5,0,0,0,.58,1.39,1.73,1.73,0,0,0,1.47,1.16c.56,0,1-.36,1.46-1.16.16-.31.36-.8.62-1.47l.81-1.89,13.54-31.67a1,1,0,0,1,1-.65,1.17,1.17,0,0,1,1,.5.94.94,0,0,1,.07,1l-15.12,35.33a3.6,3.6,0,0,1-6.71,0Z"/><path class="cls-2" d="M522.53,854.52l.39-.39a1,1,0,0,0-1.47-1.46l-.38.38a1,1,0,1,0,1.46,1.47Z"/><path class="cls-2" d="M526,851l2.59-2.59a1,1,0,1,0-1.46-1.47l-2.59,2.59A1,1,0,1,0,526,851Z"/><path class="cls-2" d="M561.37,828.86a5.62,5.62,0,0,0,0-.82,1,1,0,0,0-2,.12c0,.22,0,.44,0,.66v20.23c0,.28,0,.56,0,.84-3.28-5.46-7.84-8.91-14.12-10a16.89,16.89,0,0,0-15,4.09h0l0,0-.08.08a1,1,0,0,0,1.32,1.51h0s-.1.09,0,0c5-4.18,10.25-5.06,16.41-2.93a17.37,17.37,0,0,1,9.09,25.18,17.16,17.16,0,0,1-18.53,8.08,16.31,16.31,0,0,1-8.19-4.61q-12.74-12.95-25.45-25.9a19,19,0,0,0-26.83-.38,19.21,19.21,0,0,0-5.89,14.3q0,14.88,0,29.76c0,.2,0,.39,0,.58a1,1,0,0,0,2,0c0-.25,0-.5,0-.74V868.16l.15,0c.1.14.22.28.31.43.42.65.79,1.34,1.26,2,4.6,6,10.66,8.59,18.15,7.65a18.17,18.17,0,0,0,10.68-5.39c1.9-1.89,3.78-3.8,5.67-5.7.2-.21.43-.4.77-.71-.05.32-.06.45-.09.58-.48,2.29-1,4.59-1.46,6.88-.15.68-.3,1.35-.43,2s0,1.09.51,1.2.84-.16,1-.92c0,0,0-.1,0-.16q1.32-6.15,2.63-12.3c.22-1-.18-1.43-1.19-1.2l-12.42,2.84c-.77.18-1.08.5-1,1s.55.74,1.34.54c2.89-.72,5.8-1.35,8.71-2,.28-.06.57-.1.91-.16a1.4,1.4,0,0,1-.14.28c-2.4,2.41-4.69,4.94-7.24,7.18a16.14,16.14,0,0,1-15.85,3.53,17.25,17.25,0,0,1-11.54-21.9A17,17,0,0,1,503,846.58c.6.58,1.16,1.19,1.74,1.78q5.66,5.77,11.33,11.54c4.28,4.35,8.54,8.72,12.86,13a17.92,17.92,0,0,0,11.8,5.39,18.62,18.62,0,0,0,13.35-4.18,19.17,19.17,0,0,0,7.25-15.6C561.41,848.65,561.38,838.76,561.37,828.86Z"/><path class="cls-3" d="M333.86,855a19.88,19.88,0,0,0-15.3-15.29,21,21,0,0,0-7.64,0c-.46.08-.88.25-1.33.36a19.36,19.36,0,0,0-2.13.64c-.5.2-1,.47-1.45.72a16.64,16.64,0,0,0-1.76,1c-.45.29-.88.64-1.31,1s-.82.56-1.2.91c-.18.15-.33.36-.51.52s-.26.2-.38.32-.35.45-.55.66a20.66,20.66,0,0,0-1.46,1.74c-.36.49-.68,1-1,1.5-.19.31-.41.57-.59.89V820.6c0-.7-.33-1-1-1h-.12a.92.92,0,0,0-1,1v56.78a.92.92,0,0,0,1,1h.12c.67,0,1-.35,1-1v-9.49c.18.32.4.58.59.88.31.51.63,1,1,1.51A20.66,20.66,0,0,0,300.3,872c.2.21.34.44.55.65s.26.21.38.32.33.37.51.53c.38.34.8.6,1.2.9s.86.69,1.31,1a16.64,16.64,0,0,0,1.76,1c.48.24.95.52,1.45.71a17.41,17.41,0,0,0,2.13.64c.45.12.87.28,1.33.37a21,21,0,0,0,7.64,0,19.91,19.91,0,0,0,15.3-15.3,21.31,21.31,0,0,0,0-7.8Zm-6.94,16.17a17.2,17.2,0,1,1,5.14-12.27A16.76,16.76,0,0,1,326.92,871.13Z"/><path class="cls-3" d="M377.87,839.84a1.16,1.16,0,0,0-1-.5,1,1,0,0,0-1,.65l-13.54,31.67-.81,1.89c-.26.67-.46,1.16-.62,1.47h0l-9.53,22.34a.94.94,0,0,0,.58,1.38l.07,0a.9.9,0,0,0,1.33-.57l10.82-25.35,13.72-32.06A.92.92,0,0,0,377.87,839.84Z"/><path class="cls-3" d="M356,874.43a1.14,1.14,0,0,0,1-.5.94.94,0,0,0,.08-1l-2.56-6h0a10.55,10.55,0,0,1-.57-1.39l-.82-1.93L343,840a1,1,0,0,0-1-.61,1,1,0,0,0-.89.5.91.91,0,0,0-.08,1l2.15,5h0c.15.31.36.8.61,1.47l.81,1.89L355,873.77A1,1,0,0,0,356,874.43Z"/><path class="cls-4" d="M825.22,303a16,16,0,0,1,16,16V623.08a16,16,0,0,1-16,16h-446a16,16,0,0,1-16-16V319a16,16,0,0,1,16-16h446m0-9h-446a25,25,0,0,0-25,25V623.08a25,25,0,0,0,25,25h446a25,25,0,0,0,25-25V319a25,25,0,0,0-25-25Z"/><line class="cls-5" x1="364.69" y1="303.04" x2="602.47" y2="541.54"/><line class="cls-5" x1="602.44" y1="541.51" x2="840" y2="303.95"/><line class="cls-5" x1="367.8" y1="638.29" x2="533.62" y2="472.47"/><line class="cls-5" x1="838.79" y1="639.63" x2="673.6" y2="474.44"/><line class="cls-6" x1="91.87" y1="561.96" x2="325.49" y2="561.96"/><line class="cls-6" x1="91.87" y1="476.4" x2="325.49" y2="476.4"/><line class="cls-6" x1="91.87" y1="390.85" x2="325.49" y2="390.85"/><line class="cls-6" x1="137.21" y1="433.63" x2="325.49" y2="433.63"/><line class="cls-6" x1="141.11" y1="519.18" x2="325.49" y2="519.18"/></svg>