<svg id="Layer_1" data-name="Layer 1" xmlns="http://www.w3.org/2000/svg" viewBox="0 0 942.11 942.11"><defs><style>.cls-1{fill:#1d1c1f;}.cls-2,.cls-3,.cls-4{fill:#fff;}.cls-2,.cls-3{stroke:#fff;stroke-miterlimit:10;}.cls-2{stroke-width:0.08px;}.cls-3{stroke-width:0.06px;}.cls-5{fill:#3f9588;}.cls-6,.cls-7{fill:none;stroke-linecap:round;stroke-linejoin:round;stroke-width:9px;}.cls-6{stroke:#3f9588;}.cls-7{stroke:#8e8e8e;}</style></defs><rect class="cls-1" width="942.11" height="942.11"/><path class="cls-2" d="M402.84,888a.91.91,0,0,1-1-1V863A13.75,13.75,0,0,1,406,853a13.39,13.39,0,0,1,9.91-4.09h2.36a.94.94,0,0,1,1,1.08c0,.77-.35,1.15-1,1.15h-2.36a11.44,11.44,0,0,0-8.36,3.4A11.75,11.75,0,0,0,404,863v24a.92.92,0,0,1-1,1Z"/><path class="cls-2" d="M461.16,888c-.67,0-1-.35-1-1v-9.49a20.51,20.51,0,0,1-4.48,5.63,19.48,19.48,0,1,1,6.64-14.66v18.52a.92.92,0,0,1-1,1ZM430.5,856.16a17.4,17.4,0,1,0,24.53,0,17.39,17.39,0,0,0-24.53,0Z"/><path class="cls-2" d="M573.82,882.23a19.55,19.55,0,0,1,13.81-33.36,19.65,19.65,0,0,1,17.74,11.42,1,1,0,0,1,.07.77.92.92,0,0,1-.5.61q-5.33,2.36-15,6.75-9.87,4.49-15,6.75c-.36.16-.82.38-1.39.66l-1.42.62a11.15,11.15,0,0,0,1.81,2.81,17.32,17.32,0,0,0,23.72,3.4,17.17,17.17,0,0,0,6.37-8.41,1,1,0,0,1,1.08-.74.91.91,0,0,1,.81.43,1,1,0,0,1,.15,1,19.52,19.52,0,0,1-18.43,13A18.73,18.73,0,0,1,573.82,882.23Zm1.54-26a16.68,16.68,0,0,0-5.13,12.27,20.88,20.88,0,0,0,.15,2.51,15.08,15.08,0,0,0,.89,3.43q5.25-2.38,15.85-7.17L603,860.17a19.85,19.85,0,0,0-2.09-2.82,17.33,17.33,0,0,0-25.53-1.08Z"/><path class="cls-2" d="M625.08,885.7,610,850.33a.89.89,0,0,1,.08-1,1,1,0,0,1,.88-.5,1,1,0,0,1,1,.62l13.62,31.74c.21.49.48,1.13.81,1.93a12.5,12.5,0,0,0,.58,1.39,1.72,1.72,0,0,0,1.47,1.15c.56,0,1-.36,1.46-1.15.16-.31.36-.8.62-1.47q.57-1.35.81-1.89l13.54-31.67a1,1,0,0,1,1-.65,1.17,1.17,0,0,1,1,.5.92.92,0,0,1,.07,1l-15.12,35.34a3.6,3.6,0,0,1-6.71,0Z"/><path class="cls-3" d="M522.53,864l.39-.38a1,1,0,0,0-1.47-1.47l-.38.39a1,1,0,1,0,1.46,1.46Z"/><path class="cls-3" d="M526,860.47l2.59-2.58a1,1,0,0,0,0-1.47,1,1,0,0,0-1.46,0L524.57,859a1,1,0,1,0,1.46,1.46Z"/><path class="cls-3" d="M561.37,838.32a5.81,5.81,0,0,0,0-.83,1,1,0,0,0-2,.12c0,.22,0,.45,0,.67v20.23c0,.28,0,.56,0,.84-3.28-5.46-7.84-8.92-14.12-10a16.89,16.89,0,0,0-15,4.09h0l0,0-.08.08a1,1,0,0,0,1.32,1.51h0s-.1.08,0,0c5-4.19,10.25-5.06,16.41-2.94a17.38,17.38,0,0,1,9.09,25.19,17.16,17.16,0,0,1-18.53,8.08,16.33,16.33,0,0,1-8.19-4.62q-12.74-12.93-25.45-25.89a18.93,18.93,0,0,0-26.83-.38,19.19,19.19,0,0,0-5.89,14.3q0,14.88,0,29.76c0,.19,0,.39,0,.58a1,1,0,0,0,2,0c0-.25,0-.5,0-.75V877.62l.15,0c.1.14.22.28.31.43.42.65.79,1.33,1.26,1.94,4.6,6,10.66,8.6,18.15,7.65a18.1,18.1,0,0,0,10.68-5.38c1.9-1.9,3.78-3.81,5.67-5.71.2-.2.43-.39.77-.71-.05.32-.06.46-.09.59-.48,2.29-1,4.59-1.46,6.88-.15.68-.3,1.35-.43,2s0,1.09.51,1.2.84-.16,1-.92l0-.16q1.32-6.15,2.63-12.31c.22-1-.18-1.43-1.19-1.2l-12.42,2.85c-.77.18-1.08.49-1,1s.55.75,1.34.55c2.89-.72,5.8-1.36,8.71-2,.28-.07.57-.11.91-.17a1.57,1.57,0,0,1-.14.29c-2.4,2.4-4.69,4.94-7.24,7.18a16.16,16.16,0,0,1-15.85,3.53,17.26,17.26,0,0,1-11.54-21.9A17,17,0,0,1,503,856c.6.58,1.16,1.19,1.74,1.78q5.66,5.77,11.33,11.54c4.28,4.35,8.54,8.72,12.86,13a17.92,17.92,0,0,0,11.8,5.39,18.62,18.62,0,0,0,13.35-4.19,19.15,19.15,0,0,0,7.25-15.6C561.41,858.11,561.38,848.22,561.37,838.32Z"/><path class="cls-4" d="M333.86,864.42a19.91,19.91,0,0,0-15.3-15.3,20.73,20.73,0,0,0-7.64,0c-.46.08-.88.25-1.33.36a19.36,19.36,0,0,0-2.13.64c-.5.2-1,.47-1.45.71a16.64,16.64,0,0,0-1.76,1c-.45.3-.88.65-1.31,1s-.82.56-1.2.9c-.18.16-.33.36-.51.53s-.26.2-.38.32-.35.44-.55.66a20.66,20.66,0,0,0-1.46,1.74c-.36.49-.68,1-1,1.5-.19.3-.41.56-.59.88V830.06c0-.7-.33-1-1-1h-.12a.93.93,0,0,0-1,1v56.78a.92.92,0,0,0,1,1h.12c.67,0,1-.35,1-1v-9.49c.18.32.4.58.59.88.31.51.63,1,1,1.5a20.66,20.66,0,0,0,1.46,1.74c.2.22.34.45.55.66s.26.2.38.32.33.37.51.53c.38.34.8.59,1.2.9s.86.68,1.31,1a16.64,16.64,0,0,0,1.76,1c.48.24.95.51,1.45.71a19.36,19.36,0,0,0,2.13.64c.45.11.87.28,1.33.36a20.73,20.73,0,0,0,7.64,0,19.91,19.91,0,0,0,15.3-15.3,21.31,21.31,0,0,0,0-7.8Zm-6.94,16.17a17.22,17.22,0,1,1,5.14-12.27A16.8,16.8,0,0,1,326.92,880.59Z"/><path class="cls-4" d="M377.87,849.3a1.15,1.15,0,0,0-1-.51,1,1,0,0,0-1,.66l-13.54,31.67-.81,1.89a15.45,15.45,0,0,1-.62,1.46l0,0-9.53,22.33a.93.93,0,0,0,.58,1.38l.07,0a.89.89,0,0,0,1.33-.56l10.82-25.35,13.72-32.06A.92.92,0,0,0,377.87,849.3Z"/><path class="cls-4" d="M356,883.88a1.12,1.12,0,0,0,1-.5.93.93,0,0,0,.08-1l-2.56-6h0a11.94,11.94,0,0,1-.57-1.39l-.82-1.93L343,849.41a1,1,0,0,0-1-.62,1,1,0,0,0-.89.51.91.91,0,0,0-.08,1l2.15,5h0c.15.31.36.8.61,1.47l.81,1.89L355,883.23A1,1,0,0,0,356,883.88Z"/><path class="cls-5" d="M825.22,303a16,16,0,0,1,16,16V623.08a16,16,0,0,1-16,16h-446a16,16,0,0,1-16-16V319a16,16,0,0,1,16-16h446m0-9h-446a25,25,0,0,0-25,25V623.08a25,25,0,0,0,25,25h446a25,25,0,0,0,25-25V319a25,25,0,0,0-25-25Z"/><line class="cls-6" x1="364.69" y1="303.04" x2="602.47" y2="541.54"/><line class="cls-6" x1="602.44" y1="541.51" x2="840" y2="303.95"/><line class="cls-6" x1="367.8" y1="638.29" x2="533.62" y2="472.47"/><line class="cls-6" x1="838.79" y1="639.63" x2="673.6" y2="474.44"/><line class="cls-7" x1="91.87" y1="561.96" x2="325.49" y2="561.96"/><line class="cls-7" x1="91.87" y1="476.4" x2="325.49" y2="476.4"/><line class="cls-7" x1="91.87" y1="390.85" x2="325.49" y2="390.85"/><line class="cls-7" x1="137.21" y1="433.63" x2="325.49" y2="433.63"/><line class="cls-7" x1="141.11" y1="519.18" x2="325.49" y2="519.18"/></svg>