<svg id="Layer_1" data-name="Layer 1" xmlns="http://www.w3.org/2000/svg" viewBox="0 0 772.08 244.95"><defs><style>.cls-1{fill:#fff;stroke:#fff;stroke-miterlimit:10;stroke-width:1.5px;}.cls-2{fill:#b6ce53;}.cls-3{fill:#1c4f9b;}</style></defs><rect x="0.33" y="-0.08" width="771.42" height="245.1"/><path class="cls-1" d="M329.76,224.72a.75.75,0,0,1-.83-.86V204.07a11.31,11.31,0,0,1,3.41-8.24,11,11,0,0,1,8.17-3.38h1.95c.57,0,.85.3.85.9s-.28,1-.85,1h-1.95a9.44,9.44,0,0,0-6.9,2.8,9.68,9.68,0,0,0-2.9,7v19.79a.76.76,0,0,1-.86.86Z"/><path class="cls-1" d="M377.88,224.72c-.56,0-.83-.29-.83-.86V216a17,17,0,0,1-3.69,4.64,16.09,16.09,0,1,1,5.47-12.09v15.27a.76.76,0,0,1-.86.86Zm-25.3-26.25a14.35,14.35,0,1,0,20.24,0,14.36,14.36,0,0,0-20.24,0Z"/><path class="cls-1" d="M470.82,220a16.14,16.14,0,0,1,11.39-27.53A15.65,15.65,0,0,1,490.9,195a15.85,15.85,0,0,1,6,6.84.82.82,0,0,1,.06.64.8.8,0,0,1-.41.51q-4.39,1.93-12.41,5.57t-12.35,5.57c-.3.12-.68.3-1.15.54l-1.17.51a9.46,9.46,0,0,0,1.49,2.32,14.3,14.3,0,0,0,19.57,2.8,14.07,14.07,0,0,0,5.26-6.94.83.83,0,0,1,.89-.6.74.74,0,0,1,.67.35.83.83,0,0,1,.12.83,16.12,16.12,0,0,1-15.21,10.75A15.46,15.46,0,0,1,470.82,220Zm1.27-21.42a13.76,13.76,0,0,0-4.23,10.12,15.76,15.76,0,0,0,.13,2.07,11.91,11.91,0,0,0,.73,2.83l13.08-5.91,13.08-5.89a16.77,16.77,0,0,0-1.72-2.33,14.31,14.31,0,0,0-21.07-.89Z"/><path class="cls-1" d="M513.11,222.84l-12.47-29.18a.74.74,0,0,1,.06-.79.81.81,0,0,1,.73-.42.85.85,0,0,1,.86.51l11.24,26.19c.16.41.39.94.66,1.59a10,10,0,0,0,.48,1.15,1.4,1.4,0,0,0,1.21,1c.47,0,.87-.29,1.21-1a13,13,0,0,0,.51-1.21l.67-1.56L529.44,193a.83.83,0,0,1,.79-.54.94.94,0,0,1,.83.42.75.75,0,0,1,.06.79l-12.47,29.15a3,3,0,0,1-5.54,0Z"/><path class="cls-1" d="M428.51,204.92l.32-.32a.86.86,0,1,0-1.21-1.21l-.32.32a.86.86,0,1,0,1.21,1.21Z"/><path class="cls-1" d="M431.4,202l2.13-2.14a.85.85,0,0,0,0-1.21.86.86,0,0,0-1.21,0l-2.13,2.14a.85.85,0,0,0,0,1.21A.86.86,0,0,0,431.4,202Z"/><path class="cls-1" d="M460.55,183.75a5.15,5.15,0,0,0,0-.68.77.77,0,0,0-.89-.74q-.74,0-.78.84c0,.18,0,.36,0,.55v16.69c0,.23,0,.46,0,.69a16.32,16.32,0,0,0-11.65-8.24,13.93,13.93,0,0,0-12.34,3.37h0l0,0-.06.06a.83.83,0,0,0,1.09,1.25h0s-.08.07,0,0c4.12-3.45,8.46-4.17,13.54-2.42a14.34,14.34,0,0,1,7.5,20.78,14.15,14.15,0,0,1-15.29,6.66,13.39,13.39,0,0,1-6.75-3.8q-10.52-10.68-21-21.37A15.28,15.28,0,0,0,403,192.67a15.11,15.11,0,0,0-11.27,4.44,15.83,15.83,0,0,0-4.86,11.79q0,12.28,0,24.56c0,.16,0,.32,0,.48a.83.83,0,0,0,1.65,0c0-.21,0-.41,0-.62V216.18l.12,0c.09.12.18.23.26.35.35.54.65,1.1,1,1.61a15.38,15.38,0,0,0,15,6.31,14.89,14.89,0,0,0,8.81-4.45c1.57-1.56,3.12-3.13,4.68-4.7.17-.17.35-.33.63-.59,0,.27,0,.38-.06.49q-.61,2.84-1.21,5.67c-.12.56-.25,1.12-.36,1.68s0,.9.43,1,.69-.13.84-.76l0-.13q1.08-5.09,2.17-10.15c.18-.85-.15-1.18-1-1l-10.25,2.35c-.63.15-.89.41-.8.82s.45.61,1.1.44c2.39-.59,4.79-1.11,7.19-1.66l.75-.14a1,1,0,0,1-.12.24c-2,2-3.86,4.08-6,5.92a13.33,13.33,0,0,1-13.08,2.91,14.24,14.24,0,0,1-9.52-18.06,14,14,0,0,1,23.24-5.92c.49.48.95,1,1.43,1.47l9.35,9.52c3.53,3.59,7.05,7.19,10.61,10.76a14.85,14.85,0,0,0,9.73,4.45,15.39,15.39,0,0,0,11-3.46,15.83,15.83,0,0,0,6-12.87C460.59,200.08,460.56,191.92,460.55,183.75Z"/><path class="cls-1" d="M272.85,205.28a16.45,16.45,0,0,0-12.62-12.62,17.77,17.77,0,0,0-3.22-.29,17.13,17.13,0,0,0-3.08.28c-.38.07-.73.21-1.1.3a14.9,14.9,0,0,0-1.76.53,13.16,13.16,0,0,0-1.19.59,13.71,13.71,0,0,0-1.46.79c-.37.24-.72.53-1.08.81s-.68.46-1,.74c-.15.13-.27.3-.42.43s-.21.17-.31.27-.29.37-.46.54a15.52,15.52,0,0,0-1.2,1.44,14.77,14.77,0,0,0-.82,1.24c-.15.25-.34.46-.48.73V176.93a.75.75,0,0,0-.83-.86h-.1a.76.76,0,0,0-.85.86v46.85a.76.76,0,0,0,.85.86h.1a.75.75,0,0,0,.83-.86V216c.14.26.33.48.48.73.26.42.52.84.82,1.24a16.8,16.8,0,0,0,1.2,1.43c.17.18.28.37.46.55s.21.16.31.26.27.31.42.44c.31.28.66.49,1,.74s.71.56,1.08.81a15.78,15.78,0,0,0,1.46.79c.39.2.78.42,1.19.59a14.86,14.86,0,0,0,1.76.52c.37.1.72.23,1.1.3a16.25,16.25,0,0,0,3.08.29,16.91,16.91,0,0,0,3.22-.3,16.41,16.41,0,0,0,12.62-12.62,18,18,0,0,0,0-6.44Zm-5.72,13.34a14.22,14.22,0,1,1,4.23-10.12A13.84,13.84,0,0,1,267.13,218.62Z"/><path class="cls-1" d="M309.16,192.81a.94.94,0,0,0-.83-.42.84.84,0,0,0-.8.54l-11.17,26.13c-.12.3-.35.82-.66,1.56-.22.55-.39,1-.51,1.21h0l-7.86,18.43a.77.77,0,0,0,.48,1.14l.06,0A.75.75,0,0,0,289,241l8.92-20.92,11.32-26.45A.75.75,0,0,0,309.16,192.81Z"/><path class="cls-1" d="M291.12,221.34a1,1,0,0,0,.83-.41.77.77,0,0,0,.06-.8l-2.1-4.92h0a10.6,10.6,0,0,1-.47-1.15c-.28-.65-.5-1.19-.67-1.59l-8.39-19.56a.85.85,0,0,0-.86-.51.8.8,0,0,0-.73.42.77.77,0,0,0-.07.79l1.78,4.16h0c.12.25.29.66.51,1.21.31.74.54,1.26.66,1.56l8.67,20.26A.83.83,0,0,0,291.12,221.34Z"/><path class="cls-2" d="M659.69,101.32a2.19,2.19,0,0,1-1.43.52H630.19a2.32,2.32,0,0,1-2.12-1.28,2.25,2.25,0,0,1,.59-2.65l51.21-43.13a2.41,2.41,0,0,0,0-3.69L628.74,7.67a2.32,2.32,0,0,1-.84-2.14,2.23,2.23,0,0,1,2.21-1.85h27a2.25,2.25,0,0,1,1.44.52l55.73,46.88.51.43a1.87,1.87,0,0,1,0,2.81l-.55.5Z"/><path class="cls-3" d="M112.45,4.36H95.33A3.75,3.75,0,0,0,91.6,8.1V63.45a1.52,1.52,0,0,1-2.52,1.14L25.7,9.41c-4.32-3.76-9-5.67-14-5.67C7.35,3.74,0,5.52,0,17.47V97.54a3.73,3.73,0,0,0,3.73,3.74H20.85a3.73,3.73,0,0,0,3.73-3.73V42a1.52,1.52,0,0,1,2.52-1.15l64.05,56c4,3.52,8.28,5.31,12.83,5.31s12.21-1.87,12.21-14.36V8.1A3.75,3.75,0,0,0,112.45,4.36Z"/><path class="cls-3" d="M237.72,4.36h-19.9a2.22,2.22,0,0,0-2.22,2.22V71.4c0,5.34-6.63,8-19.72,8H168.81c-13.33,0-20.1-2.71-20.1-8V6.58a2.21,2.21,0,0,0-2.21-2.22H126.35a2.21,2.21,0,0,0-2.22,2.22V72.4a27.63,27.63,0,0,0,2.27,11.71,24.67,24.67,0,0,0,6.06,8.11,28,28,0,0,0,8.63,5.09,54.22,54.22,0,0,0,9.83,2.67,74.9,74.9,0,0,0,10.39,1.11q5.16.19,9.71.19h22c16.17,0,27.68-2.24,35.19-6.83,7.76-4.75,11.7-12.17,11.7-22V6.58A2.22,2.22,0,0,0,237.72,4.36Z"/><path class="cls-3" d="M354.09,21.47V8.71a4.47,4.47,0,0,0-4.47-4.47H252.27a4.48,4.48,0,0,0-4.48,4.47V21.47a4.48,4.48,0,0,0,4.48,4.47h34a2.26,2.26,0,0,1,2.26,2.26V96.81a4.47,4.47,0,0,0,4.47,4.47H308.7a4.47,4.47,0,0,0,4.47-4.48V28.2a2.26,2.26,0,0,1,2.26-2.26h34.18A4.47,4.47,0,0,0,354.09,21.47Z"/><path class="cls-3" d="M407,10.92c-3.35-4.68-7.79-7.06-13.19-7.06s-9.73,2.42-13.09,7.22L320.71,97.79a2.23,2.23,0,0,0,.16,2.74,2.41,2.41,0,0,0,1.82.75H346.3a2.22,2.22,0,0,0,1.87-1l15.08-23.2a1.77,1.77,0,0,1,1.5-.81h57.89a1.82,1.82,0,0,1,1.49.81l15.42,23.23a2.23,2.23,0,0,0,1.85,1h22.66a2.23,2.23,0,0,0,1.83-3.47ZM379.6,52.58l12.47-17.92a1.45,1.45,0,0,1,2.37,0l12.61,17.79a1.25,1.25,0,0,1-1,2H380.56A1.17,1.17,0,0,1,379.6,52.58Z"/><path class="cls-3" d="M584.19,4.36H566.6a3.5,3.5,0,0,0-3.5,3.5V64a1.28,1.28,0,0,1-2.12,1L497.21,9.41c-4.32-3.76-9-5.67-14-5.67-4.37,0-11.72,1.78-11.72,13.73V97.78a3.51,3.51,0,0,0,3.5,3.5h17.59a3.5,3.5,0,0,0,3.5-3.5V41.44a1.28,1.28,0,0,1,2.12-1l64.44,56.36c4,3.52,8.29,5.31,12.84,5.31s12.2-1.87,12.2-14.36V7.86A3.5,3.5,0,0,0,584.19,4.36Z"/><path class="cls-3" d="M617.89,4.36H597.75a2.21,2.21,0,0,0-2.22,2.22V99.06a2.22,2.22,0,0,0,2.22,2.22h20.14a2.23,2.23,0,0,0,2.22-2.22V6.58A2.22,2.22,0,0,0,617.89,4.36Z"/><path class="cls-3" d="M722.89,44.82a2.39,2.39,0,0,0,3.1,0l44.7-37.15a2.35,2.35,0,0,0,.85-2.14,2.25,2.25,0,0,0-2.21-1.85h-27a2.27,2.27,0,0,0-1.44.52L709.51,29.77a2.41,2.41,0,0,0,0,3.66Z"/><path class="cls-3" d="M722.74,61.06a2.39,2.39,0,0,1,3.1,0l45.37,37.05a2.34,2.34,0,0,1,.84,2.14,2.23,2.23,0,0,1-2.21,1.86h-27a2.25,2.25,0,0,1-1.44-.52l-31.17-26a2.39,2.39,0,0,1,0-3.66Z"/></svg>
